<ttFont>
          <CharString index="0">
            rmoveto
            207 110 167 191 40 hvcurveto
            75 -40 callsubr
            -75 -357 rlineto
            -153 -32 -84 -158 -181 hhcurveto
            -133 -45 86 109 37 6 39 8 40 hvcurveto
            76 -40 callsubr
            -76 -357 rlineto
            -9 -42 -5 -43 -39 vvcurveto
            -130 56 -104 164 vhcurveto
            return
          </CharString>
          <CharString index="1">
            66 -24 -56 56 -87 hhcurveto
            -151 -139 -157 -163 -116 70 -103 115 hvcurveto
            18 45 rmoveto
            -89 -62 83 97 128 111 141 127 79 65 -64 -74 10 hvcurveto
            -36 -171 rlineto
            -75 -25 -107 -65 -73 hhcurveto
            return
          </CharString>
          <CharString index="2">
            rmoveto
            159 147 154 166 120 -74 99 -117 -158 -149 -153 -169 -119 73 -98 119 hvcurveto
            9 45 rmoveto
            -89 -60 78 100 143 126 128 119 89 61 -80 -101 -142 -125 -126 -121 hvcurveto
            return
          </CharString>
          <CharString index="3">
            3 callsubr
            hintmask 10101100
            -85 callsubr
            hintmask 01011100
            -100 callsubr
            hintmask 10101100
            -106 callsubr
            return
          </CharString>
          <CharString index="4">
            68 -31 -51 54 -86 hhcurveto
            -157 -137 -160 -160 -114 68 -103 115 73 83 45 67 53 hvcurveto
            -24 -114 rlineto
            -114 -25 -95 -58 -100 hhcurveto
            -76 -65 32 70 -24 hvcurveto
            -38 -23 rlineto
            -73 26 53 -47 115 hhcurveto
            66 258 rmoveto
            -93 -60 83 99 120 105 147 135 76 64 -58 -80 12 hvcurveto
            -36 -171 rlineto
            -67 -24 -96 -73 -83 hhcurveto
            return
          </CharString>
          <CharString index="5">
            hlineto
            10 46 rlineto
            -399 hlineto
            63 295 rlineto
            340 hlineto
            10 44 rlineto
            -341 hlineto
            59 279 rlineto
            391 hlineto
            9 46 rlineto
            -441 hlineto
            return
          </CharString>
          <CharString index="6">
            57 268 rlineto
            216 hlineto
            106 -268 rlineto
            58 hlineto
            -108 276 rlineto
            114 17 94 118 117 vvcurveto
            93 -58 89 -97 vhcurveto
            -282 hlineto
            -151 -710 rlineto
            118 315 rmoveto
            74 349 rlineto
            228 hlineto
            69 46 -66 -76 -99 -82 -108 -100 hvcurveto
            return
          </CharString>
          <CharString index="7">
            -21 14 -15 27 4 5 1 1 6 vhcurveto
            -19 callsubr
            -12 -5 5 10 4 1 4 1 4 hvcurveto
            96 448 rlineto
            -51 32 callsubr
            return
          </CharString>
          <CharString index="8">
            rmoveto
            94 63 68 -63 33 17 -75 81 rlineto
            -37 hlineto
            -109 -81 rlineto
            return
          </CharString>
          <CharString index="9">
            5 0 4 1 5 vhcurveto
            -33 hlineto
            -2 -7 -1 -6 -7 vvcurveto
            -41 28 -31 42 46 48 41 51 11 vhcurveto
            -32 hlineto
            return
          </CharString>
          <CharString index="10">
            -86 -86 -81 -38 -81 hhcurveto
            -127 -83 116 137 176 150 197 183 95 69 -40 -93 26 hvcurveto
            46 25 rlineto
            91 -24 -66 64 -135 hhcurveto
            -206 -189 -213 -210 -152 92 -145 157 84 83 38 77 81 hvcurveto
            return
          </CharString>
          <CharString index="11">
            92 45 100 69 82 hhcurveto
            56 27 -32 -68 -25 -3 -31 -8 -37 -29 callsubr
            40 5 34 31 vvcurveto
            81 -33 44 -79 -87 -96 -54 -79 -57 vhcurveto
            return
          </CharString>
          <CharString index="12">
            -6 -1 -6 -6 vvcurveto
            31 hlineto
            2 6 0 7 6 vvcurveto
            39 -25 34 -44 -50 -44 -42 -50 -10 vhcurveto
            return
          </CharString>
          <CharString index="13">
            rmoveto
            104 131 58 107 68 hvcurveto
            -40 21 rlineto
            -97 -66 -103 -42 -81 hhcurveto
            -127 -81 117 138 170 142 201 197 78 79 -34 -98 25 hvcurveto
            47 24 rlineto
            90 -22 -73 65 -120 hhcurveto
            -233 -171 -227 -194 -153 89 -146 157 hvcurveto
            return
          </CharString>
          <CharString index="14">
            rmoveto
            92 94 54 73 41 hvcurveto
            -46 14 rlineto
            -51 -26 -80 -45 -69 hhcurveto
            -89 -61 80 102 145 121 122 124 64 50 -35 -57 16 hvcurveto
            53 16 rlineto
            75 -19 -62 46 -90 hhcurveto
            -164 -144 -149 -170 -122 76 -98 119 hvcurveto
            return
          </CharString>
          <CharString index="15">
            rmoveto
            19 90 rlineto
            -46 hlineto
            -19 -90 rlineto
            return
          </CharString>
          <CharString index="16">
            46 hlineto
            227 365 70 -365 rlineto
            46 hlineto
            439 710 rlineto
            -56 hlineto
            -394 -650 -66 346 182 299 -77 callgsubr
            -155 -258 -45 258 -77 callgsubr
            56 -299 -213 -346 -118 650 rlineto
            -56 hlineto
            return
          </CharString>
          <CharString index="17">
            hstem
            78 51 vstem
            -99 callgsubr
            return
          </CharString>
          <CharString index="18">
            rmoveto
            -57 hlineto
            -76 -85 31 -16 rlineto
            return
          </CharString>
          <CharString index="19">
            rmoveto
            32 16 -39 85 -77 callgsubr
            -55 -101 rmoveto
            32 16 -37 85 rlineto
            -52 hlineto
            return
          </CharString>
          <CharString index="20">
            rmoveto
            75 28 71 12 2 hvcurveto
            -33 hlineto
            -4 -1 -14 -44 -50 hhcurveto
            return
          </CharString>
          <CharString index="21">
            50 16 45 33 49 vvcurveto
            53 -56 31 -59 -71 -85 -42 -69 -34 25 -25 33 -12 vhcurveto
            -54 -16 -59 -40 -61 vvcurveto
            -54 48 -44 77 vhcurveto
            10 34 rmoveto
            -49 -50 26 44 57 71 38 61 hvcurveto
            return
          </CharString>
          <CharString index="22">
            212 -10 rmoveto
            75 83 45 69 54 hvcurveto
            -10 -51 -2 -10 -9 vvcurveto
            return
          </CharString>
          <CharString index="23">
            207 hmoveto
            50 hlineto
            58 268 359 442 rlineto
            -56 hlineto
            -318 -393 -150 393 rlineto
            -57 hlineto
            171 -440 rlineto
            return
          </CharString>
          <CharString index="24">
            -20 -90 callsubr
            return
          </CharString>
          <CharString index="25">
            rmoveto
            190 54 144 216 46 hvcurveto
            77 360 -75 callgsubr
            -77 -360 rlineto
            -198 -42 -42 -115 -145 hhcurveto
            -54 -43 16 22 -25 hvcurveto
            -25 -41 rlineto
            -29 34 45 -15 58 hhcurveto
            return
          </CharString>
          <CharString index="26">
            218 -10 -105 callsubr
            return
          </CharString>
          <CharString index="27">
            rlineto
            5 17 35 9 27 hhcurveto
            24 17 -7 -21 -31 -22 -14 -43 -32 -30 10 9 -17 hvcurveto
            return
          </CharString>
          <CharString index="28">
            -10 22 31 -9 35 hhcurveto
            67 38 28 50 30 -21 16 -37 -10 -16 -1 -5 -12 hvcurveto
            return
          </CharString>
          <CharString index="29">
            rmoveto
            -37 -36 -11 -22 -28 hvcurveto
            63 142 rlineto
            181 hlineto
            8 35 rlineto
            -208 hlineto
            -9 -23 -69 -156 -18 -42 rrcurveto
            33 hlineto
            29 27 43 19 40 hhcurveto
            48 44 -28 -51 -65 -63 -48 -71 -51 -37 24 37 -15 hvcurveto
            -28 -18 rlineto
            -46 14 return
          </CharString>
          <CharString index="30">
            rmoveto
            37 16 -41 85 3 callgsubr
            endchar
          </CharString>
          <CharString index="31">
            rmoveto
            125 124 72 141 30 hvcurveto
            113 530 rlineto
            -45 32 callsubr
            return
          </CharString>
          <CharString index="32">
            131 0 46 290 42 286 46 hstem
            614 53 vstem
            45 336 rmoveto
            60 hlineto
            -71 -336 rlineto
            225 hlineto
            235 173 187 252 152 -81 119 -176 hvcurveto
            -225 hlineto
            -71 -332 rlineto
            -60 hlineto
            41 -332 rmoveto
            61 290 rlineto
            169 hlineto
            9 42 rlineto
            -169 hlineto
            61 286 rlineto
            174 -18 callgsubr
            72 -98 -136 -202 -131 -182 -214 hvcurveto
            endchar
          </CharString>
          <CharString index="33">
            rmoveto
            673 693 -23 23 -673 -692 rlineto
            return
          </CharString>
          <CharString index="34">
            45 hlineto
            73 345 rlineto
            -196 hlineto
            -9 -41 rlineto
            152 hlineto
            -30 -138 rlineto
            return
          </CharString>
          <CharString index="35">
            50 hlineto
            110 520 -77 callgsubr
            return
          </CharString>
          <CharString index="36">
            -18 callgsubr
            664 rlineto
            246 hlineto
            10 46 rlineto
            -544 hlineto
            -9 -46 rlineto
            246 hlineto
            endchar
          </CharString>
          <CharString index="37">
            rmoveto
            8 37 rlineto
            -272 hlineto
            -8 -37 rlineto
            return
          </CharString>
          <CharString index="38">
            23 30 rlineto
            -26 4 -13 13 20 vvcurveto
            31 return
          </CharString>
          <CharString index="39">
            -94 callgsubr
            endchar
          </CharString>
          <CharString index="40">
            34 hlineto
            23 106 rlineto
            54 -1 callsubr
            -54 hlineto
            54 253 rlineto
            -24 hlineto
            -283 -255 -7 -32 rlineto
            218 hlineto
            -171 34 rmoveto
            222 202 -43 -202 rlineto
            return
          </CharString>
          <CharString index="41">
            26 callsubr
            43 96 69 79 hhcurveto
            60 31 -37 -73 -24 -3 -26 -7 -33 -29 callsubr
            35 3 32 28 vvcurveto
            return
          </CharString>
          <CharString index="42">
            rmoveto
            205 196 209 217 hvcurveto
            hintmask 11011000
            150 -88 144 -159 -206 -197 -210 -218 -152 89 -140 160 vhcurveto
            -35 callsubr
          </CharString>
          <CharString index="43">
            rmoveto
            -51 hlineto
            -75 -85 26 -16 rlineto
            212 101 rmoveto
            -52 hlineto
            -74 -85 26 -16 rlineto
            return
          </CharString>
          <CharString index="44">
            85 -61 callsubr
            return
          </CharString>
          <CharString index="45">
            rmoveto
            159 147 154 166 hvcurveto
            hintmask 11011000
            120 -74 99 -117 -158 -149 -153 -169 -119 73 -98 119 vhcurveto
            -27 callsubr
          </CharString>
          <CharString index="46">
            21 -53 callgsubr
            return
          </CharString>
          <CharString index="47">
            50 hlineto
            60 282 rlineto
            130 80 95 77 87 hhcurveto
            50 30 -24 -46 -72 -75 -63 -139 -29 hvcurveto
            124 -255 rlineto
            55 hlineto
            -118 232 rlineto
            127 34 74 73 87 vvcurveto
            65 -40 40 -76 -94 -88 -66 -104 -75 vhcurveto
            78 369 -77 callgsubr
            endchar
          </CharString>
          <CharString index="48">
            hmoveto
            -86 callgsubr
            return
          </CharString>
          <CharString index="49">
            rmoveto
            63 -50 48 -74 -55 -58 -28 -43 -27 vhcurveto
            109 24 63 63 74 hhcurveto
            48 36 -25 -37 8 hvcurveto
            28 22 rlineto
            46 -12 -44 27 -56 hhcurveto
            -126 -89 -123 -151 -79 49 -49 76 96 89 72 85 hvcurveto
            -177 -124 rmoveto
            -57 -42 39 49 62 return
          </CharString>
          <CharString index="50">
            179 156 196 184 51 43 -19 -31 33 vhcurveto
            -416 -497 rlineto
            -33 46 -18 60 66 vvcurveto
            207 -251 rmoveto
            -51 -43 17 30 -33 hvcurveto
            416 496 rlineto
            32 -45 18 -60 -64 vvcurveto
            -177 -154 -197 -185 vhcurveto
            return
          </CharString>
          <CharString index="51">
            -69 callsubr
            24 26 75 45 vhcurveto
            return
          </CharString>
          <CharString index="52">
            632 -91 callgsubr
            -235 -713 -58 callgsubr
            return
          </CharString>
          <CharString index="53">
            22 -223 41 174 43 449 45 -9 -20 return
          </CharString>
          <CharString index="54">
            vvcurveto
            -26 17 -22 34 -8 vhcurveto
            return
          </CharString>
          <CharString index="55">
            rmoveto
            -23 -17 23 27 hvcurveto
            return
          </CharString>
          <CharString index="56">
            40 hlineto
            304 393 rlineto
            -295 hlineto
            -8 -35 rlineto
            240 hlineto
            endchar
          </CharString>
          <CharString index="57">
            -151 -92 callsubr
            return
          </CharString>
          <CharString index="58">
            21 -41 callsubr
            return
          </CharString>
          <CharString index="59">
            -32 -45 callgsubr
            return
          </CharString>
          <CharString index="60">
            35 5 -14 callsubr
            return
          </CharString>
          <CharString index="61">
            -89 callsubr
            endchar
          </CharString>
          <CharString index="62">
            -44 callsubr
            12 callsubr
            return
          </CharString>
          <CharString index="63">
            -10 -46 callgsubr
            return
          </CharString>
          <CharString index="64">
            78 47 -26 -43 -50 -61 -36 -70 -68 -38 39 38 hvcurveto
            -27 -20 rlineto
            -62 63 -30 63 vhcurveto
            endchar
          </CharString>
          <CharString index="65">
            123 -5 47 -21 -21 304 41 323 47 return
          </CharString>
          <CharString index="66">
            -21 520 -20 return
          </CharString>
          <CharString index="67">
            357 -75 callgsubr
            return
          </CharString>
          <CharString index="68">
            42 callsubr
            -78 -93 -61 -57 -10 -10 vhcurveto
            19 -25 rlineto
            23 23 45 35 66 hhcurveto
            58 26 -30 -37 -75 -86 -17 -68 -25 hvcurveto
            -85 -31 -51 -47 -22 -102 rrcurveto
            endchar
          </CharString>
          <CharString index="69">
            hintmask 11111010
            79 29 77 62 91 vvcurveto
            94 -85 53 -89 -112 -137 -74 -128 -60 39 -46 50 -21 vhcurveto
            -85 -27 -100 -78 -112 vvcurveto
            -94 71 -77 118 vhcurveto
            return
          </CharString>
          <CharString index="70">
            rmoveto
            89 88 52 76 42 -30 31 -41 14 hvcurveto
            return
          </CharString>
          <CharString index="71">
            -336 625 rlineto
            -40 hlineto
            return
          </CharString>
          <CharString index="72">
            10 47 rmoveto
            -131 -76 116 135 179 156 196 184 129 77 -117 -135 -177 -154 -197 -185 hvcurveto
            endchar
          </CharString>
          <CharString index="73">
            47 626 47 return
          </CharString>
          <CharString index="74">
            21 -21 479 41 136 45 -6 45 hstemhm
            hintmask 11010000
            32 hmoveto
            50 hlineto
            101 479 rlineto
            162 -5 callsubr
            102 479 rlineto
            return
          </CharString>
          <CharString index="75">
            -93 -62 -57 -10 -9 vhcurveto
            19 -24 rlineto
            22 22 46 35 65 hhcurveto
            58 27 -31 -36 -75 -86 -17 -69 -26 hvcurveto
            -84 -31 -51 -47 -22 -101 rrcurveto
            endchar
          </CharString>
          <CharString index="76">
            -900 rmoveto
            -86 callgsubr
            return
          </CharString>
          <CharString index="77">
            51 hlineto
            47 219 168 149 190 -368 rlineto
            58 hlineto
            -209 399 346 311 rlineto
            -59 hlineto
            -482 -431 rlineto
            return
          </CharString>
          <CharString index="78">
            -4 callgsubr
            63 -14 callgsubr
            return
          </CharString>
          <CharString index="79">
            36 19 35 176 36 -12 36 return
          </CharString>
          <CharString index="80">
            9 45 rmoveto
            -89 -60 78 100 143 126 128 119 89 61 -80 -101 -142 -125 -126 -121 hvcurveto
            endchar
          </CharString>
          <CharString index="81">
            19 -6 45 630 46 221 -20 hstem
            102 55 313 56 vstem
            return
          </CharString>
          <CharString index="82">
            -16 callsubr
            hvcurveto
            return
          </CharString>
          <CharString index="83">
            -56 callgsubr
            227 -20 hstem
            return
          </CharString>
          <CharString index="84">
            hlineto
            9 41 rlineto
            return
          </CharString>
          <CharString index="85">
            rmoveto
            89 85 48 75 42 -29 34 -49 8 hvcurveto
            return
          </CharString>
          <CharString index="86">
            34 -39 -50 22 -61 hhcurveto
            -206 -197 -210 -218 -78 23 -75 45 -54 hvcurveto
            -67 -80 rlineto
            57 hlineto
            40 48 rlineto
            return
          </CharString>
          <CharString index="87">
            -33 40 50 -20 61 hhcurveto
            205 196 209 217 76 -23 75 -44 55 hvcurveto
            70 83 rlineto
            -601 -417 rmoveto
            return
          </CharString>
          <CharString index="88">
            10 45 rlineto
            return
          </CharString>
          <CharString index="89">
            77 365 rlineto
            -36 hlineto
            -3 -2 -63 -52 -43 hhcurveto
            -7 -35 rlineto
            33 56 30 18 17 hvcurveto
            -68 -323 rlineto
            -83 hlineto
            return
          </CharString>
          <CharString index="90">
            hstem
            -44 callgsubr
            vstem
            return
          </CharString>
          <CharString index="91">
            46 41 -22 -37 -47 -65 -29 -50 return
          </CharString>
          <CharString index="92">
            -5 21 callsubr
            return
          </CharString>
          <CharString index="93">
            35 8 -20 hstemhm
            return
          </CharString>
          <CharString index="94">
            rmoveto
            -85 callgsubr
            return
          </CharString>
          <CharString index="95">
            rmoveto
            124 99 127 108 76 -41 87 -98 -124 -101 -127 -108 -77 42 -86 99 hvcurveto
            return
          </CharString>
          <CharString index="96">
            rmoveto
            -195 175 -9 -45 160 -144 -221 -143 -10 -45 269 172 rlineto
            endchar
          </CharString>
          <CharString index="97">
            -67 callgsubr
            207 -20 hstem
            return
          </CharString>
          <CharString index="98">
            -21 483 46 return
          </CharString>
          <CharString index="99">
            rlineto
            330 hlineto
            9 44 rlineto
            -329 hlineto
            59 282 rlineto
            389 hlineto
            10 46 rlineto
            -440 hlineto
            return
          </CharString>
          <CharString index="100">
            0 46 618 43 callgsubr
            return
          </CharString>
          <CharString index="101">
            -35 callgsubr
            hstem
            562 53 vstem
            return
          </CharString>
          <CharString index="102">
            hlineto
            -102 -479 -12 callgsubr
            return
          </CharString>
          <CharString index="103">
            -86 -203 -21 744 return
          </CharString>
          <CharString index="104">
            650 -21 101 -20 hstem
            return
          </CharString>
          <CharString index="105">
            -8 -1 -8 -6 vvcurveto
            -46 return
          </CharString>
          <CharString index="106">
            hlineto
            7 34 rlineto
            return
          </CharString>
          <CharString index="107">
            -20 21 -20 hstemhm
            return
          </CharString>
          <CharString index="108">
            1 -7 44 322 41 264 46 hstemhm
            25 51 45 50 274 51 -4 52 hintmask 11111100
            return
          </CharString>
          <CharString index="109">
            -27 249 46 hstem
            461 249 rmoveto
            9 46 rlineto
            -406 -31 callgsubr
            endchar
          </CharString>
          <CharString index="110">
            hstemhm
            27 52 return
          </CharString>
          <CharString index="111">
            65 -24 -61 49 -77 hhcurveto
            -151 -150 -155 -170 -114 62 -100 114 return
          </CharString>
          <CharString index="112">
            rmoveto
            -58 -42 40 48 39 callsubr
            -71 hvcurveto
            endchar
          </CharString>
          <CharString index="113">
            45 630 46 hstem
            102 55 313 56 vstem
            return
          </CharString>
          <CharString index="114">
            47 438 41 178 -20 hstem
            48 54 vstem
            return
          </CharString>
          <CharString index="115">
            hlineto
            8 38 24 56 96 32 rrcurveto
            return
          </CharString>
          <CharString index="116">
            -34 callsubr
            203 -20 hstem
            return
          </CharString>
          <CharString index="117">
            33 192 29 109 35 hstem
            return
          </CharString>
          <CharString index="118">
            -171 27 73 24 return
          </CharString>
          <CharString index="119">
            201 -20 hstem
            return
          </CharString>
          <CharString index="120">
            -39 -61 vvcurveto
            -54 48 -45 78 vhcurveto
            hintmask 11111100
            89 87 53 76 hvcurveto
            -35 -1 rmoveto
            -57 return
          </CharString>
          <CharString index="121">
            -169 rmoveto
            -56 callsubr
            return
          </CharString>
          <CharString index="122">
            -86 -126 -108 -96 -116 -76 -58 46 69 -20 hvcurveto
            -41 -21 rlineto
            -84 return
          </CharString>
          <CharString index="123">
            226 45 -184 rlineto
            31 hlineto
            123 184 -48 -226 rlineto
            37 hlineto
            return
          </CharString>
          <CharString index="124">
            20 92 rlineto
            -52 hlineto
            -19 -92 rlineto
            18 hlineto
            return
          </CharString>
          <CharString index="125">
            44 callgsubr
            hstem
            return
          </CharString>
          <CharString index="126">
            hstemhm
            -44 callgsubr
            return
          </CharString>
          <CharString index="127">
            hstemhm
            -40 callgsubr
            return
          </CharString>
          <CharString index="128">
            47 668 -20 return
          </CharString>
          <CharString index="129">
            hlineto
            hintmask 11010000
            92 205 rlineto
            -44 hlineto
            hintmask 11100000
            -90 -205 rlineto
            return
          </CharString>
          <CharString index="130">
            127 87 122 151 80 -49 48 -76 -96 -89 -71 -85 return
          </CharString>
          <CharString index="131">
            -25 29 callsubr
          </CharString>
          <CharString index="132">
            -21 709 0 callsubr
            return
          </CharString>
          <CharString index="133">
            -51 callgsubr
            92 return
          </CharString>
          <CharString index="134">
            -191 -21 202 45 -14 -41 callsubr
            hstemhm
            hintmask 11010000
            return
          </CharString>
          <CharString index="135">
            hhcurveto
            27 27 -10 -15 13 hvcurveto
            26 36 rlineto
            20 -20 -35 13 return
          </CharString>
          <CharString index="136">
            -74 callsubr
            endchar
          </CharString>
          <CharString index="137">
            629 rmoveto
            103 101 rlineto
            -78 hlineto
            -7 -31 -48 -54 rlineto
            return
          </CharString>
          <CharString index="138">
            rlineto
            -69 hlineto
            -9 -41 rlineto
            69 hlineto
            return
          </CharString>
          <CharString index="139">
            hlineto
            -24 -113 rlineto
            return
          </CharString>
          <CharString index="140">
            -155 -154 -206 -207 155 -155 return
          </CharString>
          <CharString index="141">
            -10 32 219 32 164 32 219 32 hstemhm
            return
          </CharString>
          <CharString index="142">
            rlineto
            84 hlineto
            10 46 rlineto
            -84 hlineto
            99 466 rlineto
            return
          </CharString>
          <CharString index="143">
            -166 -21 208 -21 return
          </CharString>
          <CharString index="144">
            hintmask 11111010
            72 61 -41 -69 -98 -109 -56 -80 return
          </CharString>
          <CharString index="145">
            82 hhcurveto
            21 34 -4 -17 18 hvcurveto
            -21 -30 -15 return
          </CharString>
          <CharString index="146">
            62 70 55 72 19 callgsubr
            -55 return
          </CharString>
          <CharString index="147">
            -10 45 -15 -21 485 45 return
          </CharString>
          <CharString index="148">
            -5 47 -21 -21 668 47 return
          </CharString>
          <CharString index="149">
            89 vvcurveto
            52 -35 41 return
          </CharString>
          <CharString index="150">
            -4 34 165 30 return
          </CharString>
          <CharString index="151">
            hvcurveto
            hintmask 11100000
            13 -18 -34 14 -44 hhcurveto
            -103 return
          </CharString>
          <CharString index="152">
            -101 0 39 442 39 210 -20 hstem
            return
          </CharString>
          <CharString index="153">
            rlineto
            46 hlineto
            116 545 rlineto
            -47 hlineto
            return
          </CharString>
          <CharString index="154">
            87 123 151 79 -49 49 -76 -96 return
          </CharString>
          <CharString index="155">
            92 -77 callgsubr
            return
          </CharString>
        <CharString name=".notdef">
          -564 endchar
        </CharString>
        <CharString name="A">
          -63 callsubr
          hstem
          -100 callgsubr
          endchar
        </CharString>
        <CharString name="A.sc">
          -3 21 -21 175 41 329 -20 hstem
          -37 hmoveto
          50 hlineto
          113 175 rlineto
          263 hlineto
          39 -175 rlineto
          49 hlineto
          -121 545 rlineto
          -40 hlineto
          -169 -329 rmoveto
          176 270 61 -270 rlineto
          endchar
        </CharString>
        <CharString name="AE">
          358 0 46 188 46 59 47 278 46 hstem
          -82 hmoveto
          -62 callgsubr
        </CharString>
        <CharString name="AEacute">
          358 0 46 188 46 59 47 278 43 callgsubr
          660 917 -89 callsubr
          -640 -816 rmoveto
          -62 callgsubr
        </CharString>
        <CharString name="Aacute">
          -63 callsubr
          227 -20 hstem
          -100 callgsubr
          63 641 -46 callsubr
        </CharString>
        <CharString name="Abreve">
          -63 callsubr
          135 -8 callgsubr
          hintmask 11110000
          -100 callgsubr
          -31 577 -52 callsubr
          hintmask 11101000
          -98 callsubr
          hintmask 11110000
          -61 callgsubr
        </CharString>
        <CharString name="Acircumflex">
          -63 callsubr
          227 -20 hstem
          -100 callgsubr
          -112 543 -66 callgsubr
        </CharString>
        <CharString name="Adblgrave">
          -63 callsubr
          228 -20 hstem
          -100 callgsubr
          28 541 6 callgsubr
        </CharString>
        <CharString name="Adieresis">
          -63 callsubr
          138 88 hstem
          -100 callgsubr
          -80 552 -68 callsubr
        </CharString>
        <CharString name="Agrave">
          -63 callsubr
          228 -20 hstem
          -100 callgsubr
          -44 541 -77 callsubr
        </CharString>
        <CharString name="Ainvertedbreve">
          -63 callsubr
          135 -9 callgsubr
          hintmask 11110000
          -100 callgsubr
          -113 549 rmoveto
          32 hlineto
          hintmask 11101000
          -78 callgsubr
          hintmask 11110000
          -95 callsubr
          endchar
        </CharString>
        <CharString name="Amacron">
          -63 callsubr
          168 37 hstem
          -100 callgsubr
          110 582 -70 callsubr
          endchar
        </CharString>
        <CharString name="Aogonek">
          85 -148 -21 190 -53 callgsubr
          hstem
          437 35 vstem
          488 14 callsubr
          -133 710 rlineto
          -44 hlineto
          -437 -710 rlineto
          55 -18 callgsubr
          234 rlineto
          319 hlineto
          44 -234 rlineto
          13 hlineto
          -67 -43 -26 -32 -38 -53 callsubr
          -313 445 rmoveto
          228 372 66 -372 rlineto
          endchar
        </CharString>
        <CharString name="Aring">
          -63 callsubr
          102 23 79 23 hstem
          378 27 79 26 vstem
          -100 callgsubr
          -91 567 -88 callgsubr
          endchar
        </CharString>
        <CharString name="Aringacute">
          86 -61 callsubr
          99 23 106 -20 hstem
          358 27 79 26 vstem
          358 738 rmoveto
          -21 9 -16 16 -8 vhcurveto
          -426 -693 rlineto
          55 -18 callgsubr
          234 rlineto
          319 hlineto
          44 -234 rlineto
          54 hlineto
          -130 692 rlineto
          29 11 20 27 32 vvcurveto
          29 -20 21 -32 -43 -37 -32 -42 vhcurveto
          -183 -462 rmoveto
          228 372 66 -372 rlineto
          -37 513 rmoveto
          19 13 -12 -20 -27 -27 -20 -21 -19 -12 14 18 28 23 19 24 hvcurveto
          109 129 rmoveto
          -57 hlineto
          -76 -83 31 -16 rlineto
          endchar
        </CharString>
        <CharString name="Atilde">
          -63 callsubr
          144 -47 callsubr
          hintmask 11110100
          -100 callgsubr
          27 558 -87 callsubr
          hintmask 11111000
          -97 callgsubr
        </CharString>
        <CharString name="B">
          72 0 46 291 43 284 46 hstemhm
          518 51 -7 52 hintmask 11110000
          27 hmoveto
          317 hlineto
          113 112 97 122 67 -33 58 -59 20 hvcurveto
          hintmask 11101000
          80 34 57 81 86 vvcurveto
          74 -41 71 -79 vhcurveto
          -316 hlineto
          -90 -664 rmoveto
          62 291 rlineto
          272 hlineto
          hintmask 11110000
          60 36 -55 -63 -87 -82 -86 -83 hvcurveto
          -194 334 rmoveto
          60 284 rlineto
          251 hlineto
          hintmask 11101000
          58 34 -50 -62 -87 -76 -85 -82 hvcurveto
          endchar
        </CharString>
        <CharString name="B.sc">
          -12 0 41 214 40 208 42 hstemhm
          427 46 -16 48 hintmask 11110000
          22 hmoveto
          264 hlineto
          95 92 72 95 52 -28 45 -50 16 hvcurveto
          hintmask 11101000
          65 25 45 61 66 vvcurveto
          57 -34 56 -67 vhcurveto
          -266 hlineto
          -60 -504 rmoveto
          45 214 rlineto
          223 hlineto
          hintmask 11110000
          50 31 -41 -47 -64 -66 -62 -67 hvcurveto
          -162 254 rmoveto
          43 208 rlineto
          206 hlineto
          hintmask 11101000
          47 29 -37 -47 -64 -59 -60 -65 hvcurveto
          endchar
        </CharString>
        <CharString name="C">
          95 -6 -34 callsubr
          hstem
          49 51 vstem
          295 -6 -94 callsubr
          endchar
        </CharString>
        <CharString name="C.sc">
          7 -5 43 467 43 hstem
          36 48 vstem
          246 -5 rmoveto
          86 109 45 82 55 hvcurveto
          -35 20 rlineto
          -73 -54 -83 -31 -66 hhcurveto
          -107 -67 90 104 126 111 147 160 64 66 -25 -74 22 hvcurveto
          43 23 rlineto
          69 -20 -63 50 -100 hhcurveto
          -192 -139 -172 -147 -119 77 -115 133 hvcurveto
          endchar
        </CharString>
        <CharString name="CR">
          -564 endchar
        </CharString>
        <CharString name="Cacute">
          -33 callgsubr
          574 917 -89 callsubr
          -177 -822 -94 callsubr
          endchar
        </CharString>
        <CharString name="Ccaron">
          -33 callgsubr
          459 819 -91 callgsubr
          -89 -906 -94 callsubr
          endchar
        </CharString>
        <CharString name="Ccedilla">
          91 11 callsubr
          42 46 626 47 hstem
          46 51 236 30 vstem
          170 -152 rmoveto
          -79 callsubr
          37 48 102 4 123 57 66 103 rlinecurve
          -40 21 rlineto
          -97 -66 -103 -42 -81 hhcurveto
          -127 -81 117 138 170 142 201 197 78 79 -34 -98 25 hvcurveto
          47 24 rlineto
          90 -22 -73 65 -120 hhcurveto
          -233 -171 -227 -194 -147 81 -139 145 -12 hvcurveto
          -59 -80 -80 callsubr
          endchar
        </CharString>
        <CharString name="Ccircumflex">
          -33 callgsubr
          403 819 -99 callsubr
          -82 -842 -94 callsubr
          endchar
        </CharString>
        <CharString name="Cdotaccent">
          -33 callgsubr
          295 -6 -94 callsubr
          213 833 -92 callsubr
          endchar
        </CharString>
        <CharString name="D">
          124 0 25 callgsubr
          27 hmoveto
          -93 callgsubr
        </CharString>
        <CharString name="D.sc">
          32 0 42 460 43 hstem
          498 48 vstem
          22 hmoveto
          190 hlineto
          192 142 140 192 120 -69 93 -150 hvcurveto
          -189 hlineto
          -60 -503 rmoveto
          97 460 rlineto
          143 hlineto
          119 61 -73 -104 -150 -104 -133 -174 hvcurveto
          endchar
        </CharString>
        <CharString name="Dcaron">
          124 -7 callsubr
          607 53 vstem
          415 819 -91 callgsubr
          -313 -900 rmoveto
          -93 callgsubr
        </CharString>
        <CharString name="Dcroat">
          -75 callsubr
        </CharString>
        <CharString name="Ddotbelow">
          124 1 callgsubr
          151 25 callgsubr
          253 -50 callsubr
          -180 151 rmoveto
          -93 callgsubr
        </CharString>
        <CharString name="Delta">
          82 18 callsubr
          315 710 rmoveto
          -43 hlineto
          -279 -669 rlineto
          -41 600 41 vlineto
          -544 31 callgsubr
        </CharString>
        <CharString name="E">
          -67 callgsubr
          hstem
          27 hmoveto
          450 -102 callsubr
          endchar
        </CharString>
        <CharString name="E.sc">
          -55 0 42 216 40 204 43 hstem
          22 hmoveto
          377 hlineto
          9 42 rlineto
          -330 hlineto
          46 216 rlineto
          282 hlineto
          9 40 rlineto
          -283 hlineto
          43 204 rlineto
          324 hlineto
          9 43 rlineto
          -370 hlineto
          endchar
        </CharString>
        <CharString name="Eacute">
          -10 callsubr
          515 917 -89 callsubr
          -386 -816 rmoveto
          450 -102 callsubr
          endchar
        </CharString>
        <CharString name="Ebreve">
          -67 callgsubr
          115 -8 callgsubr
          hintmask 11110000
          27 hmoveto
          450 -102 callsubr
          245 143 -52 callsubr
          hintmask 11101000
          -98 callsubr
          hintmask 11110000
          -61 callgsubr
        </CharString>
        <CharString name="Ecaron">
          -10 callsubr
          398 819 -91 callgsubr
          -296 -900 rmoveto
          450 -102 callsubr
          endchar
        </CharString>
        <CharString name="Ecircumflex">
          -10 callsubr
          349 819 -99 callsubr
          -296 -836 rmoveto
          450 -102 callsubr
          endchar
        </CharString>
        <CharString name="Edblgrave">
          -67 callgsubr
          208 -20 hstem
          478 817 -88 callsubr
          -282 -918 rmoveto
          450 -102 callsubr
          endchar
        </CharString>
        <CharString name="Edieresis">
          -67 callgsubr
          118 88 hstem
          379 828 -94 callgsubr
          -440 -828 rmoveto
          450 -102 callsubr
          endchar
        </CharString>
        <CharString name="Edotaccent">
          -10 callsubr
          27 hmoveto
          450 -102 callsubr
          272 117 -92 callsubr
          endchar
        </CharString>
        <CharString name="Edotbelow">
          20 1 callgsubr
          151 46 295 44 279 46 hstem
          27 hmoveto
          450 -102 callsubr
          63 -861 -92 callsubr
          endchar
        </CharString>
        <CharString name="Egrave">
          -67 callgsubr
          208 -20 hstem
          27 hmoveto
          450 -102 callsubr
          242 107 -77 callsubr
        </CharString>
        <CharString name="Einvertedbreve">
          -67 callgsubr
          115 -9 callgsubr
          hintmask 11110000
          342 825 rmoveto
          32 hlineto
          hintmask 11101000
          -78 callgsubr
          hintmask 11110000
          -95 callsubr
          -315 -825 rmoveto
          450 -102 callsubr
          endchar
        </CharString>
        <CharString name="Emacron">
          -67 callgsubr
          148 37 hstem
          27 hmoveto
          450 -102 callsubr
          388 148 -70 callsubr
          endchar
        </CharString>
        <CharString name="Eng">
          175 -177 46 152 25 callsubr
          hintmask 11100000
          405 -177 rmoveto
          69 84 61 87 19 hvcurveto
          156 738 -77 callgsubr
          -133 -622 rlineto
          hintmask 11010000
          -333 623 rlineto
          -39 hlineto
          -151 -710 rlineto
          51 hlineto
          131 613 325 -609 -8 -34 rlineto
          -59 -14 -55 -42 -47 hhcurveto
          -25 -26 5 19 -16 hvcurveto
          -34 -33 rlineto
          -27 22 34 -10 40 hhcurveto
          endchar
        </CharString>
        <CharString name="Eogonek">
          20 -148 -21 169 46 295 44 279 46 hstem
          147 35 vstem
          27 hmoveto
          213 hlineto
          -67 -43 -26 -48 callsubr
          196 -102 callsubr
          endchar
        </CharString>
        <CharString name="Eth">
          -75 callsubr
        </CharString>
        <CharString name="Etilde">
          -67 callgsubr
          124 -47 callsubr
          hintmask 11110100
          27 hmoveto
          450 -102 callsubr
          298 124 -87 callsubr
          hintmask 11111000
          -97 callgsubr
        </CharString>
        <CharString name="Euro">
          204 -6 47 236 34 65 34 257 47 hstem
          138 52 vstem
          102 410 rmoveto
          -23 -34 rlineto
          69 hlineto
          -5 -22 -4 -22 -1 -21 rrcurveto
          -88 hlineto
          -22 -34 rlineto
          110 hlineto
          -147 6 89 -136 151 hhcurveto
          104 132 58 107 67 hvcurveto
          -38 21 rlineto
          -97 -68 -103 -42 -80 hhcurveto
          -122 -79 106 130 -7 hvcurveto
          282 hlineto
          22 34 rlineto
          -304 hlineto
          1 21 4 22 5 22 rrcurveto
          329 hlineto
          22 34 rlineto
          -342 hlineto
          134 46 120 123 154 hhcurveto
          77 79 -34 -98 26 hvcurveto
          47 24 rlineto
          90 -22 -74 65 -120 hhcurveto
          -187 -147 -146 -158 -51 hvcurveto
          endchar
        </CharString>
        <CharString name="F">
          14 21 -21 338 44 282 46 hstem
          27 hmoveto
          51 hlineto
          72 338 -8 callsubr
          endchar
        </CharString>
        <CharString name="F.sc">
          -64 21 -21 255 41 206 43 hstem
          49 callgsubr
          54 255 rlineto
          273 -23 callsubr
          -273 hlineto
          43 206 rlineto
          322 hlineto
          9 43 rlineto
          -368 hlineto
          endchar
        </CharString>
        <CharString name="G">
          -42 callsubr
          hstemhm
          49 51 hintmask 01111000
          523 hmoveto
          -73 callsubr
          hintmask 10111000
          -97 callsubr
          endchar
        </CharString>
        <CharString name="G.alt">
          138 -5 47 253 46 327 47 hstem
          49 51 vstem
          299 -5 rmoveto
          176 163 167 147 37 hvcurveto
          8 32 rlineto
          -264 -31 callgsubr
          209 hlineto
          -130 -46 -126 -123 -139 hhcurveto
          -133 -74 119 132 178 156 197 183 100 64 -65 -76 27 hvcurveto
          46 33 rlineto
          92 -34 -78 63 -112 hhcurveto
          -210 -193 -211 -215 -155 92 -139 158 hvcurveto
          endchar
        </CharString>
        <CharString name="G.sc">
          28 -4 43 -18 -21 229 37 240 42 hstemhm
          36 47 hintmask 01111000
          432 hmoveto
          41 hlineto
          56 266 rlineto
          -167 hlineto
          -7 -37 rlineto
          126 hlineto
          -21 -97 rlineto
          hintmask 10111000
          -63 -69 -67 -30 -66 hhcurveto
          -106 -69 87 105 131 118 144 148 77 58 -31 -69 22 hvcurveto
          43 24 rlineto
          69 -22 -56 49 -111 hhcurveto
          -172 -152 -159 -161 -119 79 -113 131 70 68 28 58 65 hvcurveto
          endchar
        </CharString>
        <CharString name="Gacute">
          -42 callsubr
          202 -20 hstemhm
          49 51 hintmask 01111100
          557 917 -89 callsubr
          68 -816 rmoveto
          -73 callsubr
          hintmask 10111100
          -97 callsubr
          endchar
        </CharString>
        <CharString name="Gbreve">
          -42 callsubr
          110 -8 callgsubr
          49 51 hintmask 01111010
          523 hmoveto
          -73 callsubr
          hintmask 10111010
          -97 callsubr
          hintmask 01111010
          -78 743 -52 callsubr
          hintmask 10110110
          -98 callsubr
          hintmask 10111010
          -61 callgsubr
        </CharString>
        <CharString name="Gcircumflex">
          -42 callsubr
          202 -20 hstemhm
          49 51 hintmask 01111100
          386 819 -99 callsubr
          163 -836 rmoveto
          -73 callsubr
          hintmask 10111100
          -97 callsubr
          endchar
        </CharString>
        <CharString name="Gcommaaccent">
          123 -166 -21 182 47 -21 -21 304 41 323 47 hstemhm
          49 51 hintmask 10111100
          259 -89 callgsubr
          291 187 rmoveto
          -73 callsubr
          hintmask 11011100
          -97 callsubr
          endchar
        </CharString>
        <CharString name="Gdotaccent">
          -42 callsubr
          202 -20 hstemhm
          49 51 hintmask 01111100
          523 hmoveto
          -73 callsubr
          hintmask 10111100
          -97 callsubr
          hintmask 01111100
          -51 717 -92 callsubr
          endchar
        </CharString>
        <CharString name="H">
          142 21 -21 340 46 324 -20 hstem
          27 hmoveto
          51 hlineto
          73 340 rlineto
          421 hlineto
          -72 -340 rlineto
          51 hlineto
          151 710 -75 callgsubr
          -69 -324 rlineto
          -422 hlineto
          69 324 -75 callgsubr
          endchar
        </CharString>
        <CharString name="H.sc">
          48 21 -21 257 43 245 -20 hstem
          49 callgsubr
          54 257 rlineto
          347 hlineto
          -54 -257 46 callsubr
          -51 -245 rlineto
          -347 hlineto
          52 245 rlineto
          -47 hlineto
          endchar
        </CharString>
        <CharString name="Hbar">
          151 21 -21 340 46 165 32 -32 159 hstemhm
          hintmask 11100000
          102 551 rmoveto
          47 hlineto
          -117 -551 rlineto
          51 hlineto
          72 340 rlineto
          422 hlineto
          -72 -340 rlineto
          51 hlineto
          117 551 rlineto
          47 hlineto
          7 32 rlineto
          -47 hlineto
          hintmask 11010000
          27 127 -75 callgsubr
          hintmask 11100000
          -27 -127 rlineto
          -422 hlineto
          hintmask 11010000
          27 127 -75 callgsubr
          hintmask 11100000
          -27 -127 rlineto
          -47 hlineto
          56 -197 rmoveto
          35 165 rlineto
          422 hlineto
          -35 -165 rlineto
          endchar
        </CharString>
        <CharString name="Hcircumflex">
          142 21 -21 340 46 324 -20 227 -20 hstem
          381 819 -99 callsubr
          -328 -836 rmoveto
          51 hlineto
          73 340 rlineto
          421 hlineto
          -72 -340 rlineto
          51 hlineto
          151 710 -75 callgsubr
          -69 -324 rlineto
          -422 hlineto
          69 324 -75 callgsubr
          endchar
        </CharString>
        <CharString name="Hdotbelow">
          142 36 callgsubr
          340 46 324 -20 hstem
          27 hmoveto
          51 hlineto
          73 340 rlineto
          421 hlineto
          -72 -340 rlineto
          51 hlineto
          151 710 -75 callgsubr
          -69 -324 rlineto
          -422 hlineto
          69 324 -75 callgsubr
          103 -861 -92 callsubr
          endchar
        </CharString>
        <CharString name="I">
          -1 callgsubr
          709 -20 hstem
          27 hmoveto
          51 -81 callgsubr
          endchar
        </CharString>
        <CharString name="I.sc">
          -345 21 -21 544 -20 hstem
          49 callgsubr
          115 544 rlineto
          -46 hlineto
          endchar
        </CharString>
        <CharString name="IJ">
          134 -11 47 -15 -21 709 -20 hstemhm
          hintmask 01100000
          27 hmoveto
          51 -81 callgsubr
          hintmask 10100000
          157 -720 -82 callsubr
          endchar
        </CharString>
        <CharString name="Iacute">
          -1 callgsubr
          917 -20 hstem
          27 hmoveto
          51 -81 callgsubr
          142 208 -46 callsubr
        </CharString>
        <CharString name="Ibreve">
          -1 callgsubr
          825 -8 callgsubr
          hintmask 11000000
          27 hmoveto
          51 -81 callgsubr
          45 144 -52 callsubr
          hintmask 10100000
          -98 callsubr
          hintmask 11000000
          -61 callgsubr
        </CharString>
        <CharString name="Icircumflex">
          -1 callgsubr
          917 -20 hstem
          27 hmoveto
          51 -81 callgsubr
          -33 110 -66 callgsubr
        </CharString>
        <CharString name="Idblgrave">
          -1 callgsubr
          918 -20 hstem
          27 hmoveto
          51 -81 callgsubr
          108 108 6 callgsubr
        </CharString>
        <CharString name="Idieresis">
          -1 callgsubr
          828 88 hstem
          27 hmoveto
          51 -81 callgsubr
          5 119 -68 callsubr
        </CharString>
        <CharString name="Idotaccent">
          -1 callgsubr
          917 -20 hstem
          27 hmoveto
          51 -81 callgsubr
          73 118 -92 callsubr
          endchar
        </CharString>
        <CharString name="Idotbelow">
          -331 36 callgsubr
          709 -20 hstem
          27 hmoveto
          51 -81 callgsubr
          -135 -860 -92 callsubr
          endchar
        </CharString>
        <CharString name="Igrave">
          -1 callgsubr
          918 -20 hstem
          27 hmoveto
          51 -81 callgsubr
          43 108 -77 callsubr
        </CharString>
        <CharString name="Iinvertedbreve">
          -1 callgsubr
          825 -9 callgsubr
          hintmask 11000000
          27 hmoveto
          51 -81 callgsubr
          -32 116 rmoveto
          32 hlineto
          hintmask 10100000
          -78 callgsubr
          hintmask 11000000
          -95 callsubr
          endchar
        </CharString>
        <CharString name="Imacron">
          -1 callgsubr
          858 37 hstem
          27 hmoveto
          51 -81 callgsubr
          193 149 -70 callsubr
          endchar
        </CharString>
        <CharString name="Iogonek">
          -330 -148 -21 190 -21 709 -20 hstem
          -55 35 vstem
          28 hmoveto
          10 hlineto
          -66 -43 -27 -48 callsubr
          151 709 -75 callgsubr
          endchar
        </CharString>
        <CharString name="Itilde">
          -1 callgsubr
          834 -47 callsubr
          hintmask 11010000
          27 hmoveto
          51 -81 callgsubr
          107 125 -87 callsubr
          hintmask 11100000
          -97 callgsubr
        </CharString>
        <CharString name="J">
          -100 -11 47 673 -20 hstem
          102 -11 -82 callsubr
          endchar
        </CharString>
        <CharString name="J.sc">
          -155 -8 42 510 -20 hstem
          84 -8 rmoveto
          160 44 110 166 35 hvcurveto
          59 276 rlineto
          -46 hlineto
          -59 -276 rlineto
          -149 -32 -32 -85 -120 hhcurveto
          -45 -36 13 16 -21 hvcurveto
          -22 -38 rlineto
          -22 28 38 -11 49 hhcurveto
          endchar
        </CharString>
        <CharString name="Jcircumflex">
          -100 -11 47 881 -20 hstem
          383 819 -99 callsubr
          -255 -847 -82 callsubr
          endchar
        </CharString>
        <CharString name="K">
          42 21 25 callsubr
          hintmask 10100000
          27 hmoveto
          -30 callsubr
          hintmask 11000000
          92 430 -75 callgsubr
          endchar
        </CharString>
        <CharString name="K.sc">
          -34 21 -21 544 0 callsubr
          hintmask 10100000
          49 callgsubr
          36 168 134 109 164 -277 rlineto
          52 hlineto
          -180 306 284 239 rlineto
          -54 hlineto
          -389 -324 rlineto
          hintmask 11000000
          68 323 rlineto
          -46 hlineto
          endchar
        </CharString>
        <CharString name="Kcommaaccent">
          42 -166 -21 208 25 callsubr
          hintmask 11010000
          218 -89 callgsubr
          -164 187 rmoveto
          -30 callsubr
          hintmask 11100000
          92 430 -75 callgsubr
          endchar
        </CharString>
        <CharString name="L">
          -9 18 callsubr
          27 hmoveto
          -72 callgsubr
          endchar
        </CharString>
        <CharString name="L.sc">
          -93 0 42 503 -20 hstem
          22 hmoveto
          371 hlineto
          8 42 rlineto
          -323 hlineto
          107 503 rlineto
          -47 hlineto
          endchar
        </CharString>
        <CharString name="Lacute">
          -9 44 callgsubr
          227 -20 hstem
          328 917 -89 callsubr
          -199 -816 rmoveto
          -72 callgsubr
          endchar
        </CharString>
        <CharString name="Lcaron">
          -9 0 46 684 -20 hstem
          313 -37 callgsubr
          -255 -645 rmoveto
          -72 callgsubr
          endchar
        </CharString>
        <CharString name="Lcommaaccent">
          -9 -166 -21 187 46 664 -20 hstem
          218 -89 callgsubr
          -164 187 rmoveto
          -72 callgsubr
          endchar
        </CharString>
        <CharString name="Ldot">
          -9 18 callsubr
          27 hmoveto
          -72 callgsubr
          197 -357 -17 callgsubr
        </CharString>
        <CharString name="Lslash">
          -2 18 callsubr
          26 226 rmoveto
          68 53 -59 -279 rlineto
          452 hlineto
          9 46 rlineto
          -401 hlineto
          60 281 211 165 -12 30 -189 -148 72 336 -75 callgsubr
          -81 -383 -91 -70 rlineto
          endchar
        </CharString>
        <CharString name="M">
          278 -2 callgsubr
          27 hmoveto
          51 hlineto
          131 614 161 -479 rlineto
          32 hlineto
          365 479 -131 -614 rlineto
          51 hlineto
          151 710 -77 callgsubr
          -388 -508 -171 508 -75 callgsubr
          endchar
        </CharString>
        <CharString name="M.sc">
          18 callgsubr
          49 callgsubr
          97 459 140 -357 rlineto
          29 hlineto
          290 357 -97 -459 46 callsubr
          -309 -381 -149 381 rlineto
          -47 hlineto
          endchar
        </CharString>
        <CharString name="N">
          177 21 25 callsubr
          hintmask 11000000
          27 hmoveto
          -85 callgsubr
          rlineto
          hintmask 10100000
          30 callgsubr
        </CharString>
        <CharString name="N.sc">
          77 21 -21 544 0 callsubr
          hintmask 11000000
          49 callgsubr
          97 457 283 -457 rlineto
          42 hlineto
          115 544 rlineto
          -46 hlineto
          -99 -464 rlineto
          hintmask 10100000
          -287 465 rlineto
          -36 hlineto
          endchar
        </CharString>
        <CharString name="NULL">
          -564 endchar
        </CharString>
        <CharString name="Nacute">
          177 -24 callsubr
          581 917 -89 callsubr
          -452 -816 -13 callsubr
          30 callgsubr
        </CharString>
        <CharString name="Ncaron">
          177 -24 callsubr
          460 819 -91 callgsubr
          -358 -900 -13 callsubr
          30 callgsubr
        </CharString>
        <CharString name="Ncommaaccent">
          177 -166 -21 208 25 callsubr
          hintmask 11100000
          276 -89 callgsubr
          -222 187 -13 callsubr
          rlineto
          hintmask 11010000
          30 callgsubr
        </CharString>
        <CharString name="Ndotaccent">
          177 -24 callsubr
          510 827 -92 callsubr
          -437 -827 -13 callsubr
          30 callgsubr
        </CharString>
        <CharString name="Ntilde">
          177 -56 callgsubr
          144 -47 callsubr
          hintmask 11101000
          27 hmoveto
          -85 callgsubr
          -36 callsubr
          369 124 -87 callsubr
          hintmask 11110000
          -97 callgsubr
        </CharString>
        <CharString name="O">
          -5 -34 callsubr
          -17 callsubr
          -82 callgsubr
          endchar
        </CharString>
        <CharString name="O.sc">
          59 -4 43 466 43 hstem
          35 48 445 47 vstem
          247 -4 rmoveto
          170 158 158 164 23 callgsubr
          -120 77 -109 135 hvcurveto
          10 43 rmoveto
          -110 -64 90 101 131 124 144 148 108 65 -89 -102 -130 -122 -145 -149 hvcurveto
          endchar
        </CharString>
        <CharString name="OE">
          553 0 46 -30 -21 344 47 282 42 5 -20 hstemhm
          48 52 hintmask 01110100
          298 -5 rmoveto
          121 119 90 115 68 hvcurveto
          hintmask 10110100
          -43 -200 rlineto
          447 hlineto
          9 46 rlineto
          -395 hlineto
          62 22 callgsubr
          336 hlineto
          10 47 rlineto
          -335 hlineto
          58 278 rlineto
          387 hlineto
          11 46 rlineto
          -439 hlineto
          -43 -201 rlineto
          hintmask 01101100
          113 -17 -78 93 -125 hhcurveto
          -206 -197 -210 -217 -153 90 -140 160 hvcurveto
          9 47 rmoveto
          -131 -76 116 135 hvcurveto
          hintmask 10110100
          179 156 196 184 129 77 -117 -134 -178 -155 -197 -184 vhcurveto
          endchar
        </CharString>
        <CharString name="Oacute">
          24 callgsubr
          571 917 -89 callsubr
          -172 -821 -106 callgsubr
          endchar
        </CharString>
        <CharString name="Obreve">
          -5 -34 callsubr
          110 28 -28 92 19 callsubr
          hintmask 11101100
          -82 callgsubr
          166 811 -52 callsubr
          hintmask 11011100
          -98 callsubr
          hintmask 11101100
          -61 callgsubr
        </CharString>
        <CharString name="Ocircumflex">
          24 callgsubr
          397 819 -99 callsubr
          -74 -841 -106 callgsubr
          endchar
        </CharString>
        <CharString name="Odblgrave">
          -5 -34 callsubr
          -47 250 19 callsubr
          hintmask 10111000
          546 817 -88 callsubr
          -80 -923 -65 callsubr
        </CharString>
        <CharString name="Odieresis">
          -5 -34 callsubr
          113 88 -17 callsubr
          431 828 -94 callgsubr
          -222 -833 -106 callgsubr
          endchar
        </CharString>
        <CharString name="Odotbelow">
          1 callgsubr
          146 -34 callsubr
          -17 callsubr
          292 -50 callsubr
          51 146 -106 callgsubr
          endchar
        </CharString>
        <CharString name="Ograve">
          -5 9 callsubr
          -44 callgsubr
          vstem
          -82 callgsubr
          176 775 -77 callsubr
        </CharString>
        <CharString name="Ohungarumlaut">
          -5 -34 callsubr
          -47 250 19 callsubr
          hintmask 10111000
          502 918 -64 callsubr
          -217 -822 -65 callsubr
        </CharString>
        <CharString name="Oinvertedbreve">
          -5 -34 callsubr
          110 92 -28 28 19 callsubr
          hintmask 11101100
          396 825 rmoveto
          32 hlineto
          hintmask 11011100
          -78 callgsubr
          hintmask 11101100
          -95 callsubr
          -99 -830 -106 callgsubr
          endchar
        </CharString>
        <CharString name="Omacron">
          -5 -34 callsubr
          143 37 -17 callsubr
          617 858 -70 callsubr
          -48 -863 -106 callgsubr
          endchar
        </CharString>
        <CharString name="Omega">
          -76 callgsubr
        </CharString>
        <CharString name="Oogonek">
          159 -150 -21 167 46 626 47 hstem
          48 52 83 35 428 52 vstem
          234 -171 -28 callgsubr
          25 72 44 vhcurveto
          199 10 186 203 212 vvcurveto
          150 -88 144 -159 -206 -197 -210 -218 -144 80 -134 145 -13 vhcurveto
          -65 -42 -25 -32 -37 -53 callsubr
          73 213 rmoveto
          -131 -76 116 135 179 156 196 184 129 77 -117 -135 -177 -154 -197 -185 hvcurveto
          endchar
        </CharString>
        <CharString name="Oslash">
          41 callsubr
          -5 -20 19 callsubr
          hintmask 10011100
          644 710 rmoveto
          -43 -51 rlineto
          hintmask 01101100
          -21 callsubr
          hintmask 10011100
          -20 callsubr
          hintmask 10101100
          -57 callsubr
          endchar
        </CharString>
        <CharString name="Oslashacute">
          41 callsubr
          -5 -20 227 -20 19 callsubr
          hintmask 10011110
          644 710 rmoveto
          -43 -51 rlineto
          hintmask 01101110
          -21 callsubr
          hintmask 10011110
          -20 callsubr
          hintmask 10101110
          -57 callsubr
          260 875 -46 callsubr
        </CharString>
        <CharString name="Otilde">
          -5 -34 callsubr
          119 35 5 35 8 -20 19 callsubr
          hintmask 11101110
          -82 callgsubr
          227 792 -87 callsubr
          hintmask 11110110
          -97 callgsubr
        </CharString>
        <CharString name="P">
          34 -15 callgsubr
          hstem
          559 52 vstem
          27 hmoveto
          51 hlineto
          57 268 rlineto
          233 28 callgsubr
          -278 hlineto
          -33 -395 rmoveto
          74 349 rlineto
          224 hlineto
          69 47 -64 -77 -99 -82 -109 -101 hvcurveto
          endchar
        </CharString>
        <CharString name="P.sc">
          -44 21 -21 203 42 257 43 hstem
          455 48 vstem
          49 callgsubr
          43 203 rlineto
          191 13 callgsubr
          91 102 97 72 -49 71 -84 hvcurveto
          -232 hlineto
          -17 -300 rmoveto
          54 257 rlineto
          184 hlineto
          58 38 -47 -59 -73 -63 -78 -82 hvcurveto
          endchar
        </CharString>
        <CharString name="Q">
          159 41 callsubr
          19 callsubr
          hintmask 01111000
          540 hmoveto
          53 hlineto
          -55 92 rlineto
          95 82 65 122 125 vvcurveto
          150 -88 144 -159 -206 -197 -210 -218 vhcurveto
          hintmask 10111000
          -152 90 -140 159 72 71 26 43 62 vhcurveto
          hintmask 01111000
          hintmask 10111000
          -195 -22 rmoveto
          -131 -76 116 135 179 156 196 184 129 77 -117 -135 -102 -52 -109 -78 -74 hvcurveto
          -44 75 rlineto
          -52 hlineto
          60 -104 rlineto
          -37 -51 -59 -23 -63 hhcurveto
          endchar
        </CharString>
        <CharString name="Q.sc">
          58 -4 43 -18 -21 506 42 hstemhm
          35 48 444 48 hintmask 01111000
          448 hmoveto
          48 hlineto
          -47 72 rlineto
          75 62 51 91 93 vvcurveto
          23 callgsubr
          vhcurveto
          hintmask 10111000
          -120 77 -109 135 60 59 19 33 51 vhcurveto
          hintmask 01111000
          hintmask 10111000
          -160 -9 rmoveto
          -110 -64 90 101 131 123 145 149 108 64 -90 -102 -74 -40 -79 -61 -54 hvcurveto
          -36 57 rlineto
          -47 hlineto
          52 -81 rlineto
          -27 -41 -47 -17 -50 hhcurveto
          endchar
        </CharString>
        <CharString name="R">
          60 21 -6 callsubr
          78 hmoveto
          -101 callsubr
          endchar
        </CharString>
        <CharString name="R.sc">
          -20 0 245 -42 42 257 43 hstemhm
          459 48 hintmask 10110000
          49 callgsubr
          hintmask 01110000
          43 203 rlineto
          177 hlineto
          hintmask 10110000
          91 -203 rlineto
          54 hlineto
          -95 211 rlineto
          93 15 75 87 89 vvcurveto
          72 -49 71 -84 vhcurveto
          -236 hlineto
          -17 -300 rmoveto
          54 257 rlineto
          187 hlineto
          59 38 -49 -57 -73 -66 -78 -80 hvcurveto
          endchar
        </CharString>
        <CharString name="Racute">
          -7 callgsubr
          210 -20 hstem
          562 53 vstem
          502 920 -89 callsubr
          -322 -819 rmoveto
          -101 callsubr
          endchar
        </CharString>
        <CharString name="Rcaron">
          -7 callgsubr
          210 -20 hstem
          562 53 vstem
          402 822 -91 callgsubr
          -249 -903 rmoveto
          -101 callsubr
          endchar
        </CharString>
        <CharString name="Rcommaaccent">
          60 -166 -21 208 -6 callsubr
          215 -89 callgsubr
          -110 187 rmoveto
          -101 callsubr
          endchar
        </CharString>
        <CharString name="Rdblgrave">
          -7 callgsubr
          208 -20 hstem
          562 53 vstem
          478 817 -88 callsubr
          -231 -918 rmoveto
          -101 callsubr
          endchar
        </CharString>
        <CharString name="Rdotbelow">
          60 -130 -21 172 -6 callsubr
          78 hmoveto
          -101 callsubr
          -137 -466 -92 callsubr
          endchar
        </CharString>
        <CharString name="Rinvertedbreve">
          -7 callgsubr
          115 -9 callgsubr
          562 53 hintmask 11110100
          338 825 rmoveto
          32 hlineto
          hintmask 11101100
          -78 callgsubr
          hintmask 11110100
          -95 callsubr
          -260 -825 rmoveto
          -101 callsubr
          endchar
        </CharString>
        <CharString name="S">
          19 -6 6 callsubr
          240 -6 -102 callgsubr
          endchar
        </CharString>
        <CharString name="S.sc">
          -57 -5 41 471 41 hstem
          79 49 255 51 vstem
          199 -5 rmoveto
          135 100 59 113 77 -66 26 -100 22 hvcurveto
          -94 21 -46 18 51 vvcurveto
          71 52 54 124 67 45 -20 -39 29 vhcurveto
          30 37 rlineto
          42 -37 -52 21 -73 hhcurveto
          -133 -101 -66 -112 -70 55 -26 99 -21 hvcurveto
          98 -21 52 -22 -56 vvcurveto
          -78 -70 -40 -103 -86 -62 30 47 -36 vhcurveto
          -33 -38 rlineto
          -53 51 68 -27 87 hhcurveto
          endchar
        </CharString>
        <CharString name="Sacute">
          -26 callsubr
          503 936 -89 callsubr
          -161 -841 -102 callgsubr
          endchar
        </CharString>
        <CharString name="Scaron">
          -26 callsubr
          392 838 -91 callgsubr
          -77 -925 -102 callgsubr
          endchar
        </CharString>
        <CharString name="Schwa">
          143 -8 48 289 46 292 48 hstem
          30 51 542 57 vstem
          281 -8 rmoveto
          202 197 197 233 164 -98 129 -150 -114 -128 -72 -99 -62 hvcurveto
          44 -23 rlineto
          87 49 104 59 94 hhcurveto
          122 82 -100 -140 -18 -1 -16 -2 -18 hvcurveto
          -574 hlineto
          -8 -25 -8 -36 -43 vvcurveto
          -160 100 -119 151 vhcurveto
          9 48 rmoveto
          -140 -69 108 117 21 3 22 4 21 hvcurveto
          522 hlineto
          -164 -37 -138 -125 -145 hhcurveto
          endchar
        </CharString>
        <CharString name="Scircumflex">
          -26 callsubr
          335 838 -99 callsubr
          -69 -861 -102 callgsubr
          endchar
        </CharString>
        <CharString name="Sdotbelow">
          19 1 callgsubr
          145 6 callsubr
          240 -6 -102 callgsubr
          -10 -145 -92 callsubr
          endchar
        </CharString>
        <CharString name="T">
          15 21 -21 664 46 hstem
          198 hmoveto
          50 -71 callsubr
        </CharString>
        <CharString name="T.sc">
          -60 21 -21 502 43 hstem
          164 hmoveto
          47 hlineto
          107 502 rlineto
          202 hlineto
          10 43 rlineto
          -455 hlineto
          -9 -43 rlineto
          205 hlineto
          endchar
        </CharString>
        <CharString name="Tbar">
          52 21 -21 380 32 252 46 hstem
          82 380 rmoveto
          215 hlineto
          -80 -380 rlineto
          51 hlineto
          80 380 rlineto
          216 hlineto
          7 32 rlineto
          -216 hlineto
          54 252 rlineto
          246 hlineto
          10 46 rlineto
          -544 hlineto
          -9 -46 rlineto
          246 hlineto
          -54 -252 rlineto
          -216 hlineto
          endchar
        </CharString>
        <CharString name="Tcaron">
          15 21 -21 664 43 callgsubr
          372 819 -91 callgsubr
          -99 -900 rmoveto
          50 -71 callsubr
        </CharString>
        <CharString name="Tdotbelow">
          15 36 callgsubr
          664 46 hstem
          214 -50 callsubr
          30 151 rmoveto
          50 -71 callsubr
        </CharString>
        <CharString name="Thorn">
          13 21 -21 124 47 348 47 144 -20 hstem
          511 51 vstem
          27 hmoveto
          51 hlineto
          26 124 rlineto
          215 28 callgsubr
          -209 hlineto
          31 144 -75 callgsubr
          -63 -539 rmoveto
          74 348 rlineto
          206 hlineto
          70 46 -65 -76 -97 -81 -110 -103 hvcurveto
          endchar
        </CharString>
        <CharString name="U">
          -5 47 668 -83 callsubr
          endchar
        </CharString>
        <CharString name="U.sc">
          59 -4 43 506 -20 hstem
          61 48 vstem
          248 -4 rmoveto
          172 89 128 147 31 hvcurveto
          58 274 rlineto
          -46 hlineto
          -58 -274 rlineto
          -115 -24 -67 -117 -147 hhcurveto
          -110 -37 67 84 26 3 28 6 27 hvcurveto
          58 274 rlineto
          -47 hlineto
          -58 -274 rlineto
          -6 -30 -4 -30 -29 vvcurveto
          -103 48 -83 139 vhcurveto
          endchar
        </CharString>
        <CharString name="Uacute">
          -15 callsubr
          227 -20 hstem
          78 51 vstem
          555 917 -89 callsubr
          -155 -821 -107 callsubr
          endchar
        </CharString>
        <CharString name="Ubreve">
          -15 callsubr
          135 -8 callgsubr
          78 51 hintmask 11101000
          -99 callgsubr
          172 858 -52 callsubr
          hintmask 11011000
          -98 callsubr
          hintmask 11101000
          -61 callgsubr
        </CharString>
        <CharString name="Ucircumflex">
          -15 callsubr
          227 -20 hstem
          78 51 vstem
          390 819 -99 callsubr
          -66 -841 -107 callsubr
          endchar
        </CharString>
        <CharString name="Udblgrave">
          -15 callsubr
          228 -20 hstem
          78 51 vstem
          533 817 -88 callsubr
          -66 -923 -107 callsubr
          endchar
        </CharString>
        <CharString name="Udieresis">
          -15 callsubr
          138 88 hstem
          78 51 vstem
          426 828 -94 callgsubr
          -216 -833 -107 callsubr
          endchar
        </CharString>
        <CharString name="Udotbelow">
          1 callgsubr
          146 47 668 -83 callsubr
          -11 -146 -92 callsubr
          endchar
        </CharString>
        <CharString name="Ugrave">
          -15 callsubr
          228 -83 callsubr
          177 822 -77 callsubr
        </CharString>
        <CharString name="Uhungarumlaut">
          -15 callsubr
          228 -83 callsubr
          196 923 -64 callsubr
          endchar
        </CharString>
        <CharString name="Uinvertedbreve">
          -15 callsubr
          135 -9 callgsubr
          78 51 hintmask 11101000
          389 825 rmoveto
          32 hlineto
          hintmask 11011000
          -78 callgsubr
          hintmask 11101000
          -95 callsubr
          -91 -830 -107 callsubr
          endchar
        </CharString>
        <CharString name="Umacron">
          -15 callsubr
          168 37 -90 callsubr
          314 863 -70 callsubr
          endchar
        </CharString>
        <CharString name="Uogonek">
          -150 -21 167 46 668 -20 hstem
          78 51 54 35 vstem
          234 -171 -28 callgsubr
          25 71 44 vhcurveto
          198 7 106 163 39 187 75 357 rcurveline
          -51 hlineto
          -75 -357 rlineto
          -153 -32 -84 -158 -181 hhcurveto
          -133 -45 86 109 37 6 39 8 40 hvcurveto
          76 -40 callsubr
          -76 -357 rlineto
          -9 -42 -5 -43 -39 vvcurveto
          -123 50 -100 144 -10 vhcurveto
          -64 -42 -25 -32 -37 -53 callsubr
          endchar
        </CharString>
        <CharString name="Uring">
          -15 callsubr
          102 23 79 23 hstem
          78 51 282 27 79 26 vstem
          411 843 -88 callgsubr
          -187 -899 -107 callsubr
          endchar
        </CharString>
        <CharString name="Utilde">
          -15 callsubr
          144 -47 callsubr
          78 51 hintmask 11101100
          -99 callgsubr
          230 839 -87 callsubr
          hintmask 11110100
          -97 callgsubr
        </CharString>
        <CharString name="V">
          83 -2 callgsubr
          232 hmoveto
          47 hlineto
          436 710 rlineto
          -54 hlineto
          -391 -646 -118 646 rlineto
          -54 hlineto
          endchar
        </CharString>
        <CharString name="V.sc">
          -5 18 callgsubr
          192 hmoveto
          41 hlineto
          354 545 -77 callgsubr
          -310 -481 -107 481 -77 callgsubr
          endchar
        </CharString>
        <CharString name="W">
          429 -2 callgsubr
          234 hmoveto
          -91 callsubr
          endchar
        </CharString>
        <CharString name="W.alt">
          431 -2 callgsubr
          168 hmoveto
          54 hlineto
          336 627 77 -627 rlineto
          54 hlineto
          367 710 rlineto
          -57 hlineto
          -325 -637 -71 637 3 callgsubr
          -335 -637 -54 637 rlineto
          -56 hlineto
          endchar
        </CharString>
        <CharString name="W.sc">
          286 18 callgsubr
          194 hmoveto
          42 hlineto
          180 274 64 -274 rlineto
          42 hlineto
          356 545 -75 callgsubr
          -317 -488 -58 252 148 232 rlineto
          -45 hlineto
          -125 -196 -40 196 rlineto
          -45 hlineto
          50 -232 -165 -252 -109 488 -75 callgsubr
          endchar
        </CharString>
        <CharString name="Wacute">
          429 -24 callsubr
          690 917 -89 callsubr
          -354 -816 rmoveto
          -91 callsubr
          endchar
        </CharString>
        <CharString name="Wcircumflex">
          429 -24 callsubr
          521 819 -99 callsubr
          -261 -836 rmoveto
          -91 callsubr
          endchar
        </CharString>
        <CharString name="Wdieresis">
          429 -56 callgsubr
          138 88 hstem
          552 828 -94 callgsubr
          -406 -828 rmoveto
          -91 callsubr
          endchar
        </CharString>
        <CharString name="Wgrave">
          429 -56 callgsubr
          228 -20 hstem
          234 hmoveto
          -91 callsubr
          505 107 -77 callsubr
        </CharString>
        <CharString name="X">
          34 -2 callgsubr
          -49 hmoveto
          58 hlineto
          293 313 159 -313 rlineto
          58 hlineto
          -181 350 340 360 rlineto
          -58 hlineto
          -302 -323 -166 323 rlineto
          -58 hlineto
          187 -360 rlineto
          endchar
        </CharString>
        <CharString name="X.sc">
          -41 18 callgsubr
          -41 hmoveto
          53 hlineto
          235 234 137 -234 rlineto
          52 hlineto
          -156 269 278 276 rlineto
          -53 hlineto
          -243 -242 -141 242 rlineto
          -53 hlineto
          160 -276 rlineto
          endchar
        </CharString>
        <CharString name="Y">
          38 -2 callgsubr
          -84 callsubr
          endchar
        </CharString>
        <CharString name="Y.sc">
          -42 18 callgsubr
          169 hmoveto
          47 hlineto
          43 204 294 341 rlineto
          -52 hlineto
          -256 -298 -128 298 -75 callgsubr
          147 -340 rlineto
          endchar
        </CharString>
        <CharString name="Yacute">
          38 -24 callsubr
          -84 callsubr
          225 647 -46 callsubr
        </CharString>
        <CharString name="Ycircumflex">
          38 -24 callsubr
          -84 callsubr
          58 549 -66 callgsubr
        </CharString>
        <CharString name="Ydieresis">
          38 -56 callgsubr
          138 88 hstem
          -84 callsubr
          97 558 -68 callsubr
        </CharString>
        <CharString name="Ygrave">
          38 -56 callgsubr
          228 -20 hstem
          -84 callsubr
          139 547 -77 callsubr
        </CharString>
        <CharString name="Ytilde">
          38 -56 callgsubr
          144 -47 callsubr
          hintmask 11101000
          -84 callsubr
          189 564 -87 callsubr
          hintmask 11110000
          -97 callgsubr
        </CharString>
        <CharString name="Z">
          29 0 46 618 46 hstem
          -37 hmoveto
          -29 callgsubr
        </CharString>
        <CharString name="Z.sc">
          -44 0 42 460 43 hstem
          -29 hmoveto
          447 hlineto
          9 42 rlineto
          -388 hlineto
          489 465 8 38 rlineto
          -443 hlineto
          -9 -43 rlineto
          388 hlineto
          -493 -464 rlineto
          endchar
        </CharString>
        <CharString name="Zacute">
          47 callgsubr
          486 917 -89 callsubr
          -421 -816 rmoveto
          -29 callgsubr
        </CharString>
        <CharString name="Zcaron">
          47 callgsubr
          381 819 -91 callgsubr
          -343 -31 callsubr
          endchar
        </CharString>
        <CharString name="Zdotaccent">
          47 callgsubr
          -37 -59 callsubr
          455 785 -92 callsubr
          endchar
        </CharString>
        <CharString name="Zdotbelow">
          29 1 callgsubr
          151 46 618 46 hstem
          -37 -59 callsubr
          255 -193 -92 callsubr
          endchar
        </CharString>
        <CharString name="a">
          -69 callgsubr
          hstemhm
          27 52 hintmask 10101000
          -85 callsubr
          hintmask 01011000
          -100 callsubr
          hintmask 10101000
          -106 callsubr
          endchar
        </CharString>
        <CharString name="a.alt">
          26 -10 45 -14 -21 484 45 hstemhm
          26 53 hintmask 10110000
          211 -10 rmoveto
          82 77 49 71 54 hvcurveto
          hintmask 01110000
          -24 -110 -12 callgsubr
          110 517 -77 callgsubr
          -24 -111 rlineto
          71 -22 -58 52 -84 hhcurveto
          -148 -148 -153 -169 hvcurveto
          hintmask 10110000
          -115 68 -102 117 vhcurveto
          19 45 rmoveto
          -95 -56 82 97 126 114 144 131 80 57 -61 -81 12 hvcurveto
          -36 -168 rlineto
          -77 -46 -76 -62 -85 hhcurveto
          endchar
        </CharString>
        <CharString name="a.alt2">
          -52 -10 40 -9 -21 270 35 184 40 hstemhm
          -2 49 356 50 hintmask 10111100
          131 -10 rmoveto
          74 82 29 65 60 hvcurveto
          hintmask 01111100
          -17 -84 rlineto
          48 hlineto
          69 324 rlineto
          4 20 2 19 18 vvcurveto
          88 -51 60 -105 -66 -67 -30 -38 -62 vhcurveto
          11 -34 rlineto
          40 64 59 22 49 hhcurveto
          76 42 -45 -71 -14 -1 -15 -4 -16 hvcurveto
          -11 -51 rlineto
          11 -23 -51 17 -73 hhcurveto
          -104 -138 -51 -132 hvcurveto
          hintmask 10111100
          -75 53 -57 80 vhcurveto
          18 40 rmoveto
          -57 -45 40 62 103 110 35 82 48 49 -9 -19 43 hvcurveto
          -19 -92 -3 -12 -8 -13 -13 -15 rlinecurve
          -55 -47 -78 -25 -62 hhcurveto
          endchar
        </CharString>
        <CharString name="aacute">
          -69 callgsubr
          230 -20 -104 callsubr
          218 695 -46 callsubr
        </CharString>
        <CharString name="abreve">
          -69 callgsubr
          138 -8 callgsubr
          27 52 hintmask 10101010
          -85 callsubr
          hintmask 01011010
          -100 callsubr
          hintmask 10101010
          -106 callsubr
          124 631 -52 callsubr
          hintmask 10100110
          -98 callsubr
          hintmask 10101010
          -61 callgsubr
        </CharString>
        <CharString name="acircumflex">
          -69 callgsubr
          230 -20 -104 callsubr
          45 597 -66 callgsubr
        </CharString>
        <CharString name="acute">
          -361 -3 callsubr
          168 730 -46 callsubr
        </CharString>
        <CharString name="adblgrave">
          27 -10 45 -16 -21 486 45 -45 246 -210 0 callgsubr
          hintmask 10100100
          -85 callsubr
          hintmask 01001100
          -100 callsubr
          hintmask 10100100
          -106 callsubr
          178 594 rmoveto
          32 16 rlineto
          hintmask 10010100
          -39 85 -77 callgsubr
          -55 -101 rmoveto
          32 16 -37 85 rlineto
          -52 hlineto
          endchar
        </CharString>
        <CharString name="adieresis">
          -69 callgsubr
          140 88 -104 callsubr
          81 605 -68 callsubr
        </CharString>
        <CharString name="ae">
          35 callgsubr
          hstemhm
          -2 49 306 50 402 50 hintmask 11011110
          135 -10 -74 callgsubr
          hintmask 10111110
          -55 callgsubr
          hintmask 11011110
          -11 callgsubr
        </CharString>
        <CharString name="aeacute">
          35 callgsubr
          201 -20 hstemhm
          -2 49 306 50 402 50 hintmask 11011111
          591 730 -89 callsubr
          -354 -639 -74 callgsubr
          hintmask 10111111
          -55 callgsubr
          hintmask 11011111
          -11 callgsubr
        </CharString>
        <CharString name="afii61352">
          513 21 -21 351 38 286 38 -3 -20 hstemhm
          758 44 260 45 hintmask 11011100
          540 hmoveto
          46 -81 callgsubr
          -132 -624 -337 625 rlineto
          -39 hlineto
          -151 -710 rlineto
          51 hlineto
          130 614 rlineto
          686 -263 rmoveto
          113 100 104 111 hvcurveto
          hintmask 11101100
          81 -52 66 -84 -113 -100 -103 -112 -79 51 -68 85 vhcurveto
          -92 152 rmoveto
          93 81 79 80 59 40 -50 -65 -91 -80 -80 -80 -60 -40 50 64 vhcurveto
          endchar
        </CharString>
        <CharString name="agrave">
          -69 callgsubr
          230 -20 -104 callsubr
          128 594 -77 callsubr
        </CharString>
        <CharString name="ainvertedbreve">
          -69 callgsubr
          138 -9 callgsubr
          27 52 hintmask 10101010
          -85 callsubr
          hintmask 01011010
          -100 callsubr
          hintmask 10101010
          -106 callsubr
          39 603 rmoveto
          32 hlineto
          hintmask 10100110
          -78 callgsubr
          hintmask 10101010
          -95 callsubr
          endchar
        </CharString>
        <CharString name="amacron">
          -69 callgsubr
          171 37 -104 callsubr
          273 636 -70 callsubr
          endchar
        </CharString>
        <CharString name="ampersand">
          106 -10 43 -12 -21 374 42 263 40 hstemhm
          19 50 87 47 hintmask 01111100
          490 hmoveto
          65 hlineto
          -107 152 44 62 35 75 21 85 rlinecurve
          98 hlineto
          9 42 rlineto
          -145 hlineto
          -16 -86 -31 -78 -40 -63 -158 226 rcurveline
          -46 65 -16 40 32 vvcurveto
          66 70 61 78 59 50 -38 -58 23 vhcurveto
          35 31 rlineto
          66 -29 -59 39 -71 hhcurveto
          -108 -95 -80 -94 -38 16 -39 41 -64 hvcurveto
          -122 -73 -72 -73 -103 vvcurveto
          hintmask 10111100
          -97 69 -68 98 81 81 45 75 66 vhcurveto
          hintmask 01111100
          hintmask 10111100
          -218 -77 rmoveto
          -74 -53 50 78 81 58 63 108 65 hvcurveto
          3 -3 153 -223 rlineto
          -69 -57 -69 -42 -69 hhcurveto
          endchar
        </CharString>
        <CharString name="aogonek">
          27 -148 -21 159 42 callgsubr
          27 52 255 35 hintmask 11011100
          385 14 callsubr
          -19 callsubr
          -12 -5 5 10 4 1 4 1 4 hvcurveto
          96 448 rlineto
          -51 32 callsubr
          hintmask 11101100
          66 -24 -56 56 -87 hhcurveto
          -151 -139 -157 -163 -116 70 -103 115 75 83 45 69 54 hvcurveto
          -10 -51 -2 -10 -9 vvcurveto
          -14 6 -12 13 -6 vhcurveto
          -70 -44 -27 -33 -38 -53 callsubr
          -155 204 rmoveto
          -89 -62 83 97 128 111 141 127 79 65 -64 -74 10 hvcurveto
          -36 -171 rlineto
          -75 -25 -107 -65 -73 hhcurveto
          endchar
        </CharString>
        <CharString name="apostrophe">
          -27 -3 callsubr
          320 30 callsubr
          endchar
        </CharString>
        <CharString name="approxequal">
          -121 188 40 2 40 15 40 2 39 hstem
          339 340 rmoveto
          -11 -11 -16 -4 -24 -55 -36 41 -60 hhcurveto
          -33 -23 -14 -17 -14 hvcurveto
          25 -28 rlineto
          10 9 15 10 22 46 39 -42 66 hhcurveto
          34 23 13 16 17 hvcurveto
          -24 -70 rmoveto
          -12 -11 -16 -4 -24 -55 -36 42 -60 hhcurveto
          -33 -23 -15 -17 -14 hvcurveto
          25 -28 rlineto
          11 9 15 9 22 46 39 -42 66 hhcurveto
          34 23 12 15 17 hvcurveto
          endchar
        </CharString>
        <CharString name="aring">
          -69 callgsubr
          105 23 79 23 3 callsubr
          214 27 79 26 hintmask 1010111110000000
          -85 callsubr
          hintmask 0101111110000000
          -100 callsubr
          hintmask 1010111110000000
          -106 callsubr
          63 621 -88 callgsubr
          endchar
        </CharString>
        <CharString name="aringacute">
          -69 callgsubr
          105 23 79 23 144 0 callgsubr
          214 27 79 26 hintmask 1010111111000000
          -85 callsubr
          hintmask 0101111111000000
          -100 callsubr
          hintmask 1010111111000000
          -106 callsubr
          242 839 -89 callsubr
          -77 -117 -88 callgsubr
          endchar
        </CharString>
        <CharString name="asciicircum">
          -36 324 -21 407 -20 hstem
          97 303 rmoveto
          176 356 172 -356 rlineto
          46 hlineto
          -197 407 rlineto
          -43 hlineto
          -198 -407 rlineto
          endchar
        </CharString>
        <CharString name="asciitilde">
          -91 245 35 24 36 hstem
          53 245 rmoveto
          34 hlineto
          2 24 57 44 vhcurveto
          45 38 -59 64 hhcurveto
          78 34 84 4 1 hvcurveto
          -34 hlineto
          -5 -24 -48 -49 vhcurveto
          -53 -37 60 -58 hhcurveto
          -70 -35 -86 -9 -2 hvcurveto
          endchar
        </CharString>
        <CharString name="asterisk">
          -258 556 -21 177 -20 hstem
          159 535 rmoveto
          54 61 26 -61 30 18 -28 60 68 22 -1 29 -71 -24 17 72 rlineto
          -34 hlineto
          -13 -72 -60 24 -15 -29 59 -22 -53 -60 rlineto
          endchar
        </CharString>
        <CharString name="at">
          235 -146 29 101 31 -9 34 379 34 121 29 hstemhm
          25 30 117 37 274 34 189 30 hintmask 1101111110000000
          553 15 rmoveto
          -24 -12 12 28 8 1 14 5 22 hvcurveto
          75 351 rlineto
          -36 hlineto
          -18 -88 rlineto
          55 -21 -46 36 -66 hhcurveto
          -126 -113 -128 -141 hvcurveto
          hintmask 1011111110000000
          -102 58 -76 91 57 63 30 43 45 vhcurveto
          -3 -11 0 -12 -9 vvcurveto
          hintmask 1101111110000000
          -45 21 -18 37 124 71 193 131 165 -112 130 -169 -209 -221 -200 -245 -175 114 -129 159 52 59 14 26 56 vhcurveto
          -6 27 rlineto
          -25 -51 -48 -13 -52 hhcurveto
          -152 -101 119 159 221 196 192 198 158 99 -121 -152 -125 -68 -161 -85 hvcurveto
          hintmask 1011111110000000
          -218 25 rmoveto
          -73 -53 63 89 122 100 105 100 57 47 -34 -66 19 hvcurveto
          -33 -169 rlineto
          -60 -24 -75 -50 -65 hhcurveto
          endchar
        </CharString>
        <CharString name="atilde">
          -69 callgsubr
          147 -47 callsubr
          27 52 hintmask 10101101
          -85 callsubr
          hintmask 01011101
          -100 callsubr
          hintmask 10101011
          -106 callsubr
          180 612 -87 callsubr
          hintmask 10101101
          -97 callgsubr
        </CharString>
        <CharString name="b">
          22 39 callgsubr
          490 53 hintmask 10111000
          245 -10 rmoveto
          149 149 154 171 108 -59 106 -119 -81 -74 -50 -72 -62 hvcurveto
          69 323 -77 callgsubr
          hintmask 01111000
          -155 -730 rlineto
          45 hlineto
          22 104 rlineto
          hintmask 10111000
          -63 24 57 -51 85 hhcurveto
          45 vmoveto
          -77 -64 51 73 -8 hvcurveto
          40 192 rlineto
          71 55 71 62 81 hhcurveto
          95 52 -85 -91 -138 -119 -135 -126 hvcurveto
          endchar
        </CharString>
        <CharString name="backslash">
          -50 -2 callgsubr
          106 710 rmoveto
          263 -710 rlineto
          57 hlineto
          -262 710 rlineto
          endchar
        </CharString>
        <CharString name="bar">
          -289 -109 -21 905 -20 hstem
          120 45 vstem
          165 -130 rmoveto
          905 -45 -905 vlineto
          endchar
        </CharString>
        <CharString name="braceleft">
          -326 -10 -21 771 -20 hstem
          274 697 rmoveto
          9 43 rlineto
          -77 hlineto
          -6 -17 -4 -26 -5 hvcurveto
          -59 -279 rlineto
          -14 -3 -15 -36 -27 hhcurveto
          -8 -40 rlineto
          17 -2 7 -16 -18 vvcurveto
          -5 0 -6 -1 -5 vhcurveto
          -62 -290 rlineto
          -1 -4 0 -4 -3 vvcurveto
          -14 8 -5 8 vhcurveto
          77 hlineto
          10 43 rlineto
          -53 hlineto
          62 288 rlineto
          4 1 8 7 vvcurveto
          15 -3 15 -10 11 vhcurveto
          24 19 11 28 2 13 59 277 rcurveline
          endchar
        </CharString>
        <CharString name="braceright">
          -326 -10 -21 771 -20 hstem
          185 697 rmoveto
          -59 -277 rlineto
          -1 -4 -1 -8 -8 vvcurveto
          -13 3 -15 9 -12 vhcurveto
          -23 -18 -10 -30 -3 -12 -61 -288 rcurveline
          -52 hlineto
          -9 -43 rlineto
          76 hlineto
          10 14 8 22 5 hvcurveto
          61 290 5 24 16 25 24 3 rlinecurve
          9 40 rlineto
          -19 -6 19 16 6 0 6 1 3 hvcurveto
          60 279 rlineto
          1 3 0 3 3 vvcurveto
          18 -12 3 -5 vhcurveto
          -76 hlineto
          -9 -43 rlineto
          endchar
        </CharString>
        <CharString name="bracketleft">
          -326 -19 -21 780 -20 hstem
          116 -40 rmoveto
          9 43 rlineto
          -52 hlineto
          148 694 rlineto
          51 hlineto
          9 43 rlineto
          -98 hlineto
          -166 -780 rlineto
          endchar
        </CharString>
        <CharString name="bracketright">
          -327 -19 -21 780 -20 hstem
          76 -40 rmoveto
          165 780 rlineto
          -98 hlineto
          -9 -43 rlineto
          51 hlineto
          -148 -694 -75 callgsubr
          -9 -43 rlineto
          endchar
        </CharString>
        <CharString name="breve">
          -307 638 -8 callgsubr
          hintmask 10000000
          129 666 -52 callsubr
          hintmask 01000000
          -98 callsubr
          hintmask 10000000
          -61 callgsubr
        </CharString>
        <CharString name="brokenbar">
          -295 -109 -21 905 -20 hstem
          117 45 vstem
          117 280 rmoveto
          -410 45 410 vlineto
          -45 495 rmoveto
          -410 45 410 vlineto
          endchar
        </CharString>
        <CharString name="bullet">
          -227 259 171 hstem
          93 167 vstem
          260 360 rmoveto
          38 -25 32 -40 -50 -52 -47 -53 -40 27 -31 38 52 50 47 54 vhcurveto
          endchar
        </CharString>
        <CharString name="c">
          -42 -44 callsubr
          hstem
          27 51 vstem
          222 -10 -93 callsubr
          endchar
        </CharString>
        <CharString name="c_t">
          256 -6 41 -24 -21 494 45 -9 -20 218 31 hstemhm
          26 52 361 29 94 54 60 51 hintmask 0110111110000000
          220 -10 rmoveto
          81 102 45 82 46 hvcurveto
          -46 14 rlineto
          hintmask 1010111110000000
          -59 -29 -89 -37 -56 hhcurveto
          -91 -60 83 99 122 105 145 135 66 50 -28 -64 19 hvcurveto
          52 16 rlineto
          -6 29 -31 82 64 vvcurveto
          68 42 67 82 65 19 -31 -47 vhcurveto
          hintmask 1001111110000000
          -34 -10 -42 -9 -44 vhcurveto
          -70 hlineto
          -8 -41 rlineto
          69 hlineto
          -83 -392 rlineto
          -2 -2 callsubr
          35 -25 46 45 35 16 15 31 vhcurveto
          -5 40 rlineto
          -10 -21 -29 -14 -32 hhcurveto
          -28 -23 16 31 3 0 4 1 4 hvcurveto
          81 380 rlineto
          115 -23 callsubr
          -115 hlineto
          11 51 9 45 36 vvcurveto
          60 -26 37 -92 -105 -65 -77 -89 vhcurveto
          hintmask 0110111110000000
          -37 11 -37 10 -25 vhcurveto
          28 -29 -40 17 -62 hhcurveto
          -167 -136 -163 -155 -115 70 -106 124 hvcurveto
          endchar
        </CharString>
        <CharString name="cacute">
          -42 -45 callsubr
          27 51 vstem
          436 730 -89 callsubr
          -112 -639 -93 callsubr
          endchar
        </CharString>
        <CharString name="caron">
          -259 653 -21 98 -20 hstem
          135 632 -91 callgsubr
          endchar
        </CharString>
        <CharString name="caron.alt">
          -361 -3 callsubr
          79 -37 callgsubr
          endchar
        </CharString>
        <CharString name="ccaron">
          -42 -45 callsubr
          27 51 vstem
          336 632 -91 callgsubr
          -39 -723 -93 callsubr
          endchar
        </CharString>
        <CharString name="ccedilla">
          -42 11 callsubr
          37 -46 callgsubr
          hstem
          27 51 186 30 vstem
          101 -152 rmoveto
          -79 callsubr
          34 43 89 4 88 52 40 71 rlinecurve
          -46 14 rlineto
          -51 -26 -80 -45 -69 hhcurveto
          -89 -61 80 102 145 121 122 124 64 50 -35 -57 16 hvcurveto
          53 16 rlineto
          75 -19 -62 46 -90 hhcurveto
          -164 -144 -149 -170 -115 66 -93 107 -11 hvcurveto
          -56 -76 -80 callsubr
          endchar
        </CharString>
        <CharString name="ccircumflex">
          -42 -45 callsubr
          27 51 vstem
          280 632 -99 callsubr
          -32 -659 -93 callsubr
          endchar
        </CharString>
        <CharString name="cdotaccent">
          -42 -45 callsubr
          27 51 vstem
          222 -10 -93 callsubr
          161 650 -92 callsubr
          endchar
        </CharString>
        <CharString name="cedilla">
          -306 11 callsubr
          62 -20 hstem
          152 30 vstem
          -11 -152 rmoveto
          -79 callsubr
          44 56 -24 12 -74 -100 -80 callsubr
          endchar
        </CharString>
        <CharString name="cent">
          -31 -99 -21 110 46 445 47 117 -20 hstem
          30 51 vstem
          205 -120 rmoveto
          24 110 rlineto
          70 107 43 84 46 hvcurveto
          -46 14 -27 -56 -87 -38 -53 -1 rlinecurve
          95 447 59 -3 45 -28 18 -60 rlinecurve
          52 16 -19 71 -51 46 -95 3 rlinecurve
          25 117 rlineto
          -30 hlineto
          -25 -117 rlineto
          -158 -13 -125 -155 -150 vvcurveto
          -107 62 -103 107 -9 vhcurveto
          -24 -111 rlineto
          -94 336 rmoveto
          115 95 140 127 10 vhcurveto
          -94 -443 rlineto
          -79 11 -49 78 89 vvcurveto
          endchar
        </CharString>
        <CharString name="circumflex">
          -259 653 -21 98 -20 hstem
          80 632 -66 callgsubr
        </CharString>
        <CharString name="colon">
          -390 21 -21 517 -20 hstem
          136 432 rmoveto
          18 85 rlineto
          -43 hlineto
          -19 -85 rlineto
          -48 -432 rmoveto
          18 85 rlineto
          -43 hlineto
          -18 -85 rlineto
          endchar
        </CharString>
        <CharString name="colonmonetary">
          -40 -99 -21 131 -21 494 161 -116 0 callgsubr
          hintmask 11101000
          132 -120 rmoveto
          29 hlineto
          25 114 rlineto
          -2 11 12 -2 13 hhcurveto
          8 9 1 1 9 hvcurveto
          -24 -112 rlineto
          30 hlineto
          25 117 72 16 66 46 33 58 rlinecurve
          -47 14 rlineto
          -51 -25 -81 -45 -68 hhcurveto
          -89 -61 80 102 145 120 122 125 64 49 -35 -57 17 hvcurveto
          52 16 -15 58 -41 40 -59 16 rlinecurve
          26 123 rlineto
          -31 hlineto
          -25 -118 rlineto
          hintmask 11011000
          1 -8 -9 1 -9 hhcurveto
          -13 -12 -1 -2 -12 hvcurveto
          hintmask 11101000
          26 119 rlineto
          -30 hlineto
          -26 -124 rlineto
          -134 -34 -107 -131 -146 vvcurveto
          -98 49 -83 81 -29 vhcurveto
          endchar
        </CharString>
        <CharString name="comma">
          -329 -60 -21 100 -21 87 -20 hstem
          42 -81 rmoveto
          36 79 19 87 -75 callgsubr
          -18 -87 rlineto
          18 hlineto
          -31 -79 rlineto
          endchar
        </CharString>
        <CharString name="commaaccent">
          -428 -166 -21 138 -20 hstem
          42 -89 callgsubr
          endchar
        </CharString>
        <CharString name="copyright">
          278 -7 28 103 45 374 45 99 28 hstem
          67 29 115 51 506 30 vstem
          431 -7 rmoveto
          210 33 callgsubr
          -210 -209 33 callsubr
          209 hvcurveto
          1 28 rmoveto
          -194 -142 143 190 191 143 142 193 193 143 -142 -193 -196 -147 -135 -189 hvcurveto
          7 103 rmoveto
          98 72 69 44 15 hvcurveto
          -48 14 rlineto
          -51 -23 -65 -31 -53 hhcurveto
          -77 -96 67 119 89 54 99 116 41 66 -13 -65 29 hvcurveto
          48 16 rlineto
          70 -29 -73 37 -82 hhcurveto
          -152 -69 -123 -110 -142 114 -89 114 hvcurveto
          endchar
        </CharString>
        <CharString name="currency">
          -6 149 -21 28 37 287 38 27 -20 hstem
          106 43 271 43 vstem
          101 545 rmoveto
          -27 -26 69 -70 rlineto
          -23 -31 -14 -40 -42 vvcurveto
          -43 14 -39 25 -32 vhcurveto
          -71 -70 24 -24 71 69 rlineto
          -26 31 39 -15 45 hhcurveto
          46 39 16 26 31 hvcurveto
          73 -70 24 24 -73 71 rlineto
          25 32 14 39 42 vvcurveto
          42 -14 39 -23 31 vhcurveto
          71 71 -26 26 -71 -71 rlineto
          27 -30 -41 17 -45 hhcurveto
          -45 -40 -16 -27 -30 hvcurveto
          -20 -140 rmoveto
          81 62 64 73 74 62 -63 -80 -79 -62 -65 -74 -74 -61 63 79 vhcurveto
          endchar
        </CharString>
        <CharString name="d">
          27 -10 -5 callgsubr
          hintmask 10111000
          214 -10 rmoveto
          -54 callgsubr
          hintmask 01111000
          -3 callgsubr
          -64 callgsubr
          140 658 -75 callgsubr
          -68 -323 rlineto
          66 -24 -57 56 -85 hhcurveto
          -152 -139 -157 -163 hvcurveto
          hintmask 10111000
          -84 callgsubr
        </CharString>
        <CharString name="d.alt">
          23 39 callgsubr
          27 52 hintmask 10111000
          214 -10 rmoveto
          73 79 45 66 53 hvcurveto
          hintmask 01111000
          -22 -101 -12 callgsubr
          155 730 -77 callgsubr
          -68 -323 rlineto
          66 -29 -52 56 -86 hhcurveto
          -151 -139 -157 -163 hvcurveto
          hintmask 10111000
          -116 69 -103 118 vhcurveto
          18 45 rmoveto
          -92 -61 83 99 126 110 141 130 72 72 -61 -77 8 hvcurveto
          -36 -171 rlineto
          -76 -22 -111 -64 -70 hhcurveto
          endchar
        </CharString>
        <CharString name="dagger">
          -183 -109 -21 378 46 481 -20 hstem
          124 -130 rmoveto
          80 378 rlineto
          125 hlineto
          9 46 rlineto
          -124 hlineto
          102 481 rlineto
          -48 hlineto
          -102 -481 rlineto
          -126 -31 callgsubr
          125 hlineto
          -80 -378 rlineto
          endchar
        </CharString>
        <CharString name="daggerdbl">
          -179 -109 -21 305 46 111 46 397 -20 hstem
          126 -130 rmoveto
          64 305 rlineto
          125 hlineto
          10 46 rlineto
          -125 hlineto
          24 111 rlineto
          124 hlineto
          10 46 rlineto
          -124 hlineto
          84 397 rlineto
          -48 hlineto
          -85 -397 rlineto
          -125 hlineto
          -9 -46 rlineto
          125 hlineto
          -24 -111 rlineto
          -125 -31 callgsubr
          125 hlineto
          -64 -305 rlineto
          endchar
        </CharString>
        <CharString name="dcaron">
          27 -10 -5 callgsubr
          hintmask 10111000
          659 -37 callgsubr
          -414 -655 rmoveto
          -54 callgsubr
          hintmask 01111000
          -3 callgsubr
          -64 callgsubr
          140 658 -75 callgsubr
          -68 -323 rlineto
          66 -24 -57 56 -85 hhcurveto
          -152 -139 -157 -163 hvcurveto
          hintmask 10111000
          -84 callgsubr
        </CharString>
        <CharString name="dcroat">
          27 40 callsubr
          90 36 75 0 callgsubr
          hintmask 10111100
          423 619 rmoveto
          105 hlineto
          -44 -212 rlineto
          66 -24 -57 56 -85 hhcurveto
          -152 -139 -157 -163 -116 69 -103 118 -54 callgsubr
          hintmask 01111100
          -3 callgsubr
          -64 callgsubr
          116 547 rlineto
          74 hlineto
          8 36 rlineto
          -74 hlineto
          16 75 -75 callgsubr
          -16 -75 rlineto
          -106 hlineto
          hintmask 10111100
          -197 -620 rmoveto
          -93 -61 83 99 126 110 141 131 71 70 -62 -76 10 hvcurveto
          -36 -171 rlineto
          -76 -25 -109 -64 -68 hhcurveto
          endchar
        </CharString>
        <CharString name="ddotbelow">
          27 1 callgsubr
          141 -5 callgsubr
          hintmask 11011100
          219 -50 callsubr
          41 141 rmoveto
          -54 callgsubr
          hintmask 10111100
          -3 callgsubr
          -64 callgsubr
          140 658 -75 callgsubr
          -68 -323 rlineto
          66 -24 -57 56 -85 hhcurveto
          -152 -139 -157 -163 hvcurveto
          hintmask 11011100
          -84 callgsubr
        </CharString>
        <CharString name="degree">
          -310 568 32 90 34 hstem
          121 33 88 32 vstem
          181 568 rmoveto
          49 44 43 50 35 -24 28 -36 -51 -42 -48 -47 -35 24 -26 36 hvcurveto
          7 32 rmoveto
          -21 -13 16 22 29 26 23 27 21 14 -12 -23 -30 -30 -25 -24 hvcurveto
          endchar
        </CharString>
        <CharString name="dieresis">
          -280 640 88 hstem
          98 640 -68 callsubr
        </CharString>
        <CharString name="divide">
          -23 102 -21 176 43 175 -20 hstem
          243 44 vstem
          287 394 rmoveto
          81 -44 -81 vlineto
          44 -313 rmoveto
          80 -44 -80 vlineto
          224 176 rmoveto
          43 -403 -43 vlineto
          endchar
        </CharString>
        <CharString name="dollar">
          28 -78 -21 93 45 629 46 101 -20 hstem
          107 55 313 56 vstem
          586 632 rmoveto
          -42 53 -59 28 -83 2 22 100 rcurveline
          -30 hlineto
          -22 -101 rlineto
          -153 -7 -112 -87 -139 vvcurveto
          -88 69 -32 117 -27 vhcurveto
          -62 -295 -90 6 -68 39 -38 57 rlinecurve
          -36 -41 54 -65 72 -35 94 -5 rlinecurve
          -20 -94 rlineto
          30 hlineto
          20 93 rlineto
          163 1 119 78 144 vvcurveto
          98 -79 34 -124 29 vhcurveto
          61 291 77 -1 54 -26 32 -50 rlinecurve
          -77 -390 rmoveto
          -105 -85 -58 -134 vhcurveto
          61 289 rlineto
          103 -26 55 -31 -69 vvcurveto
          -313 294 rmoveto
          94 59 72 143 6 vhcurveto
          -60 -284 rlineto
          -95 24 -47 24 64 vvcurveto
          endchar
        </CharString>
        <CharString name="dotaccent">
          -424 661 -21 90 -20 hstem
          93 640 -92 callsubr
          endchar
        </CharString>
        <CharString name="dotbelow">
          -423 1 callgsubr
          90 -20 hstem
          62 -50 callsubr
          endchar
        </CharString>
        <CharString name="dotlessi">
          -49 callgsubr
          hstem
          12 hmoveto
          -72 callsubr
          endchar
        </CharString>
        <CharString name="dotlessj">
          -363 -177 46 651 -48 callgsubr
          endchar
        </CharString>
        <CharString name="e">
          -65 callgsubr
          -95 callgsubr
          endchar
        </CharString>
        <CharString name="eacute">
          -34 callgsubr
          438 730 -89 callsubr
          -112 -639 -107 callgsubr
          endchar
        </CharString>
        <CharString name="ebreve">
          -65 callgsubr
          109 -8 callgsubr
          27 51 373 47 hintmask 11110110
          -103 callgsubr
          28 178 -52 callsubr
          hintmask 11101110
          -98 callsubr
          hintmask 11110110
          -61 callgsubr
        </CharString>
        <CharString name="ecaron">
          -34 callgsubr
          335 632 -91 callgsubr
          -36 -723 -107 callgsubr
          endchar
        </CharString>
        <CharString name="ecircumflex">
          -34 callgsubr
          283 632 -99 callsubr
          -33 -659 -107 callgsubr
          endchar
        </CharString>
        <CharString name="edblgrave">
          -65 callgsubr
          -41 242 hstemhm
          27 51 373 47 hintmask 11011100
          405 629 -88 callsubr
          -12 -740 rmoveto
          93 93 53 79 47 hvcurveto
          -42 13 rlineto
          -64 -36 -78 -41 -67 hhcurveto
          -104 -52 83 98 11 1 12 1 11 hvcurveto
          -4 57 46 -1 43 hhcurveto
          183 89 51 99 hvcurveto
          hintmask 11101100
          91 -78 48 -83 -176 -134 -157 -162 -121 72 -99 125 vhcurveto
          107 498 rmoveto
          60 60 -29 -68 -66 -57 -47 -165 -42 -44 1 4 -55 hvcurveto
          105 29 90 100 124 hhcurveto
          endchar
        </CharString>
        <CharString name="edieresis">
          -65 callgsubr
          111 88 -41 callgsubr
          312 640 -94 callgsubr
          -176 -650 -107 callgsubr
          endchar
        </CharString>
        <CharString name="edotaccent">
          -35 -10 40 210 38 210 41 201 -20 -95 callgsubr
          52 152 -92 callsubr
          endchar
        </CharString>
        <CharString name="edotbelow">
          -35 1 callgsubr
          141 40 210 38 210 41 -95 callgsubr
          -116 -639 -92 callsubr
          endchar
        </CharString>
        <CharString name="egrave">
          -35 -10 40 210 38 210 41 201 -20 -95 callgsubr
          37 141 -77 callsubr
        </CharString>
        <CharString name="eight">
          1 callsubr
          214 -7 rmoveto
          141 141 94 139 74 -46 57 -62 24 hvcurveto
          -38 callsubr
          13 44 rmoveto
          48 callgsubr
          hvcurveto
          hintmask 11111100
          76 76 -50 -85 -112 -121 -75 -97 hvcurveto
          76 363 rmoveto
          -64 -68 40 71 93 97 60 91 hvcurveto
          37 callsubr
          hvcurveto
          endchar
        </CharString>
        <CharString name="eight.denominator">
          -187 -4 34 40 callgsubr
          -3 -28 callsubr
          hintmask 11111100
          122 -4 -37 callsubr
          hintmask 11111010
          -86 callsubr
          hintmask 11111100
          -70 callgsubr
          hintmask 11111010
          -25 callsubr
          endchar
        </CharString>
        <CharString name="eight.lnum">
          1 callsubr
          496 226 rmoveto
          74 -46 57 -62 24 vhcurveto
          -38 callsubr
          hintmask 11111100
          141 141 94 139 hvcurveto
          -51 -2 rmoveto
          -112 -121 -75 -97 48 callgsubr
          76 76 -50 -85 vhcurveto
          -274 287 rmoveto
          93 97 60 91 vhcurveto
          37 callsubr
          -64 -68 40 71 hvcurveto
          endchar
        </CharString>
        <CharString name="eight.numerator">
          -187 332 35 40 callgsubr
          68 37 18 36 176 35 -11 35 hintmask 11111100
          370 461 14 callgsubr
          -59 -71 -86 -42 -69 -34 27 -25 32 -12 vhcurveto
          -54 -17 -60 13 callsubr
          -71 -36 -60 -49 -50 26 45 55 71 39 62 48 4 callgsubr
          -48 -66 -28 -49 -42 -43 21 37 hvcurveto
          endchar
        </CharString>
        <CharString name="eightinferior">
          -187 -84 34 40 callgsubr
          -20 -28 callsubr
          hintmask 11111100
          282 44 rmoveto
          42 -30 31 -41 14 vhcurveto
          hintmask 11111010
          50 16 45 33 49 vvcurveto
          53 -56 31 -59 -71 -85 -42 -69 -34 25 -25 33 -12 vhcurveto
          -54 -16 -59 -40 -61 vvcurveto
          -54 47 -44 78 vhcurveto
          hintmask 11111100
          89 88 52 76 hvcurveto
          -36 -1 rmoveto
          -57 -71 -36 -60 -49 -50 26 44 57 71 38 61 49 4 callgsubr
          -47 -65 -29 -50 -41 -44 21 37 hvcurveto
          endchar
        </CharString>
        <CharString name="eightsuperior">
          -187 412 35 40 callgsubr
          85 36 19 35 177 35 -12 36 hintmask 11111100
          387 541 14 callgsubr
          -60 -71 -85 -42 -69 -34 26 -25 32 -12 vhcurveto
          -54 -17 -59 13 callsubr
          -72 -36 -60 -48 -51 26 45 55 71 39 62 49 49 -27 -45 vhcurveto
          -177 160 rmoveto
          47 58 30 56 vhcurveto
          hintmask 11111010
          45 41 -22 -37 -48 -65 -28 -50 -41 -44 21 37 hvcurveto
          endchar
        </CharString>
        <CharString name="einvertedbreve">
          -65 callgsubr
          109 -9 callgsubr
          27 51 373 47 hintmask 11110110
          276 638 rmoveto
          32 hlineto
          hintmask 11101110
          -78 callgsubr
          hintmask 11110110
          -95 callsubr
          -52 -648 -107 callgsubr
          endchar
        </CharString>
        <CharString name="ellipsis">
          -155 0 85 hstem
          48 hmoveto
          18 85 rlineto
          -43 hlineto
          -19 -85 rlineto
          160 hmoveto
          17 85 rlineto
          -42 hlineto
          -19 -85 rlineto
          159 hmoveto
          19 85 rlineto
          -44 hlineto
          -19 -85 rlineto
          endchar
        </CharString>
        <CharString name="emacron">
          -65 callgsubr
          142 37 -95 callgsubr
          169 183 -70 callsubr
          endchar
        </CharString>
        <CharString name="emdash">
          289 249 46 hstem
          777 249 rmoveto
          9 46 rlineto
          -722 -31 callgsubr
          endchar
        </CharString>
        <CharString name="emspace">
          303 endchar
        </CharString>
        <CharString name="endash">
          2 callsubr
        </CharString>
        <CharString name="eng">
          -12 -177 46 152 46 callgsubr
          hintmask 11101000
          240 -177 rmoveto
          69 84 62 87 19 hvcurveto
          69 327 rlineto
          8 40 5 34 31 vvcurveto
          81 -33 44 -79 -87 -96 -54 -79 -57 vhcurveto
          hintmask 11011000
          -36 callgsubr
          -110 -520 rlineto
          -51 callgsubr
          hintmask 11101000
          92 45 100 69 82 hhcurveto
          56 27 -32 -68 -25 -3 -31 -8 -37 hvcurveto
          -68 -320 rlineto
          -58 -13 -57 -43 -46 hhcurveto
          -25 -26 5 19 -16 hvcurveto
          -34 -33 rlineto
          -27 22 34 -10 40 hhcurveto
          endchar
        </CharString>
        <CharString name="enspace">
          -19 endchar
        </CharString>
        <CharString name="eogonek">
          -35 -155 -21 167 39 210 38 210 41 hstem
          27 51 43 35 295 47 vstem
          172 -176 -28 callgsubr
          26 73 44 vhcurveto
          83 9 80 50 42 71 -42 13 rcurveline
          -64 -36 -78 -41 -67 hhcurveto
          -104 -52 83 98 11 1 12 1 11 hvcurveto
          -4 57 46 -1 43 hhcurveto
          183 89 51 99 91 -78 48 -83 -176 -134 -157 -162 -117 66 -95 116 -7 hvcurveto
          -63 -42 -25 -32 -37 -53 callsubr
          159 664 rmoveto
          60 60 -29 -68 -66 -57 -47 -165 -42 -44 1 4 -55 hvcurveto
          105 29 90 100 124 hhcurveto
          endchar
        </CharString>
        <CharString name="equal">
          -100 208 38 60 38 hstem
          375 208 rmoveto
          38 -298 -38 vlineto
          298 98 rmoveto
          38 -298 -38 vlineto
          endchar
        </CharString>
        <CharString name="estimated">
          49 -10 28 237 29 219 28 hstem
          40 88 353 86 vstem
          303 18 rmoveto
          -71 -63 33 54 -41 hvcurveto
          150 439 vlineto
          152 -108 124 -156 -155 -108 -125 -146 -145 106 -125 157 100 68 36 47 47 vhcurveto
          -18 21 rlineto
          -43 -38 -67 -33 -92 hhcurveto
          485 vmoveto
          70 66 -34 -56 42 hvcurveto
          -129 -353 130 vlineto
          55 41 63 34 71 hhcurveto
          endchar
        </CharString>
        <CharString name="eth">
          11 -10 45 396 43 256 -20 hstemhm
          23 51 394 67 -48 48 hintmask 11110100
          535 713 rmoveto
          -101 -59 -22 27 -28 25 -32 24 rlinecurve
          -70 hlineto
          46 -32 36 -32 29 -32 -119 -69 rcurveline
          12 -25 124 73 rlineto
          62 -78 15 -79 -78 -10 -1 -11 -10 vvcurveto
          75 -17 -67 52 -89 hhcurveto
          -144 -146 -133 -151 -111 79 -89 115 154 164 146 234 84 -22 95 -62 84 hvcurveto
          96 56 rlineto
          -473 -493 rmoveto
          125 120 110 120 vhcurveto
          hintmask 11111000
          91 63 -69 -87 -123 -120 -117 -121 -91 -62 71 90 hvcurveto
          endchar
        </CharString>
        <CharString name="etilde">
          -65 callgsubr
          118 -47 callsubr
          27 51 373 47 hintmask 11110111
          -103 callgsubr
          82 159 -87 callsubr
          hintmask 11111011
          -97 callgsubr
        </CharString>
        <CharString name="exclam">
          -325 21 -21 717 -20 hstem
          127 218 rmoveto
          106 499 -75 callgsubr
          -105 -499 rlineto
          4 -218 rmoveto
          24 102 rlineto
          -53 hlineto
          -22 -102 rlineto
          endchar
        </CharString>
        <CharString name="exclamdown">
          -325 20 -21 717 -20 hstem
          136 498 rmoveto
          -106 -499 -12 callgsubr
          106 499 rlineto
          -4 218 rmoveto
          -24 -102 rlineto
          53 hlineto
          21 102 rlineto
          endchar
        </CharString>
        <CharString name="f">
          -253 -192 -21 692 41 176 44 hstem
          -13 -213 rmoveto
          50 hlineto
          146 692 rlineto
          140 -23 callsubr
          -139 hlineto
          3 18 rlineto
          104 17 52 54 64 28 callsubr
          -37 hhcurveto
          -87 -72 -76 -127 -25 hvcurveto
          -3 -17 9 callgsubr
          endchar
        </CharString>
        <CharString name="f_f">
          -18 -33 callsubr
          163 -23 callsubr
          -163 hlineto
          4 18 rlineto
          73 14 50 84 89 hhcurveto
          42 12 -15 -9 8 hvcurveto
          26 36 rlineto
          6 -9 -17 27 -61 hhcurveto
          -59 -44 -26 -40 -35 44 callsubr
          -62 -87 -86 -19 hvcurveto
          -1 -8 9 callgsubr
          59 41 rmoveto
          2 9 rlineto
          55 13 37 72 38 callsubr
          -37 -9 -48 rrcurveto
          endchar
        </CharString>
        <CharString name="f_f_i">
          112 -33 callsubr
          193 -5 callsubr
          111 520 rlineto
          -243 hlineto
          4 18 rlineto
          73 14 51 84 92 hhcurveto
          42 41 -16 -16 13 hvcurveto
          33 35 rlineto
          12 -14 -46 30 -64 hhcurveto
          -62 -47 -26 -40 -37 44 callsubr
          -64 -91 -82 -17 hvcurveto
          -2 -8 31 callsubr
          59 41 rmoveto
          2 8 rlineto
          55 11 39 73 38 callsubr
          -42 -9 -43 rrcurveto
          endchar
        </CharString>
        <CharString name="f_f_l">
          188 0 40 -25 -21 485 41 136 45 -6 45 hstemhm
          534 54 58 52 hintmask 01110110
          609 -6 rmoveto
          35 46 12 2 1 hvcurveto
          42 vlineto
          hintmask 10101110
          -2 -35 -10 -22 hhcurveto
          -32 -12 23 23 5 1 6 1 5 hvcurveto
          104 493 rlineto
          3 13 1 11 11 vvcurveto
          64 -43 46 -87 -61 -48 -24 -41 -35 vhcurveto
          hintmask 10110110
          12 -19 -25 14 -46 hhcurveto
          -100 -68 -79 -95 -22 hvcurveto
          -2 -7 31 callsubr
          -101 -479 -12 callgsubr
          101 479 rlineto
          166 -5 callsubr
          102 479 rlineto
          108 -23 callsubr
          -108 hlineto
          3 14 rlineto
          hintmask 01101110
          81 17 47 80 87 hhcurveto
          59 25 -36 -44 -9 -1 -10 -2 -9 hvcurveto
          -105 -491 rlineto
          -3 -14 -1 -9 -10 vvcurveto
          -39 23 -30 52 vhcurveto
          -417 526 rmoveto
          2 8 rlineto
          hintmask 10110110
          62 12 48 66 79 hhcurveto
          21 27 -3 -17 17 hvcurveto
          -17 -27 -13 -41 -10 -48 rrcurveto
          endchar
        </CharString>
        <CharString name="f_i">
          -100 21 -21 479 41 175 45 hstem
          32 hmoveto
          50 hlineto
          101 479 rlineto
          193 -5 callsubr
          111 520 rlineto
          -242 hlineto
          3 18 rlineto
          73 15 53 84 86 hhcurveto
          47 38 -15 -17 14 hvcurveto
          33 35 rlineto
          12 -12 -44 30 -69 hhcurveto
          -120 -73 -111 -92 -18 hvcurveto
          -3 -17 9 callgsubr
          endchar
        </CharString>
        <CharString name="f_l">
          -28 -6 46 -19 -21 479 41 175 45 hstemhm
          318 54 59 52 hintmask 10111100
          391 -6 rmoveto
          40 44 12 2 1 hvcurveto
          42 vlineto
          -1 -36 -10 -24 hhcurveto
          -30 -13 23 24 4 1 6 1 5 hvcurveto
          105 493 rlineto
          3 13 1 11 12 vvcurveto
          64 -43 45 -89 -111 -70 -86 -114 -23 vhcurveto
          -4 -20 9 callgsubr
          hintmask 01111100
          -101 -479 -12 callgsubr
          101 479 rlineto
          109 -23 callsubr
          -108 hlineto
          3 16 rlineto
          82 16 50 77 80 hhcurveto
          66 23 -38 -42 -9 -2 -10 -2 -9 hvcurveto
          -105 -494 rlineto
          -3 -12 -1 -9 -9 vvcurveto
          hintmask 10111100
          -39 25 -30 48 vhcurveto
          endchar
        </CharString>
        <CharString name="five">
          -39 -149 46 367 46 214 47 hstem
          391 52 vstem
          158 -149 rmoveto
          143 142 116 161 108 -72 74 15 callgsubr
          -323 hlineto
          -1 -142 -354 -40 -16 hvcurveto
          48 hlineto
          56 48 67 31 63 hhcurveto
          83 56 -59 15 callsubr
          20 70 -56 96 hhcurveto
          endchar
        </CharString>
        <CharString name="five.denominator">
          -206 -5 10 callsubr
          251 36 vstem
          108 -5 rmoveto
          92 87 63 88 61 -48 42 -70 -37 -36 -11 -22 -28 hvcurveto
          63 142 rlineto
          181 hlineto
          8 35 rlineto
          -209 hlineto
          -8 -23 -70 -156 -18 -42 rrcurveto
          34 hlineto
          29 27 43 19 40 hhcurveto
          48 44 -28 -51 -65 -63 -48 -71 -50 -38 24 37 -15 hvcurveto
          -29 -19 rlineto
          -45 15 46 -30 62 hhcurveto
          endchar
        </CharString>
        <CharString name="five.lnum">
          -28 -10 46 368 45 214 47 hstem
          426 52 vstem
          193 -10 rmoveto
          144 141 116 161 107 -72 75 15 callgsubr
          -324 hlineto
          0 -142 -354 -16 -39 vhcurveto
          48 hlineto
          55 48 67 32 63 hhcurveto
          83 56 -60 15 callsubr
          21 69 -56 96 hhcurveto
          endchar
        </CharString>
        <CharString name="five.numerator">
          -206 332 10 callsubr
          322 37 vstem
          240 586 -78 callsubr
          47 -30 61 17 callgsubr
          endchar
        </CharString>
        <CharString name="fiveeighths">
          239 43 callsubr
          107 33 -5 33 164 29 109 35 hstemhm
          326 37 61 -28 callsubr
          hintmask 1110111111000000
          244 586 -78 callsubr
          47 -30 61 17 callgsubr
          -164 -589 -74 callsubr
          492 -25 -37 callsubr
          hintmask 1101111110100000
          -86 callsubr
          hintmask 1101111111000000
          -70 callgsubr
          hintmask 1110111110100000
          -25 callsubr
          endchar
        </CharString>
        <CharString name="fiveinferior">
          -206 -85 10 callsubr
          234 36 vstem
          152 169 rmoveto
          -37 -36 -11 -22 -28 hvcurveto
          63 142 rlineto
          181 hlineto
          8 35 rlineto
          -209 hlineto
          -8 -23 -70 -156 -18 -42 rrcurveto
          34 hlineto
          29 27 43 19 40 hhcurveto
          48 44 -28 -51 -65 -63 -48 -71 -51 -37 24 37 -15 hvcurveto
          -29 -19 rlineto
          -45 15 46 -30 62 hhcurveto
          92 87 63 88 61 -48 42 -70 hvcurveto
          endchar
        </CharString>
        <CharString name="fivesuperior">
          -205 412 10 callsubr
          339 37 vstem
          257 666 -78 callsubr
          46 -30 62 17 callgsubr
          endchar
        </CharString>
        <CharString name="florin">
          -66 -177 46 549 41 237 44 hstem
          33 -177 rmoveto
          69 83 61 87 19 hvcurveto
          95 447 rlineto
          140 -23 callsubr
          -139 hlineto
          16 79 rlineto
          102 22 46 56 65 28 callsubr
          -38 hhcurveto
          -87 -70 -76 -127 -26 hvcurveto
          -16 -78 rlineto
          -71 hlineto
          -8 -41 rlineto
          69 hlineto
          -95 -448 rlineto
          -58 -12 -57 -43 -47 hhcurveto
          -25 -26 5 19 -16 hvcurveto
          -34 -33 rlineto
          -27 22 34 -10 40 hhcurveto
          endchar
        </CharString>
        <CharString name="four">
          -47 -106 -21 186 46 466 -20 hstem
          260 -127 rmoveto
          50 hlineto
          39 186 35 callsubr
          -34 hlineto
          -442 -468 -9 -44 rlineto
          326 hlineto
          -261 46 rmoveto
          357 385 -82 -385 rlineto
          endchar
        </CharString>
        <CharString name="four.denominator">
          -201 21 -21 106 34 253 -20 hstem
          180 hmoveto
          -67 callsubr
          endchar
        </CharString>
        <CharString name="four.lnum">
          -25 21 -21 198 46 466 -20 hstem
          355 hmoveto
          42 198 35 callsubr
          -35 hlineto
          -456 -468 -10 -44 rlineto
          342 hlineto
          -42 -198 rlineto
          -234 244 rmoveto
          372 386 -82 -386 rlineto
          endchar
        </CharString>
        <CharString name="four.numerator">
          -200 358 -21 105 35 253 -20 hstem
          287 337 -43 callgsubr
        </CharString>
        <CharString name="fourinferior">
          -201 -59 -21 106 34 253 -20 hstem
          197 -80 rmoveto
          23 106 rlineto
          54 -1 callsubr
          -54 hlineto
          54 253 rlineto
          -24 hlineto
          -283 -255 -7 -32 rlineto
          218 hlineto
          -22 -106 rlineto
          73 342 rmoveto
          -43 -202 rlineto
          -179 hlineto
          endchar
        </CharString>
        <CharString name="foursuperior">
          -200 438 -21 105 35 253 -20 hstem
          304 417 -43 callgsubr
        </CharString>
        <CharString name="fraction">
          -423 18 -21 716 -20 hstem
          -243 -3 29 callsubr
        </CharString>
        <CharString name="franc">
          28 21 -21 140 42 156 44 282 46 hstem
          104 hmoveto
          30 140 rlineto
          139 hlineto
          8 42 rlineto
          -138 hlineto
          33 156 -8 callsubr
          -112 -528 rlineto
          -88 hlineto
          -8 -42 rlineto
          87 hlineto
          -30 -140 rlineto
          endchar
        </CharString>
        <CharString name="g">
          -54 callsubr
          hstemhm
          26 52 hintmask 11011000
          -13 callgsubr
          hintmask 11101000
          -103 callsubr
          endchar
        </CharString>
        <CharString name="gacute">
          -54 callsubr
          230 -20 hstemhm
          26 52 hintmask 11011100
          424 730 -89 callsubr
          -157 -852 -76 callsubr
          hintmask 11101100
          -103 callsubr
          endchar
        </CharString>
        <CharString name="gbreve">
          -54 callsubr
          138 -8 callgsubr
          26 52 hintmask 11011010
          -13 callgsubr
          hintmask 11101010
          -103 callsubr
          116 631 -52 callsubr
          hintmask 11100110
          -98 callsubr
          hintmask 11101010
          -61 callgsubr
        </CharString>
        <CharString name="gcircumflex">
          -54 callsubr
          230 -20 hstemhm
          26 52 hintmask 11011100
          270 632 -99 callsubr
          -79 -872 -76 callsubr
          hintmask 11101100
          -103 callsubr
          endchar
        </CharString>
        <CharString name="gcommaaccent">
          -54 callsubr
          236 -20 hstemhm
          26 52 hintmask 11011100
          365 736 rmoveto
          -35 -68 -14 -70 rlineto
          48 hlineto
          15 70 rlineto
          -16 hlineto
          29 68 rlineto
          -227 -959 -76 callsubr
          hintmask 11101100
          -103 callsubr
          endchar
        </CharString>
        <CharString name="gdotaccent">
          -54 callsubr
          230 -20 hstemhm
          26 52 hintmask 11011100
          -13 callgsubr
          hintmask 11101100
          -103 callsubr
          139 605 -92 callsubr
          endchar
        </CharString>
        <CharString name="germandbls">
          -37 -6 46 -19 -21 377 47 245 45 hstemhm
          418 52 -27 27 -27 51 hintmask 10110100
          160 -6 rmoveto
          187 7 123 90 156 vvcurveto
          78 -40 60 -77 18 vhcurveto
          hintmask 01110010
          70 16 71 81 82 vvcurveto
          77 -58 55 -87 -109 -94 -82 -119 -25 vhcurveto
          -109 -513 rlineto
          48 hlineto
          108 506 rlineto
          94 20 63 69 86 hhcurveto
          62 44 -39 -61 -81 -71 -64 -83 hvcurveto
          -17 hlineto
          -10 -47 rlineto
          18 hlineto
          hintmask 10111000
          86 52 -53 -82 -128 -97 -71 -151 -3 hvcurveto
          endchar
        </CharString>
        <CharString name="grave">
          -360 -3 callsubr
          122 629 -77 callsubr
        </CharString>
        <CharString name="greater">
          -21 14 -21 531 -20 hstem
          495 273 rmoveto
          -419 251 rlineto
          -54 vlineto
          346 -211 -346 -211 rlineto
          -55 vlineto
          419 250 rlineto
          endchar
        </CharString>
        <CharString name="greaterequal">
          -89 70 43 418 -20 hstem
          72 70 rmoveto
          314 43 -314 hlineto
          7 78 rmoveto
          307 155 rlineto
          30 vlineto
          -313 155 6 -49 235 -120 -235 -120 rlineto
          endchar
        </CharString>
        <CharString name="guillemotleft">
          -32 -27 callgsubr
          188 -30 rmoveto
          196 -172 9 45 -160 143 221 144 10 45 -270 -175 rlineto
          endchar
        </CharString>
        <CharString name="guillemotright">
          -32 92 -21 377 -20 hstem
          484 273 rmoveto
          -196 175 -9 -45 160 -144 -221 -143 -9 -45 268 172 rlineto
          -188 30 -11 callsubr
        </CharString>
        <CharString name="guilsinglleft">
          -227 -27 callgsubr
          endchar
        </CharString>
        <CharString name="guilsinglright">
          -227 92 -21 377 -20 hstem
          289 273 -11 callsubr
        </CharString>
        <CharString name="h">
          -12 21 -9 callsubr
          12 callsubr
          439 53 vstem
          12 hmoveto
          -66 callsubr
          -16 callgsubr
          71 334 -77 callgsubr
          endchar
        </CharString>
        <CharString name="hbar">
          -12 21 -9 callsubr
          90 36 75 -20 hstem
          439 53 vstem
          74 619 rmoveto
          69 hlineto
          -131 -619 rlineto
          26 callsubr
          43 96 69 79 hhcurveto
          60 31 -37 -73 -24 -3 -27 -7 -32 -29 callsubr
          35 3 32 28 vvcurveto
          -16 callgsubr
          47 223 rlineto
          110 hlineto
          8 36 rlineto
          -110 hlineto
          16 75 -77 callgsubr
          -16 -75 rlineto
          -70 hlineto
          endchar
        </CharString>
        <CharString name="hcircumflex">
          -12 21 -9 callsubr
          -46 247 hstemhm
          439 53 hintmask 10110000
          305 632 rmoveto
          91 63 66 -63 32 17 -72 81 rlineto
          -36 hlineto
          -106 -81 rlineto
          -268 -649 rmoveto
          -66 callsubr
          hintmask 11010000
          -16 callgsubr
          hintmask 10110000
          71 334 -77 callgsubr
          endchar
        </CharString>
        <CharString name="hdotbelow">
          -12 36 callgsubr
          483 46 12 callsubr
          439 53 vstem
          12 hmoveto
          -66 callsubr
          -16 callgsubr
          71 334 -77 callgsubr
          43 -881 -92 callsubr
          endchar
        </CharString>
        <CharString name="hungarumlaut">
          -262 -3 callsubr
          167 730 -64 callsubr
          endchar
        </CharString>
        <CharString name="hyphen">
          -159 249 46 hstem
          328 249 rmoveto
          10 46 rlineto
          -274 -31 callgsubr
          endchar
        </CharString>
        <CharString name="i">
          -21 callgsubr
          12 hmoveto
          -72 callsubr
          26 118 rmoveto
          50 hlineto
          19 48 callsubr
          endchar
        </CharString>
        <CharString name="iacute">
          -21 callgsubr
          272 730 -89 callsubr
          -158 -629 rmoveto
          -72 callsubr
          endchar
        </CharString>
        <CharString name="ibreve">
          -49 callgsubr
          138 -8 callgsubr
          hintmask 11100000
          12 hmoveto
          -72 callsubr
          47 146 -52 callsubr
          hintmask 11010000
          -98 callsubr
          hintmask 11100000
          -61 callgsubr
        </CharString>
        <CharString name="icircumflex">
          -21 callgsubr
          90 632 -99 callsubr
          -52 -649 rmoveto
          -72 callsubr
          endchar
        </CharString>
        <CharString name="idblgrave">
          -21 callgsubr
          221 629 -88 callsubr
          -40 -730 rmoveto
          -72 callsubr
          endchar
        </CharString>
        <CharString name="idieresis">
          -49 callgsubr
          140 88 hstem
          127 640 -94 callgsubr
          -203 -640 rmoveto
          -72 callsubr
          endchar
        </CharString>
        <CharString name="idotbelow">
          -363 36 callgsubr
          520 -20 230 -20 hstem
          12 hmoveto
          -72 callsubr
          26 118 rmoveto
          50 hlineto
          19 48 callsubr
          -140 -881 -92 callsubr
          endchar
        </CharString>
        <CharString name="igrave">
          -21 callgsubr
          12 hmoveto
          -72 callsubr
          32 109 -77 callsubr
        </CharString>
        <CharString name="iinvertedbreve">
          -49 callgsubr
          138 -9 callgsubr
          hintmask 11100000
          88 638 rmoveto
          32 hlineto
          hintmask 11010000
          -78 callgsubr
          hintmask 11100000
          -95 callsubr
          -76 -638 rmoveto
          -72 callsubr
          endchar
        </CharString>
        <CharString name="ij">
          -154 -177 46 152 -41 callsubr
          138 92 hstem
          12 hmoveto
          -72 callsubr
          26 118 rmoveto
          50 hlineto
          19 48 callsubr
          -75 -907 rmoveto
          70 83 62 87 19 hvcurveto
          116 548 -77 callgsubr
          -117 -550 rlineto
          -58 -12 -57 -43 -47 hhcurveto
          -25 -26 5 19 -16 hvcurveto
          -34 -33 rlineto
          -27 22 34 -10 40 hhcurveto
          263 815 rmoveto
          50 hlineto
          20 48 callsubr
          endchar
        </CharString>
        <CharString name="imacron">
          -49 callgsubr
          171 37 hstem
          12 hmoveto
          -72 callsubr
          185 151 -70 callsubr
          endchar
        </CharString>
        <CharString name="infinity">
          132 186 42 246 43 hstem
          57 42 515 42 vstem
          211 517 rmoveto
          -87 -67 -74 -91 -91 71 -75 83 81 39 52 59 28 hvcurveto
          -59 29 39 -52 74 hhcurveto
          88 67 74 91 91 -60 75 -94 -78 -37 -53 -61 -30 hvcurveto
          61 -30 -38 53 -78 hhcurveto
          -289 vmoveto
          -53 -59 41 83 84 59 38 53 67 32 -56 -68 30 hvcurveto
          -66 -30 -33 -56 -66 hhcurveto
          291 hmoveto
          -64 -33 54 64 -29 hvcurveto
          69 28 30 59 68 hhcurveto
          54 58 -38 -84 -83 -58 -41 -54 hvcurveto
          endchar
        </CharString>
        <CharString name="integral">
          -281 -167 41 905 41 hstemhm
          103 46 -24 45 -24 45 hintmask 11010000
          144 -19 rmoveto
          hintmask 11001000
          2 -29 0 -3 -3 vvcurveto
          -47 -23 -25 -34 -17 -25 8 8 -20 vhcurveto
          -13 -36 rlineto
          -12 26 37 -9 25 hhcurveto
          55 34 36 63 4 0 3 -2 36 hvcurveto
          -38 694 rlineto
          hintmask 11100000
          -2 33 0 5 7 vvcurveto
          42 22 23 35 15 30 -8 -8 18 vhcurveto
          13 36 rlineto
          12 -26 -38 9 -26 hhcurveto
          -55 -34 -39 -53 -6 1 -8 2 -37 hvcurveto
          endchar
        </CharString>
        <CharString name="iogonek">
          -362 -148 -21 190 -41 callsubr
          230 -20 hstem
          -71 35 vstem
          13 hmoveto
          9 hlineto
          -66 -43 -27 -48 callsubr
          110 520 -77 callgsubr
          26 118 rmoveto
          50 hlineto
          19 48 callsubr
          endchar
        </CharString>
        <CharString name="itilde">
          -49 callgsubr
          147 -47 callsubr
          hintmask 11101000
          12 hmoveto
          -72 callsubr
          102 127 -87 callsubr
          hintmask 11110000
          -97 callgsubr
        </CharString>
        <CharString name="j">
          -355 -177 46 651 -20 230 -20 hstem
          -109 -177 rmoveto
          70 83 62 87 19 hvcurveto
          116 548 -77 callgsubr
          -117 -550 rlineto
          -58 -12 -57 -43 -47 hhcurveto
          -25 -26 5 19 -16 hvcurveto
          -34 -33 rlineto
          -27 22 34 -10 40 hhcurveto
          263 815 rmoveto
          50 hlineto
          20 48 callsubr
          endchar
        </CharString>
        <CharString name="j.alt">
          -363 -192 -21 932 -20 hstem
          -33 -213 rmoveto
          50 hlineto
          155 730 -77 callgsubr
          26 121 rmoveto
          50 hlineto
          17 81 -77 callgsubr
          endchar
        </CharString>
        <CharString name="jcircumflex">
          -363 -177 46 651 -20 230 -48 callgsubr
          202 809 -66 callgsubr
        </CharString>
        <CharString name="k">
          -34 21 -21 489 42 199 -20 hstem
          464 48 vstem
          12 hmoveto
          -60 callsubr
        </CharString>
        <CharString name="kcommaaccent">
          -34 36 callsubr
          489 42 199 -20 hstem
          464 48 vstem
          167 -89 callgsubr
          -128 187 rmoveto
          -60 callsubr
        </CharString>
        <CharString name="kgreenlandic">
          -65 21 -21 519 0 callsubr
          hintmask 11000000
          12 hmoveto
          50 hlineto
          35 165 139 113 133 -278 rlineto
          55 hlineto
          -148 308 251 211 rlineto
          -58 hlineto
          -360 -299 rlineto
          hintmask 10100000
          63 300 -77 callgsubr
          endchar
        </CharString>
        <CharString name="l">
          -315 -6 10 callgsubr
          103 -6 rmoveto
          23 39 7 9 23 hvcurveto
          40 vlineto
          -6 -17 -23 -4 -14 hhcurveto
          -32 -17 17 28 6 1 5 1 7 hvcurveto
          133 627 -77 callgsubr
          -136 -642 rlineto
          -2 -9 -1 -9 -7 vvcurveto
          -43 27 -26 45 vhcurveto
          endchar
        </CharString>
        <CharString name="l.alt">
          -349 21 -21 730 -20 hstem
          18 hmoveto
          50 hlineto
          155 730 -77 callgsubr
          endchar
        </CharString>
        <CharString name="lacute">
          -315 -6 46 690 -20 166 -20 hstem
          31 54 vstem
          303 876 -89 callsubr
          -98 -781 rmoveto
          23 39 7 9 23 hvcurveto
          40 vlineto
          -6 -17 -23 -4 -14 hhcurveto
          -32 -17 17 28 6 1 5 1 7 hvcurveto
          133 627 -77 callgsubr
          -136 -642 rlineto
          -2 -9 -1 -9 -7 vvcurveto
          -43 27 -26 45 vhcurveto
          endchar
        </CharString>
        <CharString name="lcaron">
          -323 -6 10 callgsubr
          287 -37 callgsubr
          -153 -651 rmoveto
          23 39 7 9 23 hvcurveto
          40 vlineto
          -6 -17 -23 -4 -14 hhcurveto
          -32 -17 17 28 6 1 5 1 7 hvcurveto
          133 627 -77 callgsubr
          -136 -642 rlineto
          -2 -9 -1 -9 -7 vvcurveto
          -43 27 -26 45 vhcurveto
          endchar
        </CharString>
        <CharString name="lcommaaccent">
          -315 -166 -21 181 10 callgsubr
          62 -89 callgsubr
          68 181 rmoveto
          23 39 7 9 23 hvcurveto
          40 vlineto
          -6 -17 -23 -4 -14 hhcurveto
          -32 -17 17 28 6 1 5 1 7 hvcurveto
          133 627 -77 callgsubr
          -136 -642 rlineto
          -2 -9 -1 -9 -7 vvcurveto
          -43 27 -26 45 vhcurveto
          endchar
        </CharString>
        <CharString name="ldot">
          -287 -6 10 callgsubr
          103 -6 rmoveto
          23 39 7 9 23 hvcurveto
          40 vlineto
          -6 -17 -23 -4 -14 hhcurveto
          -32 -17 17 28 6 1 5 1 7 hvcurveto
          133 627 -77 callgsubr
          -136 -642 rlineto
          -2 -9 -1 -9 -7 vvcurveto
          -43 27 -26 45 vhcurveto
          152 265 -17 callgsubr
        </CharString>
        <CharString name="less">
          -20 14 -21 531 -20 hstem
          31 243 rmoveto
          418 -250 rlineto
          55 vlineto
          -346 211 346 211 rlineto
          54 vlineto
          -418 -251 rlineto
          endchar
        </CharString>
        <CharString name="lessequal">
          -106 70 43 418 -20 hstem
          372 70 rmoveto
          43 -314 -43 vlineto
          276 vmoveto
          307 -155 rlineto
          51 vlineto
          -234 120 234 120 rlineto
          49 vlineto
          -307 -155 rlineto
          endchar
        </CharString>
        <CharString name="lira">
          -107 -15 45 -23 23 -23 42 203 34 63 34 289 43 hstemhm
          123 48 hintmask 01011110
          58 349 rmoveto
          103 hlineto
          4 -19 3 -19 -25 vvcurveto
          -101 hlineto
          -7 -34 rlineto
          105 hlineto
          -9 -65 -39 -49 -122 -108 7 -37 rcurveline
          8 32 40 6 29 hhcurveto
          hintmask 10011110
          58 36 -22 56 hhcurveto
          34 37 8 16 37 hvcurveto
          hintmask 00111110
          -4 40 rlineto
          hintmask 10011110
          -13 -39 -28 -6 -25 hhcurveto
          hintmask 00111110
          -48 -30 19 -55 hhcurveto
          -23 -24 -3 -5 -24 hvcurveto
          109 100 34 52 8 59 rrcurveto
          146 -1 callsubr
          -150 hlineto
          28 -2 18 -3 17 vhcurveto
          158 -1 callsubr
          -173 hlineto
          -13 48 -18 43 45 vvcurveto
          83 73 70 75 53 46 -36 -57 18 38 callgsubr
          -103 -91 -108 -46 17 -42 13 -45 hvcurveto
          -88 hlineto
          endchar
        </CharString>
        <CharString name="logicalnot">
          -10 152 -21 177 46 hstem
          89 354 rmoveto
          -10 -46 rlineto
          362 hlineto
          -38 -177 rlineto
          44 hlineto
          48 223 rlineto
          endchar
        </CharString>
        <CharString name="lozenge">
          -73 21 -21 730 -20 hstem
          231 730 rmoveto
          -186 -364 186 -366 rlineto
          55 hlineto
          186 366 -186 364 rlineto
          -21 -687 rmoveto
          -166 332 157 314 166 -335 rlineto
          endchar
        </CharString>
        <CharString name="lslash">
          -298 -6 46 690 -20 hstem
          48 54 vstem
          31 295 rmoveto
          76 56 -56 -263 rlineto
          -2 -9 -1 -9 -8 vvcurveto
          -42 26 -26 46 23 39 7 9 24 vhcurveto
          40 vlineto
          -6 -18 -24 -4 -14 hhcurveto
          -31 -17 17 28 7 1 9 3 10 hvcurveto
          60 285 126 94 -14 30 -102 -77 61 287 -77 callgsubr
          -70 -332 -99 -74 rlineto
          endchar
        </CharString>
        <CharString name="m">
          310 21 -9 callsubr
          -9 -20 hstemhm
          423 54 284 54 hintmask 11011000
          12 hmoveto
          -51 callgsubr
          96 47 80 65 81 hhcurveto
          57 28 -33 -69 -25 -3 -30 -8 -36 -4 callgsubr
          67 321 rlineto
          96 46 81 66 80 hhcurveto
          58 28 -34 -70 -25 -3 -30 -7 -34 hvcurveto
          -62 -39 callgsubr
          64 -14 callgsubr
          38 4 34 29 vvcurveto
          82 -34 47 -80 -83 -86 -50 -94 -55 vhcurveto
          91 -37 53 -81 -78 -81 -50 -83 -58 vhcurveto
          hintmask 10111000
          -36 callgsubr
          endchar
        </CharString>
        <CharString name="macron">
          -192 671 37 hstem
          334 671 -70 callsubr
          endchar
        </CharString>
        <CharString name="minus">
          -15 265 42 hstem
          473 265 rmoveto
          42 -403 -42 vlineto
          endchar
        </CharString>
        <CharString name="mu">
          27 27 callsubr
          -25 -71 callgsubr
        </CharString>
        <CharString name="multiply">
          -99 134 -21 318 -20 hstem
          257 271 rmoveto
          126 127 -32 33 -126 -127 -126 126 -33 -32 126 -127 -126 -125 32 -33 127 126 126 -126 33 32 rlineto
          endchar
        </CharString>
        <CharString name="n">
          -12 21 46 callgsubr
          hintmask 11010000
          12 hmoveto
          50 hlineto
          68 322 rlineto
          -96 callsubr
          hintmask 10110000
          -36 callgsubr
          endchar
        </CharString>
        <CharString name="nacute">
          -50 callgsubr
          464 730 -89 callsubr
          -350 -629 rmoveto
          50 hlineto
          68 322 rlineto
          -96 callsubr
          hintmask 10111000
          -36 callgsubr
          endchar
        </CharString>
        <CharString name="napostrophe">
          -50 callgsubr
          -1 30 callsubr
          43 -645 rmoveto
          50 hlineto
          68 322 rlineto
          -96 callsubr
          hintmask 10111000
          -36 callgsubr
          endchar
        </CharString>
        <CharString name="ncaron">
          -50 callgsubr
          327 632 -91 callgsubr
          -240 -713 rmoveto
          50 hlineto
          68 322 rlineto
          -96 callsubr
          hintmask 10111000
          -36 callgsubr
          endchar
        </CharString>
        <CharString name="ncommaaccent">
          -12 -166 -21 208 46 callgsubr
          hintmask 11101000
          180 -89 callgsubr
          -141 187 rmoveto
          50 hlineto
          68 322 rlineto
          -96 callsubr
          hintmask 11011000
          -36 callgsubr
          endchar
        </CharString>
        <CharString name="ndotaccent">
          -50 callgsubr
          370 640 -92 callsubr
          -312 -640 rmoveto
          50 hlineto
          68 322 rlineto
          -96 callsubr
          hintmask 10111000
          -36 callgsubr
          endchar
        </CharString>
        <CharString name="nine">
          5 -155 45 195 43 397 45 hstem
          38 49 385 49 vstem
          173 -155 rmoveto
          207 141 244 263 135 -74 83 -115 -151 -143 -133 -154 -111 74 -87 111 95 94 55 89 46 hvcurveto
          -205 -41 -107 -134 -127 hhcurveto
          -75 -55 48 72 -10 hvcurveto
          -40 -27 rlineto
          -86 16 64 -52 90 hhcurveto
          65 283 rmoveto
          -89 -62 73 91 125 118 108 116 89 62 -73 -91 -123 -117 -110 -117 hvcurveto
          endchar
        </CharString>
        <CharString name="nine.denominator">
          -176 -5 33 100 31 205 32 hstem
          23 36 240 34 vstem
          119 -5 rmoveto
          23 callsubr
          -63 50 -49 74 55 57 29 42 29 hvcurveto
          16 callgsubr
          43 -27 58 hhcurveto
          38 164 rmoveto
          -57 -41 39 49 62 69 55 72 57 42 -40 -48 -62 -70 -55 -72 hvcurveto
          endchar
        </CharString>
        <CharString name="nine.lnum">
          21 -10 46 194 43 398 44 hstem
          75 51 385 48 vstem
          75 428 rmoveto
          -110 75 -88 111 90 92 58 86 47 vhcurveto
          -215 -47 -104 -123 -118 hhcurveto
          -74 -56 47 72 -10 hvcurveto
          -40 -27 rlineto
          -85 16 65 -53 89 hhcurveto
          207 141 245 262 135 -73 83 -116 -151 -144 -132 -155 hvcurveto
          285 243 rmoveto
          89 62 -74 -91 -123 -119 -110 -116 -89 -61 74 91 124 117 109 117 hvcurveto
          endchar
        </CharString>
        <CharString name="nine.numerator">
          -176 328 33 100 32 204 33 hstem
          94 35 241 34 vstem
          94 574 rmoveto
          -63 51 -50 73 55 58 30 42 27 vhcurveto
          -109 -24 -63 -63 -74 hhcurveto
          -48 -36 25 37 -8 hvcurveto
          -28 -21 rlineto
          -46 12 44 -28 56 hhcurveto
          128 47 callsubr
          -89 -71 -85 hvcurveto
          177 123 rmoveto
          57 42 -40 -48 -62 -70 -54 -72 -57 -42 39 49 62 70 54 72 hvcurveto
          endchar
        </CharString>
        <CharString name="nineinferior">
          -175 -85 33 100 31 205 32 hstem
          6 36 240 34 vstem
          6 160 rmoveto
          -63 50 -49 74 55 57 29 42 29 vhcurveto
          16 callgsubr
          44 -27 57 hhcurveto
          23 callsubr
          hvcurveto
          177 124 rmoveto
          57 42 -40 -48 -62 -70 -55 -72 -57 -41 39 49 62 69 55 72 hvcurveto
          endchar
        </CharString>
        <CharString name="ninesuperior">
          -176 408 33 100 32 204 33 hstem
          111 35 240 34 vstem
          111 654 rmoveto
          -63 50 -50 74 54 58 30 42 28 vhcurveto
          -109 -24 -64 -63 -73 hhcurveto
          -48 -36 25 37 -9 hvcurveto
          -27 -21 rlineto
          -46 12 43 -28 57 hhcurveto
          127 47 callsubr
          -88 -71 -85 hvcurveto
          176 123 rmoveto
          19 callgsubr
          -54 -71 -58 -41 39 49 62 70 54 71 hvcurveto
          endchar
        </CharString>
        <CharString name="notequal">
          -96 118 -21 111 38 60 38 111 -20 hstem
          78 306 rmoveto
          147 hlineto
          -35 -60 rlineto
          -112 -38 90 hlineto
          -60 -102 31 -9 65 111 rlineto
          173 38 -150 hlineto
          35 60 rlineto
          115 38 -92 hlineto
          59 101 -31 10 -65 -111 rlineto
          -170 hlineto
          endchar
        </CharString>
        <CharString name="ntilde">
          -12 21 -9 callsubr
          -9 -20 147 -47 callsubr
          440 54 hintmask 11011010
          12 hmoveto
          50 hlineto
          68 322 rlineto
          -96 callsubr
          hintmask 10110110
          -36 callgsubr
          279 127 -87 callsubr
          hintmask 11011010
          -97 callgsubr
        </CharString>
        <CharString name="numbersign">
          77 21 -21 212 41 213 39 -39 244 hstemhm
          hintmask 11100000
          647 505 rmoveto
          -110 22 callsubr
          -196 22 callsubr
          -135 hlineto
          -9 -39 rlineto
          125 hlineto
          -92 -213 rlineto
          -118 hlineto
          -9 -41 rlineto
          107 hlineto
          -94 -212 rlineto
          44 hlineto
          93 212 rlineto
          196 hlineto
          -95 -212 rlineto
          44 hlineto
          93 212 rlineto
          138 hlineto
          8 41 rlineto
          -127 hlineto
          93 213 rlineto
          119 hlineto
          -450 -213 rmoveto
          93 213 rlineto
          195 hlineto
          -93 -213 rlineto
          endchar
        </CharString>
        <CharString name="o">
          -23 callgsubr
          27 callgsubr
          -81 callsubr
          endchar
        </CharString>
        <CharString name="oacute">
          5 -45 callsubr
          -40 callgsubr
          vstem
          452 730 -89 callsubr
          -132 -639 -105 callsubr
          endchar
        </CharString>
        <CharString name="obreve">
          -23 callgsubr
          109 28 -28 92 20 callsubr
          hintmask 11101100
          -81 callsubr
          129 631 -52 callsubr
          hintmask 11011100
          -98 callsubr
          hintmask 11101100
          -61 callgsubr
        </CharString>
        <CharString name="ocircumflex">
          5 -45 callsubr
          -40 callgsubr
          vstem
          275 632 -99 callsubr
          -31 -659 -105 callsubr
          endchar
        </CharString>
        <CharString name="odblgrave">
          -23 callgsubr
          -45 246 20 callsubr
          hintmask 10111000
          419 629 -88 callsubr
          -32 -740 -62 callsubr
        </CharString>
        <CharString name="odieresis">
          -23 callgsubr
          111 88 27 callgsubr
          310 640 -94 callgsubr
          -180 -650 -105 callsubr
          endchar
        </CharString>
        <CharString name="odotbelow">
          5 1 callgsubr
          141 -46 callgsubr
          27 callgsubr
          212 -50 callsubr
          52 141 -105 callsubr
          endchar
        </CharString>
        <CharString name="oe">
          427 -10 40 210 37 207 45 hstem
          12 callgsubr
          40 396 47 vstem
          217 -10 rmoveto
          97 98 68 107 60 hvcurveto
          -104 16 75 -71 99 hhcurveto
          89 97 52 76 48 hvcurveto
          -41 12 rlineto
          -59 -35 -75 -41 -72 hhcurveto
          -95 -65 75 100 12 1 11 2 12 hvcurveto
          431 hlineto
          3 8 6 16 44 vvcurveto
          134 -70 87 -119 -105 -95 -66 -110 -56 vhcurveto
          107 -9 -69 69 -99 hhcurveto
          -157 -151 -149 -175 -121 76 -94 115 hvcurveto
          10 45 rmoveto
          -90 -59 76 100 146 124 127 122 90 59 -79 -101 -145 -122 -124 -124 hvcurveto
          295 242 rmoveto
          122 32 99 89 104 hhcurveto
          92 60 -69 -101 -14 -1 -13 -2 -14 hvcurveto
          endchar
        </CharString>
        <CharString name="ogonek">
          -348 -148 -21 185 -20 hstem
          27 35 vstem
          78 14 callsubr
          -15 16 rlineto
          -86 -52 -33 -35 -42 -53 callsubr
          endchar
        </CharString>
        <CharString name="ograve">
          5 -45 callsubr
          -40 callgsubr
          vstem
          -81 callsubr
          136 594 -77 callsubr
        </CharString>
        <CharString name="ohungarumlaut">
          -23 callgsubr
          -45 246 20 callsubr
          hintmask 10111000
          377 730 -64 callsubr
          -171 -639 -62 callsubr
        </CharString>
        <CharString name="oinvertedbreve">
          -23 callgsubr
          109 92 -28 28 20 callsubr
          hintmask 11101100
          274 638 rmoveto
          32 hlineto
          hintmask 11011100
          -78 callgsubr
          hintmask 11101100
          -95 callsubr
          -56 -648 -105 callsubr
          endchar
        </CharString>
        <CharString name="omacron">
          -23 callgsubr
          142 37 27 callgsubr
          497 671 -70 callsubr
          -7 -681 -105 callsubr
          endchar
        </CharString>
        <CharString name="one">
          -175 0 46 380 50 95 -20 hstem
          2 hmoveto
          307 hlineto
          10 46 rlineto
          -121 hlineto
          111 525 -75 callgsubr
          -9 -6 -107 -86 -63 hhcurveto
          -10 -50 rlineto
          51 94 51 31 28 hvcurveto
          -98 -462 rlineto
          -135 hlineto
          endchar
        </CharString>
        <CharString name="one.denominator">
          -302 0 34 365 -20 hstem
          -16 hmoveto
          196 -1 callsubr
          -77 hlineto
          -18 callsubr
          endchar
        </CharString>
        <CharString name="one.lnum">
          -189 0 46 528 47 98 -20 hstem
          -1 hmoveto
          298 hlineto
          10 46 rlineto
          -120 hlineto
          143 673 -75 callgsubr
          -4 -3 -100 -94 -67 hhcurveto
          -10 -47 rlineto
          51 89 55 31 27 hvcurveto
          -130 -614 rlineto
          -127 hlineto
          endchar
        </CharString>
        <CharString name="one.numerator">
          -311 332 35 364 -20 hstem
          175 367 -38 callgsubr
        </CharString>
        <CharString name="oneeighth">
          230 43 callsubr
          107 35 -7 33 338 -20 hstemhm
          417 -28 callsubr
          hintmask 1110111100000000
          61 -3 -74 callsubr
          146 346 -87 callgsubr
          286 -371 -37 callsubr
          hintmask 1101111010000000
          -86 callsubr
          hintmask 1101111100000000
          -70 callgsubr
          hintmask 1110111010000000
          -25 callsubr
          endchar
        </CharString>
        <CharString name="onehalf">
          231 0 34 -16 -21 335 35 -3 34 333 -20 hstemhm
          714 40 hintmask 10011100
          407 hmoveto
          285 hlineto
          8 34 rlineto
          -234 hlineto
          8 38 24 56 94 32 rrcurveto
          85 29 77 27 42 callsubr
          -76 -92 -60 -57 -10 -10 vhcurveto
          19 -25 rlineto
          23 23 44 35 65 hhcurveto
          57 25 -30 -37 -75 -84 -17 -67 -25 hvcurveto
          -84 -31 -50 -47 -22 -102 rrcurveto
          hintmask 01101100
          -359 -3 -74 callsubr
          161 346 -38 callgsubr
        </CharString>
        <CharString name="oneinferior">
          -301 -80 34 365 -20 hstem
          93 -46 rmoveto
          -18 callsubr
          -7 -34 rlineto
          196 -1 callsubr
          endchar
        </CharString>
        <CharString name="onequarter">
          194 18 -21 24 -21 106 34 192 35 364 -20 hstemhm
          hintmask 01111000
          569 hmoveto
          -67 callsubr
          hintmask 10111000
          -523 -143 rmoveto
          673 693 -23 23 rlineto
          hintmask 01111000
          -673 -692 rlineto
          hintmask 10111000
          129 346 -38 callgsubr
        </CharString>
        <CharString name="onesuperior">
          -311 412 35 364 -20 hstem
          192 447 -38 callgsubr
        </CharString>
        <CharString name="onethird">
          231 -5 35 155 32 115 35 -1 32 333 -20 hstemhm
          417 37 callgsubr
          hintmask 11101110
          51 -3 -74 callsubr
          158 346 -87 callgsubr
          285 -372 -22 callsubr
          hintmask 11011101
          -80 callgsubr
          hintmask 11101110
          -43 callsubr
        </CharString>
        <CharString name="oogonek">
          5 -155 -21 166 -46 callgsubr
          hstem
          26 52 40 35 320 51 vstem
          169 -176 -28 callgsubr
          26 74 44 vhcurveto
          146 19 128 144 155 vvcurveto
          120 -74 99 -117 -158 -149 -153 -169 -115 68 -96 112 -6 vhcurveto
          -63 -42 -25 -31 -37 -53 callsubr
          58 211 rmoveto
          -89 -60 78 100 143 126 128 119 89 61 -80 -101 -142 -125 -126 -121 hvcurveto
          endchar
        </CharString>
        <CharString name="ordfeminine">
          -154 348 38 145 32 111 36 hstem
          76 47 226 48 vstem
          168 348 rmoveto
          55 55 23 42 40 hvcurveto
          -1 -7 0 -6 -5 vvcurveto
          -28 8 -13 38 vhcurveto
          9 43 rlineto
          -8 1 -5 4 8 vvcurveto
          2 0 3 1 2 vhcurveto
          33 153 rlineto
          3 14 1 13 13 vvcurveto
          64 -42 36 -72 -43 -45 -15 -31 -51 vhcurveto
          10 -31 rlineto
          27 45 39 14 34 hhcurveto
          49 28 -28 -44 -8 -1 -9 -2 -9 hvcurveto
          -6 -31 rlineto
          12 -26 -35 6 -36 hhcurveto
          -92 -75 -52 -73 -51 37 -39 55 hvcurveto
          20 38 rmoveto
          -39 -26 27 34 51 52 33 69 32 31 -4 -13 26 hvcurveto
          -12 -55 rlineto
          -40 -9 -69 -33 -55 hhcurveto
          endchar
        </CharString>
        <CharString name="ordmasculine">
          -133 348 37 286 39 hstem
          88 43 262 44 vstem
          223 348 rmoveto
          114 100 104 110 82 -53 66 -84 -112 -100 -103 -112 -80 50 -67 85 hvcurveto
          8 37 rmoveto
          -59 -41 50 65 93 82 78 79 60 41 -50 -65 -91 -82 -80 -80 hvcurveto
          endchar
        </CharString>
        <CharString name="oslash">
          5 40 callsubr
          -8 -20 20 callsubr
          hintmask 01101100
          36 -1 rmoveto
          38 hlineto
          28 30 rlineto
          hintmask 10011100
          -20 callgsubr
          hintmask 01101100
          5 callgsubr
          hintmask 10101100
          -59 callgsubr
          endchar
        </CharString>
        <CharString name="oslashacute">
          5 40 callsubr
          -8 -20 229 -20 20 callsubr
          hintmask 01101110
          36 -1 rmoveto
          38 hlineto
          28 30 rlineto
          hintmask 10011110
          -20 callgsubr
          hintmask 01101110
          5 callgsubr
          hintmask 10101110
          -59 callgsubr
          374 517 -46 callsubr
        </CharString>
        <CharString name="otilde">
          -23 callgsubr
          118 35 5 35 8 -20 20 callsubr
          hintmask 11101110
          -81 callsubr
          184 612 -87 callsubr
          hintmask 11110110
          -97 callgsubr
        </CharString>
        <CharString name="p">
          23 34 callgsubr
          490 52 hintmask 11101000
          -33 -213 rmoveto
          11 callgsubr
          rlineto
          -68 25 57 -54 84 hhcurveto
          158 132 158 161 115 -68 105 -117 -75 -82 -47 -66 -54 hvcurveto
          hintmask 11011000
          22 104 rlineto
          -45 hlineto
          127 -485 rmoveto
          -78 -58 61 77 -16 hvcurveto
          37 171 rlineto
          hintmask 11101000
          74 25 109 66 68 hhcurveto
          93 60 -84 -98 -127 -109 -140 -131 hvcurveto
          endchar
        </CharString>
        <CharString name="paragraph">
          1 -59 -21 317 42 390 41 hstem
          64 45 vstem
          64 424 rmoveto
          -114 76 -70 133 -3 vhcurveto
          -67 -317 rlineto
          44 hlineto
          68 317 rlineto
          76 hlineto
          -68 -317 rlineto
          44 hlineto
          160 749 rlineto
          66 -23 callsubr
          -216 hlineto
          -198 -127 -115 -171 hvcurveto
          45 10 rmoveto
          136 94 98 162 1 vhcurveto
          -83 -390 rlineto
          -97 5 -76 46 104 vvcurveto
          293 -155 rmoveto
          -75 hlineto
          83 390 rlineto
          75 hlineto
          endchar
        </CharString>
        <CharString name="parenleft">
          -314 -12 -21 767 -20 hstem
          46 48 vstem
          46 258 rmoveto
          -92 23 -109 39 -90 vhcurveto
          41 22 rlineto
          -36 85 -19 109 83 vvcurveto
          161 126 187 84 100 vhcurveto
          -34 20 rlineto
          -123 -157 -101 -141 -178 vvcurveto
          endchar
        </CharString>
        <CharString name="parenright">
          -314 -12 -21 767 -20 hstem
          175 49 vstem
          224 433 rmoveto
          99 -26 109 -34 93 vhcurveto
          -43 -20 rlineto
          28 -65 26 -123 -102 vvcurveto
          -144 -85 -148 -122 -143 vhcurveto
          33 -22 rlineto
          134 157 89 146 163 vvcurveto
          endchar
        </CharString>
        <CharString name="partialdiff">
          2 -10 45 356 43 236 45 hstemhm
          34 48 367 72 -48 48 hintmask 11110100
          253 -10 rmoveto
          159 109 140 269 224 -75 92 -145 -77 -74 -26 -52 -44 hvcurveto
          29 -30 rlineto
          37 30 64 26 68 hhcurveto
          107 69 -64 -190 -36 -3 -54 -5 -32 hvcurveto
          89 -21 -75 51 -89 hhcurveto
          -133 -113 -112 -127 -114 91 -91 128 hvcurveto
          45 vmoveto
          -100 -71 73 90 104 94 89 104 hvcurveto
          hintmask 11111000
          95 74 -73 -87 -88 -75 -108 -121 hvcurveto
          endchar
        </CharString>
        <CharString name="percent">
          108 34 callsubr
          99 40 173 39 -8 40 173 39 hintmask 11111011
          211 437 rmoveto
          87 85 77 89 66 -45 51 -67 -87 -85 -77 -90 -65 45 -51 67 hvcurveto
          7 32 rmoveto
          -47 -32 39 50 66 62 64 63 45 34 -39 -50 -67 -62 -63 -63 hvcurveto
          206 -479 rmoveto
          87 84 77 90 65 -45 51 -66 hvcurveto
          hintmask 11111101
          -86 -86 -77 -89 -66 46 -51 66 hvcurveto
          6 32 rmoveto
          -47 -32 39 50 67 63 63 63 45 34 -40 -50 -66 -63 -63 -63 hvcurveto
          -408 24 callsubr
        </CharString>
        <CharString name="period">
          -387 21 -21 85 -20 hstem
          48 hmoveto
          18 85 rlineto
          -43 hlineto
          -19 -85 rlineto
          endchar
        </CharString>
        <CharString name="periodcentered">
          -390 269 -21 101 -20 hstem
          97 248 -17 callgsubr
        </CharString>
        <CharString name="perthousand">
          431 34 callsubr
          105 40 173 39 -8 40 173 39 45 40 204 39 hintmask 1111101111000000
          219 437 rmoveto
          84 86 77 90 65 -45 51 -68 -85 -86 -77 -91 -64 45 -51 69 hvcurveto
          7 32 rmoveto
          -48 -33 39 49 67 63 64 60 47 34 -39 -49 -68 -62 -63 -61 hvcurveto
          206 -479 rmoveto
          84 85 77 90 65 -44 51 -69 hvcurveto
          hintmask 1111110111000000
          -84 -86 -77 -90 -65 45 -51 69 hvcurveto
          6 32 rmoveto
          -49 -32 39 49 68 63 63 61 48 33 -40 -48 -68 -63 -63 -61 hvcurveto
          322 -32 rmoveto
          84 85 77 90 65 -44 51 -68 -85 -86 -77 -90 -66 45 -50 69 hvcurveto
          6 32 rmoveto
          -48 -32 39 49 68 62 63 61 48 33 -40 -49 -67 -62 -63 -62 hvcurveto
          -738 24 callsubr
        </CharString>
        <CharString name="pi">
          89 -6 46 -19 -21 474 46 hstemhm
          135 49 217 49 hintmask 10111000
          493 -6 rmoveto
          23 39 7 9 23 hvcurveto
          -11 40 rlineto
          -6 -17 -22 -4 -15 hhcurveto
          -39 -24 24 39 hvcurveto
          371 110 46 -505 -46 80 vlineto
          hintmask 01111000
          -474 49 474 217 -386 vlineto
          hintmask 10111000
          -57 37 -37 55 vhcurveto
          endchar
        </CharString>
        <CharString name="plus">
          -151 214 -21 141 42 141 -20 hstem
          193 46 vstem
          239 376 rmoveto
          141 -46 -141 -131 -42 131 -141 46 141 130 42 vlineto
          endchar
        </CharString>
        <CharString name="plusminus">
          -80 70 43 226 43 144 -20 hstem
          205 47 vstem
          385 70 rmoveto
          43 -314 -43 vlineto
          181 312 rmoveto
          144 -47 -144 -134 -43 134 -144 47 144 133 43 vlineto
          endchar
        </CharString>
        <CharString name="product">
          151 -69 -21 754 46 hstem
          160 49 336 49 vstem
          545 -90 rmoveto
          49 754 80 46 -600 -46 86 -754 49 754 336 hlineto
          endchar
        </CharString>
        <CharString name="q">
          22 -212 247 -225 -21 201 42 callgsubr
          26 52 hintmask 01110100
          202 -10 rmoveto
          76 75 42 80 67 hvcurveto
          -57 -271 rlineto
          -1 -4 -1 -4 -4 vvcurveto
          hintmask 10010100
          -29 24 -12 29 vhcurveto
          hintmask 01101100
          3 2 1 3 hhcurveto
          9 44 rlineto
          -11 1 -5 5 10 vvcurveto
          3 1 3 1 4 vhcurveto
          140 661 rlineto
          -46 hlineto
          -22 -105 rlineto
          hintmask 01110100
          4 callsubr
          hvcurveto
          22 45 29 callgsubr
          56 -64 -75 7 hvcurveto
          -38 -176 rlineto
          -72 -50 -75 -62 -83 hhcurveto
          endchar
        </CharString>
        <CharString name="q.alt">
          22 34 callgsubr
          26 52 hintmask 11011000
          351 -213 rmoveto
          50 hlineto
          156 733 rlineto
          -46 hlineto
          -22 -105 rlineto
          hintmask 11101000
          4 callsubr
          76 75 42 80 67 hvcurveto
          -196 -77 29 callgsubr
          60 -66 -69 4 hvcurveto
          -39 -180 rlineto
          -72 -50 -75 -62 -83 hhcurveto
          endchar
        </CharString>
        <CharString name="question">
          -109 21 -21 676 43 hstem
          422 47 vstem
          175 193 rmoveto
          22 105 43 29 49 22 rrcurveto
          90 41 90 42 138 vvcurveto
          99 -69 50 -80 -81 -92 -46 -83 -53 vhcurveto
          32 -22 rlineto
          63 42 72 45 70 hhcurveto
          61 51 -37 -75 -129 -103 -28 -70 -37 hvcurveto
          -59 -31 -37 -43 -22 -103 rrcurveto
          4 -193 rmoveto
          20 98 rlineto
          -43 hlineto
          -21 -98 rlineto
          endchar
        </CharString>
        <CharString name="questiondown">
          -114 -213 43 676 -20 hstem
          -37 47 vstem
          257 313 rmoveto
          -22 -105 -43 -29 -49 -22 rrcurveto
          -90 -41 -90 -42 -138 vvcurveto
          -99 69 -50 80 81 92 46 83 53 vhcurveto
          -32 22 rlineto
          -63 -42 -72 -45 -70 hhcurveto
          -61 -51 37 75 129 103 28 70 37 hvcurveto
          59 31 37 43 22 103 rrcurveto
          -4 193 rmoveto
          -20 -98 rlineto
          43 hlineto
          21 98 rlineto
          endchar
        </CharString>
        <CharString name="quotedbl">
          -305 540 174 hstem
          162 540 rmoveto
          38 174 rlineto
          -45 hlineto
          -37 -174 rlineto
          121 hmoveto
          37 174 rlineto
          -45 hlineto
          -37 -174 rlineto
          endchar
        </CharString>
        <CharString name="quotedblbase">
          -229 -72 -21 114 -21 92 -20 hstem
          40 -93 rmoveto
          39 93 20 92 -75 callgsubr
          -20 -92 rlineto
          19 hlineto
          -34 -93 rlineto
          124 hmoveto
          40 93 17 callsubr
          -34 -93 rlineto
          endchar
        </CharString>
        <CharString name="quotedblleft">
          -282 26 callgsubr
          175 730 rmoveto
          -19 callgsubr
          73 hmoveto
          -19 callgsubr
          endchar
        </CharString>
        <CharString name="quotedblright">
          -287 26 callgsubr
          145 540 rmoveto
          41 98 17 callsubr
          -35 -98 rlineto
          127 hmoveto
          41 98 17 callsubr
          -34 -98 rlineto
          endchar
        </CharString>
        <CharString name="quoteleft">
          -383 26 callgsubr
          175 730 rmoveto
          -19 callgsubr
          endchar
        </CharString>
        <CharString name="quoteright">
          -387 26 callgsubr
          145 540 rmoveto
          41 99 20 91 rlineto
          -52 hlineto
          -19 -91 rlineto
          18 hlineto
          -35 -99 rlineto
          endchar
        </CharString>
        <CharString name="quotesinglbase">
          -327 -72 -21 114 -21 92 -20 hstem
          40 -93 rmoveto
          39 93 20 92 -75 callgsubr
          -20 -92 rlineto
          19 hlineto
          -34 -93 rlineto
          endchar
        </CharString>
        <CharString name="quotesingle">
          -382 560 -21 175 -20 hstem
          162 539 rmoveto
          38 175 rlineto
          -45 hlineto
          -37 -175 rlineto
          endchar
        </CharString>
        <CharString name="r">
          -24 callgsubr
          hstemhm
          hintmask 11000000
          12 hmoveto
          11 callgsubr
          46 91 82 56 89 3 rlinecurve
          hintmask 10100000
          -19 callsubr
          hintmask 11000000
          1 -4 -5 0 -5 hhcurveto
          -68 -79 -49 -80 -55 hvcurveto
          hintmask 10100000
          28 128 rlineto
          -48 hlineto
          endchar
        </CharString>
        <CharString name="racute">
          -24 callgsubr
          230 -20 hstemhm
          hintmask 11010000
          344 730 -89 callsubr
          -230 -629 rmoveto
          11 callgsubr
          46 91 82 56 89 3 rlinecurve
          hintmask 10110000
          -19 callsubr
          hintmask 11010000
          1 -4 -5 0 -5 hhcurveto
          -68 -79 -49 -80 -55 hvcurveto
          hintmask 10110000
          28 128 rlineto
          -48 hlineto
          endchar
        </CharString>
        <CharString name="radical">
          -169 21 -21 326 39 425 -20 hstem
          21 326 rmoveto
          81 hlineto
          92 -326 rlineto
          59 hlineto
          143 790 rlineto
          -49 hlineto
          -123 -741 -80 316 rlineto
          -123 hlineto
          endchar
        </CharString>
        <CharString name="rcaron">
          -24 callgsubr
          230 -20 hstemhm
          hintmask 11010000
          228 632 -91 callgsubr
          -141 -713 rmoveto
          11 callgsubr
          46 91 82 56 89 3 rlinecurve
          hintmask 10110000
          -19 callsubr
          hintmask 11010000
          1 -4 -5 0 -5 hhcurveto
          -68 -79 -49 -80 -55 hvcurveto
          hintmask 10110000
          28 128 rlineto
          -48 hlineto
          endchar
        </CharString>
        <CharString name="rcommaaccent">
          -231 -166 -21 208 20 callgsubr
          hstemhm
          hintmask 11100000
          -3 -89 callgsubr
          42 187 rmoveto
          11 callgsubr
          46 91 82 56 89 3 rlinecurve
          hintmask 11010000
          -19 callsubr
          hintmask 11100000
          1 -4 -5 0 -5 hhcurveto
          -68 -79 -49 -80 -55 hvcurveto
          hintmask 11010000
          28 128 rlineto
          -48 hlineto
          endchar
        </CharString>
        <CharString name="rdblgrave">
          -24 callgsubr
          230 -20 hstemhm
          hintmask 11010000
          312 629 -88 callsubr
          -131 -730 rmoveto
          11 callgsubr
          46 91 82 56 89 3 rlinecurve
          hintmask 10110000
          -19 callsubr
          hintmask 11010000
          1 -4 -5 0 -5 hhcurveto
          -68 -79 -49 -80 -55 hvcurveto
          hintmask 10110000
          28 128 rlineto
          -48 hlineto
          endchar
        </CharString>
        <CharString name="rdotbelow">
          -231 -130 -21 172 20 callgsubr
          hstemhm
          hintmask 11100000
          12 hmoveto
          11 callgsubr
          46 91 82 56 89 3 rlinecurve
          hintmask 11010000
          -19 callsubr
          hintmask 11100000
          1 -4 -5 0 -5 hhcurveto
          -68 -79 -49 -80 -55 hvcurveto
          hintmask 11010000
          28 128 rlineto
          -48 hlineto
          -94 -671 -92 callsubr
          endchar
        </CharString>
        <CharString name="registered">
          278 -7 28 104 209 -36 36 209 38 106 28 hstemhm
          67 30 185 41 242 40 162 31 hintmask 1101111110000000
          432 -7 rmoveto
          209 33 callgsubr
          -209 -210 33 callsubr
          210 hvcurveto
          28 vmoveto
          -194 -141 143 191 189 142 143 193 193 142 -143 -189 -200 -146 -134 -189 hvcurveto
          -150 104 rmoveto
          41 hlineto
          hintmask 1011111110000000
          173 131 vlineto
          hintmask 1101111110000000
          110 -173 rlineto
          46 hlineto
          -114 178 rlineto
          65 9 44 60 67 vvcurveto
          70 -56 72 -77 vhcurveto
          -190 hlineto
          41 -247 rmoveto
          209 146 vlineto
          56 40 -45 -59 -57 -32 -48 -60 hvcurveto
          endchar
        </CharString>
        <CharString name="ring">
          -332 605 23 79 23 hstem
          63 27 79 26 vstem
          63 656 -88 callgsubr
          endchar
        </CharString>
        <CharString name="rinvertedbreve">
          -24 callgsubr
          140 -9 callgsubr
          hintmask 11010000
          167 640 rmoveto
          32 hlineto
          hintmask 11001000
          -78 callgsubr
          hintmask 11010000
          -95 callsubr
          -155 -640 rmoveto
          11 callgsubr
          46 91 82 56 89 3 rlinecurve
          hintmask 10110000
          -19 callsubr
          hintmask 11010000
          1 -4 -5 0 -5 hhcurveto
          -68 -79 -49 -80 -55 hvcurveto
          hintmask 10110000
          28 128 rlineto
          -48 hlineto
          endchar
        </CharString>
        <CharString name="s">
          -103 -10 7 callgsubr
          167 -10 -101 callgsubr
          endchar
        </CharString>
        <CharString name="s_t">
          193 -10 40 -15 -21 495 31 9 -20 209 31 hstemhm
          62 48 238 50 -22 22 102 53 61 51 hintmask 1010110111000000
          172 -10 rmoveto
          103 123 54 118 hvcurveto
          176 -288 -121 152 vvcurveto
          87 84 33 78 46 51 -12 -48 28 vhcurveto
          33 28 rlineto
          -7 17 -18 46 58 vvcurveto
          70 28 70 110 51 20 -15 -51 -30 -7 -42 -12 -60 vhcurveto
          -70 hlineto
          -9 -41 rlineto
          70 hlineto
          -82 -383 rlineto
          -2 -11 -2 -11 -11 vvcurveto
          hintmask 0110110111000000
          -44 35 -25 48 47 50 25 6 12 vhcurveto
          -6 40 rlineto
          -4 -7 -38 -20 -35 hhcurveto
          -30 -23 14 31 3 1 4 1 6 hvcurveto
          81 380 rlineto
          114 -23 callsubr
          -114 hlineto
          10 58 10 45 36 vvcurveto
          60 -25 30 -82 -141 -41 -89 -78 -31 7 -25 5 -28 vhcurveto
          hintmask 1001111011000000
          21 -26 -40 10 -44 hhcurveto
          -98 -118 -52 -122 hvcurveto
          -175 286 113 -142 vvcurveto
          -84 -92 -37 -75 -62 -54 24 48 -44 vhcurveto
          -31 -34 rlineto
          -43 36 64 -35 82 hhcurveto
          endchar
        </CharString>
        <CharString name="sacute">
          -25 callgsubr
          393 730 -89 callsubr
          -124 -639 -101 callgsubr
          endchar
        </CharString>
        <CharString name="scaron">
          -25 callgsubr
          281 632 -91 callgsubr
          -39 -723 -101 callgsubr
          endchar
        </CharString>
        <CharString name="schwa">
          -8 -10 40 211 37 210 41 hstem
          13 50 397 52 vstem
          207 -10 rmoveto
          160 145 150 168 123 -75 98 -118 -93 -96 -55 -73 -44 hvcurveto
          41 -12 rlineto
          58 37 75 41 69 hhcurveto
          90 62 -72 -100 -12 -1 -13 -2 -13 hvcurveto
          -432 hlineto
          -9 -24 -3 -33 -25 vvcurveto
          -118 75 -88 119 vhcurveto
          9 40 rmoveto
          -92 -61 69 102 13 1 13 2 14 hvcurveto
          384 hlineto
          -121 -32 -99 -90 -103 hhcurveto
          endchar
        </CharString>
        <CharString name="scircumflex">
          -25 callgsubr
          231 632 -99 callsubr
          -38 -659 -101 callgsubr
          endchar
        </CharString>
        <CharString name="sdotbelow">
          -103 1 callgsubr
          141 7 callgsubr
          167 -10 -101 callgsubr
          -5 -141 -92 callsubr
          endchar
        </CharString>
        <CharString name="section">
          -83 -88 48 433 43 233 46 hstemhm
          76 48 -28 51 194 54 -23 49 hintmask 11101010
          366 190 rmoveto
          29 25 26 48 49 vvcurveto
          90 -79 32 -80 2 vhcurveto
          -67 2 -48 22 64 vvcurveto
          90 89 55 74 47 54 -13 -47 14 vhcurveto
          44 18 rlineto
          49 -22 -38 39 -91 hhcurveto
          -99 -123 -77 -121 -38 11 -34 19 -15 hvcurveto
          hintmask 11110100
          -24 -24 -26 -45 -50 vvcurveto
          -83 64 -41 89 -4 vhcurveto
          54 -3 58 -11 -65 vvcurveto
          -90 -92 -54 -74 -56 -42 23 48 -37 vhcurveto
          -40 -31 rlineto
          -43 30 50 -45 86 hhcurveto
          94 135 68 137 33 -10 26 -19 14 hvcurveto
          -242 121 rmoveto
          41 22 38 23 20 vhcurveto
          -11 22 31 -6 33 hhcurveto
          hintmask 11110010
          53 64 -22 -67 -38 -22 -40 -28 -21 hvcurveto
          -58 27 -140 -30 109 vvcurveto
          endchar
        </CharString>
        <CharString name="semicolon">
          -385 -60 -21 100 -21 519 -20 hstem
          137 432 rmoveto
          19 85 rlineto
          -44 hlineto
          -18 -85 rlineto
          -79 -513 rmoveto
          36 79 19 87 -77 callgsubr
          -19 -87 rlineto
          18 hlineto
          -31 -79 rlineto
          endchar
        </CharString>
        <CharString name="servicemark">
          102 424 34 223 29 5 -20 hstemhm
          132 39 103 40 hintmask 11011000
          504 515 rmoveto
          -46 195 rlineto
          -49 hlineto
          -60 -283 rlineto
          38 hlineto
          47 16 callsubr
          60 283 -77 callgsubr
          -297 -29 rmoveto
          hintmask 10111000
          23 -19 -27 11 -37 hhcurveto
          -68 -52 -36 -60 -40 36 -14 45 -13 hvcurveto
          38 -11 23 -10 -24 vvcurveto
          -33 -29 -16 -44 -41 -30 14 24 -17 vhcurveto
          -24 -29 rlineto
          -29 25 34 -14 44 hhcurveto
          71 51 31 62 41 -34 16 -43 12 hvcurveto
          -40 11 -26 10 22 vvcurveto
          hintmask 11011000
          31 22 21 52 30 23 -11 -20 12 vhcurveto
          endchar
        </CharString>
        <CharString name="seven">
          -51 -106 -21 663 47 hstem
          1 -127 rmoveto
          57 hlineto
          494 710 rlineto
          -458 hlineto
          -10 -47 rlineto
          377 hlineto
          endchar
        </CharString>
        <CharString name="seven.denominator">
          -234 21 -21 358 35 hstem
          -5 hmoveto
          -51 callsubr
        </CharString>
        <CharString name="seven.lnum">
          -78 21 -21 663 47 hstem
          16 hmoveto
          56 hlineto
          495 710 rlineto
          -458 hlineto
          -9 -47 rlineto
          376 hlineto
          endchar
        </CharString>
        <CharString name="seven.numerator">
          -234 358 -21 358 35 hstem
          66 337 rmoveto
          -51 callsubr
        </CharString>
        <CharString name="seveneighths">
          225 43 callsubr
          135 33 302 35 hstemhm
          412 -28 callsubr
          hintmask 11111110
          20 -3 -74 callsubr
          540 -25 -37 callsubr
          hintmask 11111101
          -86 callsubr
          hintmask 11111110
          -70 callgsubr
          hintmask 11111101
          -25 callsubr
          -504 112 rmoveto
          -51 callsubr
        </CharString>
        <CharString name="seveninferior">
          -233 -59 -21 358 35 hstem
          -22 -80 rmoveto
          -51 callsubr
        </CharString>
        <CharString name="sevensuperior">
          -233 438 -21 358 35 hstem
          84 417 rmoveto
          39 hlineto
          304 393 rlineto
          -295 hlineto
          -7 -35 rlineto
          240 hlineto
          endchar
        </CharString>
        <CharString name="six">
          -32 callgsubr
          -94 -94 -55 -89 -47 hvcurveto
          205 41 107 134 127 -60 callgsubr
        </CharString>
        <CharString name="six.denominator">
          -176 -5 32 205 31 100 33 hstem
          11 33 241 34 vstem
          135 -5 rmoveto
          96 88 71 85 63 -49 49 -74 -54 -58 -29 -43 -28 hvcurveto
          -30 callgsubr
          hvcurveto
          9 32 5 callsubr
        </CharString>
        <CharString name="six.lnum">
          -32 callgsubr
          -90 -91 -58 -86 -48 hvcurveto
          215 47 105 124 117 -60 callgsubr
        </CharString>
        <CharString name="six.numerator">
          -176 328 33 205 30 101 33 hstem
          81 34 241 35 vstem
          391 485 -58 callsubr
          69 55 73 19 callgsubr
          -55 -72 hvcurveto
          endchar
        </CharString>
        <CharString name="sixinferior">
          -177 -85 32 205 31 100 33 hstem
          -6 33 241 34 vstem
          302 71 rmoveto
          63 -49 49 -74 -54 -58 -29 -43 -28 vhcurveto
          -30 callgsubr
          96 88 71 85 hvcurveto
          -175 -124 5 callsubr
        </CharString>
        <CharString name="sixsuperior">
          -176 408 33 205 30 101 33 hstem
          98 34 241 35 vstem
          408 565 -58 callsubr
          70 55 72 19 callgsubr
          -55 -72 hvcurveto
          endchar
        </CharString>
        <CharString name="slash">
          10 -2 callgsubr
          569 710 rmoveto
          -595 -710 rlineto
          57 hlineto
          595 710 rlineto
          endchar
        </CharString>
        <CharString name="space">
          -313 endchar
        </CharString>
        <CharString name="sterling">
          -98 -15 45 -23 23 -23 42 280 41 302 43 hstemhm
          126 48 -2 46 hintmask 01011010
          58 329 rmoveto
          111 hlineto
          2 -13 1 -13 -13 vvcurveto
          -84 -26 -46 -148 -130 vhcurveto
          7 -37 rlineto
          8 32 41 6 28 hhcurveto
          hintmask 10011100
          59 35 -22 56 hhcurveto
          34 37 8 16 37 hvcurveto
          hintmask 00111100
          -4 40 rlineto
          hintmask 10011100
          -13 -39 -28 -6 -25 hhcurveto
          hintmask 00111010
          -47 -31 19 -55 hhcurveto
          -23 -24 -3 -5 -23 hvcurveto
          134 123 19 51 80 vvcurveto
          11 -1 12 -1 11 vhcurveto
          152 -23 callsubr
          -169 hlineto
          hintmask 10011100
          -13 54 -21 47 48 vvcurveto
          83 73 70 75 53 46 -36 -57 19 38 callgsubr
          -104 -91 -108 -50 20 -45 14 -51 hvcurveto
          -94 hlineto
          endchar
        </CharString>
        <CharString name="summation">
          21 0 49 618 43 hstem
          507 710 rmoveto
          -427 -37 hlineto
          224 -309 -229 -323 rlineto
          -41 447 49 -385 4 vlineto
          223 316 -214 294 rlineto
          4 361 vlineto
          endchar
        </CharString>
        <CharString name="t">
          -258 -6 7 callsubr
          129 -6 -90 callgsubr
        </CharString>
        <CharString name="t.alt">
          -271 21 -21 474 46 179 -20 hstem
          34 hmoveto
          51 hlineto
          101 474 rlineto
          118 hlineto
          10 46 rlineto
          -118 hlineto
          38 179 -75 callgsubr
          -38 -179 rlineto
          -72 -31 callgsubr
          72 hlineto
          endchar
        </CharString>
        <CharString name="tbar">
          -257 -6 47 278 36 124 41 178 -20 hstem
          49 54 vstem
          31 319 rmoveto
          69 hlineto
          -49 -232 rlineto
          -1 -2 callsubr
          34 -25 47 52 47 22 9 12 vhcurveto
          -6 40 rlineto
          -4 -7 -37 -20 -38 hhcurveto
          -29 -21 15 32 9 2 12 4 20 hvcurveto
          40 190 rlineto
          117 hlineto
          7 36 rlineto
          -116 hlineto
          27 124 rlineto
          116 hlineto
          8 41 rlineto
          -115 hlineto
          38 178 -77 callgsubr
          -38 -178 31 callsubr
          -27 -124 rlineto
          -68 hlineto
          endchar
        </CharString>
        <CharString name="tcaron">
          -258 -6 47 438 41 210 -20 hstem
          48 54 vstem
          312 -37 callgsubr
          -152 -651 -90 callgsubr
        </CharString>
        <CharString name="tdotbelow">
          -258 1 callgsubr
          145 7 callsubr
          115 -50 callsubr
          60 145 -90 callgsubr
        </CharString>
        <CharString name="thorn">
          13 -192 -21 199 47 451 46 180 -20 hstem
          482 52 vstem
          -33 -213 rmoveto
          51 hlineto
          63 300 rlineto
          -56 22 48 -45 86 hhcurveto
          174 123 183 152 107 -60 102 -121 -81 -65 -47 -62 -55 hvcurveto
          62 289 -75 callgsubr
          85 -677 rmoveto
          -80 -71 56 67 4 0 4 2 7 hvcurveto
          38 180 rlineto
          72 50 73 61 80 hhcurveto
          92 50 -77 -98 -147 -113 -129 -121 hvcurveto
          endchar
        </CharString>
        <CharString name="three">
          -61 -147 46 314 44 273 46 hstem
          358 52 6 54 vstem
          149 -147 rmoveto
          146 115 100 139 75 -40 58 -68 11 hvcurveto
          96 14 72 83 95 vvcurveto
          87 -63 61 -100 -91 -89 -48 -72 -45 vhcurveto
          28 -28 rlineto
          62 41 68 40 74 hhcurveto
          74 49 -43 -69 -94 -72 -67 -118 hvcurveto
          -25 hlineto
          -9 -44 rlineto
          23 hlineto
          93 50 -49 -76 -114 -82 -75 -117 -84 -52 41 63 -12 hvcurveto
          -42 -30 rlineto
          -74 17 68 -46 95 hhcurveto
          endchar
        </CharString>
        <CharString name="three.denominator">
          -193 -5 35 155 32 149 32 hstemhm
          -10 37 callgsubr
          hintmask 11111000
          116 -5 -22 callsubr
          hintmask 11110100
          -80 callgsubr
          hintmask 11111000
          -43 callsubr
        </CharString>
        <CharString name="three.lnum">
          -7 -9 47 301 45 289 46 hstemhm
          17 38 377 52 0 54 hintmask 11110100
          210 -9 rmoveto
          137 137 92 131 73 -44 60 -74 16 hvcurveto
          111 27 61 70 91 vvcurveto
          99 -73 69 -111 -93 -95 -46 -74 -49 vhcurveto
          30 -32 rlineto
          62 37 77 44 81 hhcurveto
          86 56 -49 -80 -101 -89 -59 -146 hvcurveto
          -33 hlineto
          -9 -45 rlineto
          32 hlineto
          hintmask 11111000
          121 72 -49 -81 -97 -102 -74 -112 -99 -64 57 92 hvcurveto
          -38 -23 rlineto
          -110 79 -63 114 vhcurveto
          endchar
        </CharString>
        <CharString name="three.numerator">
          -194 327 32 callgsubr
          60 28 237 35 -9 38 hintmask 11111000
          186 -10 callgsubr
          hintmask 11110100
          -68 callgsubr
          hintmask 11111000
          -42 callgsubr
          endchar
        </CharString>
        <CharString name="threeeighths">
          236 43 callsubr
          102 36 -3 33 125 32 148 33 hstemhm
          65 28 237 35 -9 38 26 -28 callsubr
          hintmask 1110111101110000
          191 -10 callgsubr
          hintmask 1110111011110000
          -68 callgsubr
          hintmask 1110111101110000
          -42 callgsubr
          -107 -330 -74 callsubr
          484 -25 -37 callsubr
          hintmask 1101111101101000
          -86 callsubr
          hintmask 1101111101110000
          -70 callgsubr
          hintmask 1110111101101000
          -25 callsubr
          endchar
        </CharString>
        <CharString name="threeinferior">
          -193 -85 35 155 32 149 32 hstemhm
          -27 37 callgsubr
          hintmask 11111000
          99 -85 -22 callsubr
          hintmask 11110100
          -80 callgsubr
          hintmask 11111000
          77 48 -26 -43 -50 -61 -36 -70 -68 -38 35 42 hvcurveto
          -27 -20 rlineto
          -68 63 -24 63 vhcurveto
          endchar
        </CharString>
        <CharString name="threequarters">
          207 18 -21 24 -21 106 34 187 32 callgsubr
          63 28 237 35 -9 38 hintmask 0111111100000000
          189 -10 callgsubr
          hintmask 0111111010000000
          -68 callgsubr
          hintmask 0111111100000000
          -42 callgsubr
          389 -327 rmoveto
          -67 callsubr
          hintmask 1011111100000000
          -499 -143 rmoveto
          673 693 -23 23 rlineto
          hintmask 0111111100000000
          -673 -692 rlineto
          endchar
        </CharString>
        <CharString name="threesuperior">
          -194 407 32 callgsubr
          105 237 0 35 -9 38 hintmask 11101000
          205 407 rmoveto
          86 86 49 75 42 -29 33 -48 9 hvcurveto
          hintmask 11110100
          69 14 37 37 51 vvcurveto
          55 -48 39 -74 -59 -60 -25 -39 -30 vhcurveto
          19 -26 rlineto
          34 25 46 23 52 hhcurveto
          53 38 -26 -41 -52 -55 -29 -90 hvcurveto
          -22 hlineto
          -6 -32 rlineto
          21 hlineto
          78 48 -26 -43 -50 -62 -36 -69 -70 -36 34 43 hvcurveto
          -28 -21 rlineto
          -54 6 44 -38 78 hhcurveto
          endchar
        </CharString>
        <CharString name="tilde">
          -186 647 35 -22 -21 48 -14 callsubr
          hintmask 10010000
          247 647 -87 callsubr
          hintmask 01100000
          -47 -13 40 -52 hhcurveto
          -68 -28 -72 -11 -3 hvcurveto
          34 hlineto
          5 1 15 43 42 hhcurveto
          hintmask 10100000
          39 16 -40 57 hhcurveto
          endchar
        </CharString>
        <CharString name="trademark">
          106 448 -21 247 38 -2 -20 hstemhm
          hintmask 11000000
          361 712 rmoveto
          -217 hlineto
          -8 -38 rlineto
          90 hlineto
          -53 -247 rlineto
          38 hlineto
          52 247 rlineto
          90 hlineto
          -8 -247 rmoveto
          37 hlineto
          48 16 callsubr
          hintmask 10100000
          60 283 -77 callgsubr
          -129 -195 -45 195 rlineto
          -49 hlineto
          endchar
        </CharString>
        <CharString name="two">
          -71 0 46 489 46 hstem
          411 55 vstem
          -13 hmoveto
          395 hlineto
          10 46 rlineto
          -337 hlineto
          17 54 71 95 107 46 rrcurveto
          126 55 90 46 110 vvcurveto
          68 -51 61 -100 -114 -90 -84 -11 -12 vhcurveto
          26 -35 rlineto
          21 21 66 63 86 hhcurveto
          78 35 -48 -47 -85 -79 -35 -131 -58 hvcurveto
          -158 -70 -40 -117 -16 -75 rrcurveto
          endchar
        </CharString>
        <CharString name="two.denominator">
          -196 0 34 330 34 hstem
          286 40 vstem
          -26 hmoveto
          289 hlineto
          8 34 rlineto
          -237 8 callsubr
          86 29 78 27 -39 callsubr
        </CharString>
        <CharString name="two.lnum">
          -17 0 46 626 47 hstem
          491 56 vstem
          -15 hmoveto
          448 hlineto
          9 46 rlineto
          -385 hlineto
          15 84 42 94 168 67 rrcurveto
          113 45 152 57 163 vvcurveto
          87 -53 76 -116 -147 -100 -110 -14 -12 vhcurveto
          27 -31 rlineto
          40 36 77 68 103 hhcurveto
          91 38 -58 -66 -150 -141 -29 -110 -46 hvcurveto
          -129 -55 -93 -83 -33 -185 rrcurveto
          endchar
        </CharString>
        <CharString name="two.numerator">
          -197 333 34 330 34 hstem
          357 40 vstem
          331 333 rmoveto
          7 34 rlineto
          -233 8 callsubr
          84 27 80 29 42 callsubr
          -78 -32 callsubr
        </CharString>
        <CharString name="twoinferior">
          -196 -80 34 330 34 hstem
          269 40 vstem
          246 -80 rmoveto
          8 34 rlineto
          -237 8 callsubr
          84 28 80 28 -39 callsubr
        </CharString>
        <CharString name="twosuperior">
          -197 413 34 330 34 hstem
          374 40 vstem
          348 413 rmoveto
          7 34 rlineto
          -233 8 callsubr
          82 27 82 28 90 vvcurveto
          52 -36 41 -77 -32 callsubr
        </CharString>
        <CharString name="twothirds">
          246 -5 35 155 32 116 34 -1 32 299 34 hstemhm
          356 40 35 37 callgsubr
          hintmask 1110111100000000
          331 333 rmoveto
          7 34 rlineto
          -230 hlineto
          8 38 23 56 95 32 rrcurveto
          83 28 79 28 42 callsubr
          -76 -92 -61 -57 -10 -9 vhcurveto
          19 -24 rlineto
          22 22 45 35 64 hhcurveto
          57 26 -31 -36 -75 -84 -17 -68 -26 hvcurveto
          -83 -31 -50 -47 -22 -101 rrcurveto
          54 -336 -74 callsubr
          477 -26 -22 callsubr
          hintmask 1101111010000000
          -80 callgsubr
          hintmask 1110111100000000
          -43 callsubr
        </CharString>
        <CharString name="u">
          -63 callgsubr
          hstemhm
          41 52 hintmask 10110000
          -57 callgsubr
          hintmask 01110000
          -19 12 -16 21 6 7 0 1 9 vhcurveto
          -19 callsubr
          -11 -6 5 11 3 3 11 2 10 hvcurveto
          92 435 -77 callgsubr
          -69 -328 rlineto
          hintmask 10110000
          -79 callgsubr
        </CharString>
        <CharString name="u.alt">
          -5 -10 45 -14 -41 callsubr
          hstemhm
          41 52 hintmask 10110000
          167 -10 rmoveto
          82 91 51 80 56 hvcurveto
          hintmask 01110000
          -26 -121 rlineto
          49 hlineto
          111 520 -77 callgsubr
          -70 -328 rlineto
          hintmask 10110000
          -84 -43 -91 -73 -86 hhcurveto
          -73 -24 43 62 26 5 30 6 31 hvcurveto
          63 293 -77 callgsubr
          -64 -300 rlineto
          -7 -35 -5 -32 -30 vvcurveto
          -76 30 -57 96 vhcurveto
          endchar
        </CharString>
        <CharString name="uacute">
          -26 callgsubr
          424 730 -89 callsubr
          -160 -639 -105 callgsubr
          endchar
        </CharString>
        <CharString name="ubreve">
          -63 callgsubr
          138 -8 callgsubr
          41 52 hintmask 10110100
          -57 callgsubr
          hintmask 01110100
          -19 12 -16 21 6 7 0 1 9 vhcurveto
          -19 callsubr
          -11 -6 5 11 3 3 11 2 10 hvcurveto
          92 435 -77 callgsubr
          -69 -328 rlineto
          hintmask 10110100
          -104 callgsubr
          176 676 -52 callsubr
          hintmask 10101100
          -98 callsubr
          hintmask 10110100
          -61 callgsubr
        </CharString>
        <CharString name="ucircumflex">
          -26 callgsubr
          265 632 -99 callsubr
          -77 -659 -105 callgsubr
          endchar
        </CharString>
        <CharString name="udblgrave">
          -26 callgsubr
          403 629 -88 callsubr
          -72 -740 -105 callgsubr
          endchar
        </CharString>
        <CharString name="udieresis">
          -63 callgsubr
          140 88 hstemhm
          41 52 hintmask 10111000
          298 640 -94 callgsubr
          -224 -650 -105 callgsubr
          endchar
        </CharString>
        <CharString name="udotbelow">
          -2 1 callgsubr
          141 -47 callgsubr
          hstemhm
          41 52 hintmask 11011000
          -57 callgsubr
          hintmask 10111000
          -19 12 -16 21 6 7 0 1 9 vhcurveto
          -19 callsubr
          -11 -6 5 11 3 3 11 2 10 hvcurveto
          92 435 -77 callgsubr
          -69 -328 rlineto
          hintmask 11011000
          -104 callgsubr
          35 -141 -92 callsubr
          endchar
        </CharString>
        <CharString name="ugrave">
          -26 callgsubr
          162 -10 -105 callgsubr
          169 639 -77 callsubr
        </CharString>
        <CharString name="uhungarumlaut">
          -26 callgsubr
          162 -10 -105 callgsubr
          196 740 -64 callsubr
          endchar
        </CharString>
        <CharString name="uinvertedbreve">
          -63 callgsubr
          138 -9 callgsubr
          41 52 291 47 -32 32 hintmask 10110110
          258 638 rmoveto
          32 hlineto
          hintmask 10101101
          -78 callgsubr
          hintmask 10110110
          -95 callsubr
          -96 -648 -83 callgsubr
          hintmask 01110110
          -19 12 -16 21 6 7 0 1 9 vhcurveto
          -19 callsubr
          -11 -6 5 11 3 3 11 2 10 hvcurveto
          92 435 -77 callgsubr
          -69 -328 rlineto
          hintmask 10110110
          -79 callgsubr
        </CharString>
        <CharString name="umacron">
          -63 callgsubr
          171 37 hstemhm
          41 52 hintmask 10111000
          162 -10 -105 callgsubr
          317 681 -70 callsubr
          endchar
        </CharString>
        <CharString name="underscore">
          -64 -46 46 hstem
          357 -46 rmoveto
          10 46 rlineto
          -366 -31 callgsubr
          endchar
        </CharString>
        <CharString name="uni00A0">
          -313 endchar
        </CharString>
        <CharString name="uni00AD">
          2 callsubr
        </CharString>
        <CharString name="uni015E">
          20 11 callsubr
          42 44 630 46 hstem
          103 55 134 30 149 56 vstem
          129 -152 rmoveto
          -79 callsubr
          37 48 rlineto
          153 6 111 77 139 vvcurveto
          98 -80 34 -121 29 vhcurveto
          -113 26 -55 23 69 vvcurveto
          98 65 75 156 80 56 -26 -51 32 vhcurveto
          35 40 rlineto
          55 -43 -62 28 -88 hhcurveto
          -163 -123 -88 -146 -88 68 -32 119 -27 hvcurveto
          118 -27 63 -31 -74 vvcurveto
          -105 -85 -58 -134 -103 -76 40 62 -42 vhcurveto
          -36 -41 57 -69 77 -35 101 -2 rlinecurve
          -58 -79 -80 callsubr
          endchar
        </CharString>
        <CharString name="uni015F">
          -103 11 callsubr
          37 40 459 40 hstem
          67 50 96 30 99 51 vstem
          50 -152 rmoveto
          -79 callsubr
          34 43 rlineto
          124 5 88 71 101 vvcurveto
          70 -61 24 -104 26 vhcurveto
          -75 19 -36 13 45 vvcurveto
          86 74 39 82 59 53 -20 -40 23 vhcurveto
          33 27 rlineto
          43 -23 -56 30 -77 hhcurveto
          -114 -104 -62 -116 -62 48 -19 92 -24 hvcurveto
          86 -23 49 -17 -51 vvcurveto
          -76 -71 -49 -96 -67 -50 24 50 -44 vhcurveto
          -31 -34 37 -49 60 -26 69 -4 rlinecurve
          -56 -76 -80 callsubr
          endchar
        </CharString>
</ttFont>
